<?xml version="1.0" encoding="UTF-8"?>
<svg width="1085px" height="675px" viewBox="0 0 1085 675" version="1.1" xmlns="http://www.w3.org/2000/svg" xmlns:xlink="http://www.w3.org/1999/xlink">
    <!-- Generator: Sketch 46.2 (44496) - http://www.bohemiancoding.com/sketch -->
    <title>Mapa</title>
    <desc>Created with Sketch.</desc>
    <defs>
        <linearGradient x1="50%" y1="10.0722142%" x2="50%" y2="103.173884%" id="linearGradient-1">
            <stop stop-color="#068B68" stop-opacity="0.62720788" offset="0%"></stop>
            <stop stop-color="#005B3B" stop-opacity="0" offset="100%"></stop>
        </linearGradient>
    </defs>
    <g id="v2" stroke="none" stroke-width="1" fill="none" fill-rule="evenodd" opacity="0.227667572">
        <g id="01_HOME_Desktop_A-Copy-5" transform="translate(-154.000000, -2651.000000)" fill-rule="nonzero" fill="url(#linearGradient-1)">
            <g id="Opportunities" transform="translate(-39.000000, 2632.000000)">
                <g id="Mapa" transform="translate(193.000000, 19.000000)">
                    <path d="M1038.52772,144.169115 L1054.37868,123.259132 L1069.82797,112.071642 L1085,98.2041444 L1081.02607,86.989283 L1065.03417,76.6764766 L1054.12809,42.6457744 L1043.50156,37.4778252 L1033.44032,45.2447923 L1025.3563,40.1238003 L1017.55969,64.1030163 L1017.96136,85.2391207 L1015.07899,98.1423428 L1009.27028,104.306198 L1003.25759,106.881416 L1003.20099,113.480506 L970.799018,122.104511 L943.342983,129.028313 L936.134362,135.752418 L921.37178,157.059435 L920.105649,158.28307 L921.288779,158.619074 L923.995786,161.814272 L927.063675,170.829929 L915.567921,181.684899 L900.121811,182.733276 L885.146337,184.71891 L875.186913,190.262389 L879.478725,197.735611 L880.183446,199.768975 L867.052557,217.610033 L854.124845,227.438595 L844.912525,232.51854 L834.644581,241.467676 L821.469276,246.946619 L811.916207,247.057738 L800.273346,243.726498 L805.062375,233.725766 L807.997108,224.058391 L814.746923,208.809645 L815.074162,208.483389 L814.768026,208.17319 L814.862772,208.150516 L812.33519,197.75008 L806.554818,182.824809 L798.373663,181.048048 L788.296004,194.1273 L785.552264,194.336217 L784.01205,188.981275 L792.751437,177.361527 L792.786757,165.095135 L789.523814,153.036115 L774.358761,144.620563 L757.18215,141.144502 L755.76017,151.844946 L752.042305,154.964623 L750.730788,164.897598 L748.684705,158.516601 L740.989817,166.65442 L737.272748,176.008818 L733.713912,189.430736 L733.937046,200.805218 L741.920851,216.152556 L743.20738,232.871792 L736.875752,245.982364 L733.443362,249.83166 L728.772919,253.007624 L722.726324,253.722334 L721.182048,252.469408 L714.858457,239.642832 L714.123979,233.106382 L714.055811,226.71965 L710.548631,214.207993 L712.777936,199.385593 L715.305518,181.013244 L723.384069,158.946919 L718.952919,159.53485 L707.31156,177.014937 L705.659382,175.329709 L711.561341,166.075578 L711.594718,166.084842 L711.820324,165.652055 L712.38562,164.653525 L712.346503,164.642586 L720.900283,148.231962 L732.710826,144.717568 L746.221228,137.998184 L760.572686,139.010961 L761.330651,139.067293 L778.504172,134.231466 L767.604353,124.570377 L769.995778,121.042285 L761.803674,120.995746 L761.035466,123.644831 L756.453941,123.346367 L751.715862,116.385618 L733.832941,120.816956 L718.729786,128.140328 L705.392363,119.589042 L695.657661,117.319765 L700.601745,101.698201 L683.718731,112.948287 L670.057954,122.450947 L657.043267,129.770989 L645.584997,121.486672 L628.485517,127.600702 L628.413861,125.20802 L639.769394,113.850367 L651.744351,102.737581 L669.116723,92.9665858 L670.70709,91.4558221 L668.820741,91.4558221 L646.638987,85.9866727 L632.661832,90.1379186 L615.55255,82.8231707 L597.332103,79.1405529 L585.322754,77.8171797 L580.222822,73.7594075 L576.867562,58.9413313 L569.580619,59.197183 L569.637793,69.3046022 L534.518305,69.2042688 L475.515968,67.251675 L415.554916,62.9779729 L363.974798,57.5541929 L312.585075,50.4381714 L261.45767,41.6427673 L210.649997,31.1655755 L194.006475,27.3738242 L144.03434,14.6975836 L93.3791064,0 L95.0771228,24.2420834 L91.6724919,45.3152171 L86.8826682,49.4496342 L85.41996,28.6409545 L62.0342717,15.9700957 L56.8693837,41.9744938 L54.9236972,64.1668925 L39.8493666,100.618925 L29.6573988,128.11256 L15.4731361,153.017719 L16.9236539,168.889952 L10.8481465,190.040591 L0,209.4281 L5.86022159,226.291273 L2.14316387,247.271286 L10.8223072,272.860255 L16.8739845,283.474284 L14.5158774,288.865178 L20.9704236,328.572777 L20.9853027,328.663516 L33.5623869,359.276451 L32.2484577,373.790593 L36.7450263,379.723673 L52.6582325,386.081203 L59.6628585,396.385386 L67.9207238,399.515252 L86.4382997,419.947608 L92.2049508,434.941738 L92.6148716,445.416856 L118.199314,449.185558 L144.803189,452.268533 L142.067352,456.342671 L173.080964,475.825992 L219.956116,502.912402 L220.086865,502.988276 L263.362253,509.588292 L263.360443,509.600908 L264.171963,509.711806 L264.947655,509.830116 L264.949421,509.818117 L282.74561,512.250742 L284.474167,501.612849 L321.493933,506.263095 L328.319332,516.094525 L338.90754,525.62846 L350.968192,538.335756 L357.05748,552.491176 L361.414679,567.565017 L372.729505,576.684384 L391.871538,586.498345 L408.030626,566.717 L426.08816,567.434357 L441.28681,578.560487 L451.797093,596.911706 L459.106332,612.683493 L472.298898,628.30821 L476.74965,646.787003 L483.166972,659.854874 L501.892053,668.758265 L518.958289,675 L529.694444,674.253617 L524.814598,664.237709 L523.834249,651.710392 L524.331465,633.703427 L529.768084,622.204106 L542.451647,609.947551 L565.454809,598.68926 L565.564434,598.635267 L586.333655,579.024372 L605.50103,573.240436 L625.17913,573.455529 L642.594591,576.178149 L656.009542,580.952969 L675.930687,585.300603 L676.053644,585.327953 L708.976276,582.099892 L700.272033,566.092632 L701.982754,555.943063 L714.586671,555.425007 L727.956235,548.461063 L747.020431,549.499294 L746.892308,549.865515 L748.199234,549.563522 L748.687796,549.590077 L748.740865,549.438329 L773.282916,543.766968 L795.562551,552.937857 L801.964641,559.959589 L826.2591,545.751057 L840.044379,553.616924 L856.865495,566.962615 L864.083475,580.384974 L862.478272,596.742751 L866.534413,609.276245 L880.938321,626.736392 L897.060985,647.451156 L906.985884,652.001444 L912.70992,663.023468 L925.730964,664.305817 L935.522795,657.569581 L936.468663,633.555559 L931.333588,610.356735 L931.305332,610.231544 L916.582749,585.390501 L914.824081,575.226817 L901.175754,557.424004 L889.145257,537.734061 L883.25716,519.614521 L885.068808,504.457571 L891.438581,484.308637 L911.799989,467.475769 L927.842035,448.030782 L927.955589,447.89227 L932.87592,428.553416 L939.904674,425.658141 L955.500364,409.07658 L974.137277,394.802675 L983.385713,372.572825 L974.95361,348.472078 L975.2148,348.413276 L974.605534,347.477384 L974.423901,346.958049 L974.287566,346.988751 L965.22721,333.069024 L958.176734,320.993154 L946.904732,312.773505 L956.602878,316.296237 L951.222593,293.147877 L951.96334,287.629411 L956.053124,302.835942 L968.765472,312.514566 L965.675067,331.36033 L969.195581,332.371563 L976.137625,308.887464 L981.989607,298.102985 L980.019108,295.682845 L971.673098,284.078624 L964.917895,272.246429 L965.267915,272.104079 L971.334819,277.477019 L975.766057,277.761412 L979.333546,285.068727 L989.675839,260.444056 L988.486441,240.532359 L983.680105,240.608277 L985.818021,232.296345 L986.248482,237.258951 L999.369041,233.904509 L1025.61784,218.511029 L1017.02954,214.483783 L996.546273,222.623411 L1004.67092,216.705681 L1015.28888,212.593166 L1022.12452,209.597667 L1022.11455,209.863091 L1023.35569,209.058127 L1023.75577,208.88278 L1023.75904,208.796541 L1035.90698,200.917572 L1045.07621,198.847331 L1057.05037,190.799897 L1056.38485,182.344423 L1046.42852,176.960939 L1051.80483,186.902517 L1045.40671,188.214157 L1035.89435,177.232805 L1032.40253,164.302255 L1033.85833,158.031141 L1038.52772,144.169115 Z M1050.39698,180.92837 L1054.85479,183.338807 L1055.37779,189.992508 L1044.4295,197.350685 L1036.06256,199.239625 L1034.62743,195.927927 L1030.84696,193.866773 L1027.43532,187.316384 L1019.0237,189.953735 L1001.47773,194.025623 L987.952671,197.046488 L987.598147,180.309431 L1001.94422,176.99222 L1001.95455,177.002806 L1002.39013,176.889084 L1003.77432,176.569005 L1003.74209,176.536053 L1025.20054,170.932008 L1026.49881,167.74506 L1029.57217,165.247325 L1030.97305,165.15716 L1034.44111,178.004249 L1044.80848,189.972132 L1054.24164,188.038507 L1050.39698,180.92837 Z M1034.58513,199.864433 L1023.83251,206.838478 L1023.92805,204.276603 L1020.21884,191.258402 L1026.63346,189.247271 L1029.65049,195.039545 L1033.37463,197.070174 L1034.58513,199.864433 Z M987.683002,235.238072 L987.021283,227.618441 L987.166182,227.05486 L986.965742,226.979428 L986.965742,226.979384 L986.668789,226.867603 L970.768729,220.881941 L970.860297,220.807655 L969.434255,220.379544 L969.030371,220.227533 L969.002556,220.250031 L965.88884,219.315288 L962.545278,218.404234 L960.726302,215.464492 L960.567364,212.352225 L957.409321,210.361077 L952.102767,207.179555 L926.098205,212.92648 L898.464952,218.649497 L869.564775,224.122176 L868.512859,218.329639 L881.975049,200.040442 L881.036157,197.333085 L881.013463,197.187955 L877.385665,190.872641 L885.659976,186.267257 L900.281543,184.326574 L916.250742,183.24454 L928.913202,171.287596 L925.416176,161.010807 L922.758529,157.873883 L937.292414,136.864536 L944.135386,130.4812 L970.382684,123.861951 L971.158662,128.169663 L971.259677,131.550309 L973.641653,139.151413 L975.564822,142.681467 L975.062043,148.359489 L978.418937,154.541364 L978.176201,158.537334 L979.202774,160.064905 L981.63252,159.629118 L985.982257,179.769671 L986.355942,197.403092 L986.235148,197.430089 L986.371836,198.129713 L986.390998,199.037062 L986.542344,199.003271 L990.246698,217.975858 L991.837773,219.351681 L988.516905,222.648204 L990.652259,226.916392 L991.335965,226.418407 L1016.97629,216.229226 L1022.18351,218.670629 L998.861582,232.380469 L987.683002,235.238072 Z M976.798019,276.222504 L971.986297,275.913056 L965.585796,270.244783 L964.252292,270.787366 L963.033931,267.229521 L965.042841,264.328863 L968.529183,261.064851 L969.579245,259.129285 L973.342495,254.772254 L975.635289,250.654666 L967.609983,245.293062 L966.571664,242.487907 L964.37918,242.201926 L963.689293,238.923049 L965.269418,235.171947 L963.561699,232.268995 L965.834006,229.640201 L967.813512,223.277598 L969.326353,222.051228 L983.009734,227.202238 L985.255639,228.047741 L981.603558,242.243392 L986.976691,242.158917 L988.053418,260.167868 L979.223878,281.189743 L976.798019,276.222504 Z M967.488568,330.214155 L970.402021,312.443764 L971.358132,310.746053 L974.181166,309.84832 L968.108697,330.392148 L967.488568,330.214155 Z M974.815423,307.961631 L970.586126,309.310149 L970.271515,309.410195 L970.271249,309.410548 L970.269925,309.410989 L970.084937,309.739714 L969.386839,310.972305 L957.459475,301.892419 L952.474686,283.356105 L950.905509,283.457431 L949.593904,293.225338 L954.371189,313.780899 L942.413009,309.437191 L940.231915,305.662269 L936.808531,307.683104 L934.899136,307.148902 L935.293749,304.923518 L935.817984,301.970631 L935.830346,301.957441 L938.776293,298.804416 L938.694881,296.628041 L941.119947,293.384143 L936.760762,290.420537 L935.345051,292.05058 L931.619328,290.25935 L927.802833,289.659686 L928.437885,287.475502 L928.623492,286.845885 L927.951089,286.543053 L924.855562,285.131719 L921.996678,284.887204 L920.004634,282.247118 L916.602354,278.82505 L910.693772,278.096048 L923.561175,275.399807 L940.358009,271.979284 L956.826013,268.273221 L965.566195,300.162594 L979.075095,297.062063 L980.068026,298.282169 L974.815423,307.961631 Z M889.704375,484.473529 L883.517648,504.046796 L881.723661,518.932982 L877.726328,519.161396 L872.829219,517.905692 L869.495018,519.608167 L870.861458,528.783028 L869.33449,530.445537 L867.279047,526.726946 L829.843013,528.08358 L807.611856,529.7625 L803.639601,523.62637 L802.162787,520.700304 L800.466724,517.750769 L800.553611,513.636313 L800.553611,508.83882 L798.773046,504.118789 L799.003243,496.102675 L802.215238,490.899921 L799.50982,486.1165 L795.425512,478.463342 L787.263165,453.488552 L778.248901,423.016864 L793.727945,421.398906 L805.000477,419.709796 L821.047026,417.653273 L829.400189,416.582973 L828.65432,417.492527 L825.49716,423.680312 L832.527239,427.515493 L836.342145,428.539607 L841.359075,435.884461 L844.678354,440.189086 L853.048206,445.145384 L855.015968,448.117593 L860.755633,451.502914 L864.243211,457.246267 L871.937304,461.3107 L874.318573,466.680112 L875.944879,469.154732 L875.434328,471.456476 L880.326757,473.783231 L883.059547,477.920405 L883.877822,483.158362 L886.544829,483.914891 L889.704375,484.473529 Z M913.732521,661.513498 L908.155769,650.774676 L898.086764,646.15875 L882.189618,625.734952 L867.965753,608.492367 L864.106963,596.56745 L865.727882,580.056338 L858.121471,565.912651 L840.99422,552.324517 L826.249651,543.899922 L802.274749,557.920798 L796.505327,551.59375 L773.420753,542.091135 L749.366733,547.649832 L750.190482,545.295727 L750.978205,539.504557 L745.242513,533.636807 L745.332491,532.582167 L757.359898,530.009793 L802.539384,524.877398 L806.783426,531.432067 L829.932283,529.682744 L866.351985,528.363694 L869.00875,533.171333 L872.56061,529.302495 L871.250594,520.510973 L873.018709,519.608167 L877.569682,520.774677 L881.868559,520.52906 L887.648931,538.318551 L899.829008,558.295491 L913.311243,575.888683 L915.052692,585.95382 L929.794877,610.827679 L934.858782,633.699454 L933.952031,656.704272 L925.305007,662.653453 L913.732521,661.513498 Z M747.571245,547.92527 L728.50961,546.886333 L724.556339,507.919604 L724.921988,466.183273 L725.860086,432.297327 L725.863971,432.131464 L724.246318,428.093852 L749.944568,425.712133 L776.624888,423.180388 L785.732396,453.964259 L793.922911,479.027452 L798.10426,486.887893 L800.353167,490.863924 L797.412076,495.626965 L797.161482,504.387962 L798.949995,509.131461 L798.949995,513.619109 L798.853659,518.162338 L800.750958,521.460008 L801.708569,523.359578 L757.101532,528.430922 L743.835367,531.263117 L743.582476,534.231444 L749.28532,540.066374 L748.649472,544.844282 L747.571245,547.92527 Z M726.928072,547.189828 L714.162301,553.838367 L701.928184,554.341426 L701.470085,552.406654 L700.299494,547.908772 L697.048295,545.023378 L695.602031,542.232736 L696.721055,538.158157 L697.161847,532.712828 L675.085788,534.058522 L655.877973,534.279967 L654.849853,528.847166 L657.314831,525.950037 L659.068863,519.416454 L660.740599,514.029883 L664.868793,509.69707 L665.621284,504.743948 L668.852086,501.616817 L665.557841,497.026652 L666.286844,493.771991 L662.869685,488.684239 L664.730957,484.67852 L662.960016,483.167228 L663.705178,478.21534 L660.814242,471.481487 L660.976317,465.636411 L665.164775,456.412278 L667.098055,451.09686 L670.523823,447.531603 L673.078116,445.806498 L675.662122,438.302793 L675.662078,438.302088 L675.662122,438.302 L675.525875,434.871331 L679.144268,432.744052 L679.384532,430.926355 L699.720775,429.508933 L722.571973,428.227422 L724.252495,432.419384 L723.318283,466.154334 L722.952634,507.949245 L726.928072,547.189828 Z M676.149142,583.708406 L656.499694,579.425793 L643.062051,574.643121 L625.369416,571.86342 L605.855509,571.641182 L604.345759,569.019491 L606.300982,565.602894 L609.786264,561.893655 L609.708736,556.021229 L608.109009,554.422065 L609.777655,548.642628 L611.122109,545.834783 L613.166647,535.731179 L610.936546,531.993091 L608.226492,526.193364 L606.183543,520.239506 L604.767832,516.007712 L601.141578,513.220864 L599.270152,486.588282 L619.665821,486.092238 L643.536573,484.31155 L661.80532,484.289318 L662.763991,485.10725 L661.034242,488.828179 L664.572018,494.094324 L663.836745,497.377128 L666.742559,501.427489 L664.116258,503.969425 L663.359086,508.958543 L659.320209,513.197396 L657.528608,518.972066 L655.859962,525.186451 L653.131894,528.391839 L654.551535,535.897836 L675.143758,535.659276 L695.41881,534.424657 L695.154176,537.80764 L693.890341,542.412627 L695.761061,546.023319 L698.869656,548.783523 L699.913448,552.793167 L700.482629,555.196413 L698.599547,566.371155 L706.412668,580.741667 L676.149142,583.708406 Z M604.189954,571.962761 L585.506773,577.600509 L564.640465,597.303686 L541.632579,608.564359 L528.44319,621.255952 L522.737212,633.323176 L522.229797,651.708891 L522.229002,651.751063 L523.239152,664.664894 L527.212246,672.820315 L519.188485,673.377367 L502.512226,667.281909 L484.35955,658.646897 L478.287922,646.325409 L473.768649,627.563414 L460.515773,611.912053 L453.220663,596.177849 L442.509541,577.469848 L426.64096,565.852393 L407.294558,565.084131 L391.448714,584.481432 L373.671885,575.385622 L362.814716,566.635565 L358.584404,551.998262 L352.328318,537.440713 L340.025328,524.480741 L329.58277,515.103317 L322.63194,505.114231 L320.73292,500.91896 L320.745061,499.743805 L339.766122,501.885111 L379.629959,505.772741 L400.999355,507.529917 L410.013663,390.913325 L430.125492,392.353862 L451.066147,393.611508 L471.202611,394.612155 L469.008979,444.431076 L474.398182,447.663813 L478.118783,450.125155 L483.58984,448.673856 L486.456538,453.911856 L493.990455,456.104818 L500.49281,457.719642 L510.14526,457.380858 L512.929706,463.901913 L519.821993,461.30991 L525.481746,465.20923 L532.088957,467.220714 L535.203865,463.848714 L538.174713,467.841155 L545.698873,466.432071 L548.920271,467.740976 L552.826832,466.586994 L556.533703,464.502769 L560.810638,464.458965 L568.594001,464.704627 L573.355613,462.966994 L579.118765,465.510473 L588.37188,470.380709 L589.708519,472.285793 L594.315872,471.81948 L598.505874,471.81948 L597.657666,485.0241 L597.552148,485.026659 L597.607202,485.809522 L597.554488,486.629749 L597.664686,486.627058 L599.592757,514.051767 L603.402187,516.979421 L606.723055,526.753504 L609.500482,532.707361 L611.473718,536.022235 L609.632004,545.233884 L608.30243,548.011292 L606.306457,554.886746 L608.114485,556.694033 L608.174794,561.267788 L605.066948,564.574808 L602.496231,569.02099 L602.496496,569.021431 L602.496231,569.021784 L604.189954,571.962761 Z M320.610779,504.537415 L283.139095,499.830617 L281.413672,510.451306 L265.178646,508.231744 L285.982393,364.198561 L285.983453,364.198738 L285.986059,364.180475 L317.477086,368.45206 L350.138173,372.385435 L385.346888,375.918223 L409.377418,377.964996 L408.718966,386.754225 L408.473581,390.029222 L399.524924,505.800883 L379.773667,504.176662 L339.933715,500.291503 L319.159416,497.952176 L319.126149,501.256948 L320.610779,504.537415 Z M93.7968648,434.614686 L87.8281832,419.09328 L68.8501896,398.15394 L60.7050723,395.066334 L53.7090559,384.775429 L37.7543606,378.401489 L33.9014423,373.31722 L35.1950123,359.030787 L22.5388397,328.225388 L16.1743421,289.074093 L18.6663446,283.378823 L12.3163349,272.273074 L3.7937967,247.146139 L7.51242265,226.159862 L1.75086513,209.582228 L12.2932339,190.741228 L18.2830524,169.96581 L95.054023,192.803926 L74.8380441,267.426703 L103.535055,311.281224 L131.920422,353.269039 L159.509965,392.781969 L159.468332,394.942333 L159.91504,398.716462 L160.726648,403.528027 L162.493572,408.990912 L165.170381,414.108 L158.112885,417.800786 L153.978091,429.213999 L148.475313,434.31428 L148.659728,439.365244 L148.622906,443.603347 L151.500576,447.636459 L148.727056,451.358977 L145.840005,450.724464 L145.805458,450.775898 L118.408783,447.597332 L94.1652732,444.025813 L93.7968648,434.614686 Z M56.5722214,63.7235833 L58.4507228,42.2440197 L63.1837697,18.4157994 L83.8820867,29.6306608 L85.5076638,52.7543616 L93.1626065,46.1460747 L96.6901738,24.3148464 L95.1393751,2.17888956 L143.61346,16.2435475 L192.860609,28.7363247 L185.407486,60.6895509 L177.504322,96.4985802 L178.210632,100.742551 L177.246706,104.31288 L141.276494,95.6481589 L134.36466,96.6265072 L130.101434,94.2997304 L125.846818,95.5053678 L118.774069,96.4899802 L110.881091,93.9566691 L110.880838,93.956713 L110.880694,93.9566691 L106.182492,94.8927794 L102.614991,94.7585894 L100.427197,92.8433595 L94.1308243,89.7795953 L89.6945416,89.4075736 L82.1876003,90.052255 L78.0778503,88.9068755 L74.7640469,87.0006225 L74.5565432,83.6324352 L75.3865614,79.2039203 L73.4579496,72.9766541 L68.6783131,69.8835549 L65.0951507,66.2338015 L59.6640274,64.3893721 L56.5722214,63.7235833 Z M571.250854,70.9115965 L571.19368,60.7439205 L575.595912,60.5890197 L578.783624,74.662258 L584.686909,79.3592188 L597.086235,80.7224918 L614.997367,84.3288393 L632.56316,91.8387844 L646.678107,87.6468662 L666.581284,92.5538686 L650.875174,101.387607 L638.656731,112.697156 L626.789853,124.564905 L626.897932,128.165759 L622.19345,129.827894 L622.970224,144.248916 L614.4281,150.209786 L611.664757,155.756 L615.78902,160.626279 L614.673175,166.944681 L614.9175,174.025125 L614.525979,180.172592 L620.648513,185.417562 L622.96475,185.572088 L628.943973,188.906945 L630.932087,190.43297 L632.361926,193.154443 L637.407025,197.505563 L643.816135,200.985947 L644.400283,202.700907 L644.771452,208.844447 L645.227918,210.923864 L621.339153,211.549908 L593.687093,212.544291 L567.962884,213.264073 L548.061297,213.241753 L548.423061,189.654121 L546.273616,164.288935 L542.941844,162.149128 L541.371829,158.589343 L542.230811,155.608533 L546.421608,152.666056 L546.733748,149.212625 L546.795911,149.211081 L546.801298,148.465272 L546.878913,147.606447 L546.807478,147.608211 L546.836617,143.568261 L545.681655,139.433426 L544.218174,135.250904 L543.403033,130.046561 L543.228421,123.985181 L542.624715,122.522919 L541.974783,115.015311 L541.936417,111.410927 L541.61068,108.224728 L540.775938,102.899142 L538.632018,97.3008973 L536.694013,92.5937684 L536.460636,87.9691959 L536.303286,82.9029691 L536.927344,79.6295391 L537.098028,76.2762877 L535.4983,72.4086628 L535.364792,70.808704 L571.250854,70.9115965 Z M628.535539,129.270864 L645.329723,123.279864 L656.367378,131.260401 L656.957,131.692306 L658.077877,131.048838 L658.118274,131.026296 L660.405504,131.568262 L662.169647,136.181895 L678.704186,139.817996 L689.378045,143.631297 L689.661179,143.732579 L689.875394,143.716212 L694.887159,143.344918 L697.880699,143.373855 L699.206345,147.42651 L703.757317,148.720548 L705.348833,151.592048 L704.577181,153.421039 L703.962526,158.862 L703.963762,158.861956 L703.962526,158.873381 L707.905642,158.740074 L707.06962,162.445255 L707.071739,162.447504 L707.06962,162.456988 L710.014596,165.522318 L703.621865,175.541754 L707.551119,179.548267 L719.884749,161.027612 L720.967658,160.88407 L713.769986,180.5434 L711.190661,199.157529 L708.937161,214.140719 L708.912084,214.311257 L712.453702,226.843251 L712.512421,232.336133 L712.324518,232.34994 L712.334673,232.413329 L698.42807,233.392449 L678.405865,234.86607 L659.324097,236.090454 L657.324239,232.411741 L651.000472,230.297386 L649.669308,226.581133 L648.811873,224.424564 L648.485385,219.40095 L650.243257,217.12585 L647.312365,212.776231 L646.368043,208.683654 L645.994535,202.496706 L645.131624,199.874971 L638.388918,196.235782 L633.639845,192.14047 L632.188107,189.376738 L629.875005,187.600771 L623.431411,183.997186 L621.287492,183.854393 L616.17661,179.476277 L616.518815,174.048991 L616.281554,167.058138 L617.499164,160.164642 L613.57066,155.525997 L615.680938,151.289482 L623.496398,145.836345 L624.662353,145.836345 L623.859752,130.938866 L628.536022,129.286899 L628.535539,129.270864 Z M697.698271,105.559211 L693.606104,118.48707 L704.758106,121.086484 L718.621707,129.97501 L734.301194,122.351983 L751.017321,118.209339 L755.567588,124.894669 L762.217888,125.327721 L763.006406,122.605079 L766.984224,122.627377 L765.487013,124.836396 L775.245202,133.484289 L761.167829,137.448584 L745.897082,136.369285 L732.186151,143.201729 L719.791505,146.890191 L710.84223,164.058888 L708.825726,161.959312 L709.928415,157.068035 L709.925854,157.068123 L709.928415,157.056698 L705.753776,157.197857 L706.100176,153.946373 L707.132225,151.502279 L707.129488,151.497383 L707.132225,151.490943 L704.83793,147.350637 L700.477244,146.10746 L699.058355,141.770765 L694.845659,141.733622 L689.880427,142.109151 L679.208467,138.292365 L663.359091,134.791645 L661.600379,130.192084 L660.16118,129.855286 L670.909078,123.806786 L684.621598,114.272454 L697.698271,105.559211 Z M721.515027,254.80278 L722.242442,255.392695 L729.350842,254.552795 L734.285477,251.196455 L754.931741,249.11223 L772.305701,246.936824 L775.277343,271.451214 L780.273876,314.042223 L779.189378,315.525195 L781.532149,320.724023 L781.145396,321.958598 L778.016315,322.381504 L775.202906,324.967994 L769.778825,324.561938 L769.942533,330.058879 L767.469697,332.142311 L765.365689,336.747738 L762.570205,337.880987 L759.126424,345.630353 L755.734386,344.267499 L753.55912,340.19839 L749.864745,346.96546 L748.301044,349.436993 L743.837753,346.984649 L738.789476,350.29564 L737.744182,352.431124 L731.334234,349.239456 L727.124628,352.535935 L721.024788,350.836635 L721.072558,353.822562 L720.006867,353.651846 L720.170487,349.186608 L722.350521,342.19655 L726.004103,336.270484 L727.127807,331.825053 L728.76983,330.003738 L728.58184,326.187703 L726.99933,321.473141 L725.354217,319.91156 L726.89761,312.836586 L721.515027,254.80278 Z M744.839249,233.179255 L743.494708,215.703492 L735.53289,200.399163 L735.322207,189.623993 L738.780911,176.55568 L742.366414,167.531464 L747.986256,161.588944 L750.294589,168.788713 L751.852816,168.649053 L753.550468,155.791598 L757.268332,152.671922 L758.546207,143.051879 L773.689273,146.08161 L788.155079,154.108752 L791.183056,165.198799 L791.149414,176.82481 L782.250205,188.656607 L784.371431,196.033178 L789.130703,195.670927 L799.025139,182.829484 L805.370894,184.207248 L810.789413,198.179204 L813.238762,208.256515 L806.510933,223.455591 L803.588651,233.089308 L798.602272,243.50536 L791.800891,244.654269 L783.004286,245.810235 L773.950023,247.132815 L773.688568,245.137785 L754.752407,247.508741 L735.972184,249.404429 L738.148157,246.964217 L744.839249,233.179255 Z M855.437245,228.454945 L867.109951,219.580138 L867.713305,222.901188 L868.275863,225.997528 L898.777358,220.22087 L926.434098,214.493178 L951.825506,208.882031 L956.568355,211.725519 L959.007549,213.263677 L959.146092,215.957359 L961.513231,219.783541 L965.447164,220.855385 L967.496427,221.471106 L966.425969,222.338754 L964.402667,228.845339 L961.596234,232.090603 L963.479405,235.290873 L962.016718,238.762655 L963.043292,243.64383 L965.40337,243.951691 L966.286632,246.335969 L973.519536,251.168663 L972.07398,253.788811 L968.308434,258.148179 L967.24345,260.072804 L964.141125,262.977344 L959.62459,262.633134 L957.764819,264.53469 L956.828488,266.630031 L940.022119,270.412629 L923.237029,273.83077 L909.331927,276.743912 L903.123214,278.010204 L884.862105,281.426404 L865.112437,284.94199 L861.186362,262.146441 L860.655592,259.036028 L855.437245,228.454945 Z M918.757222,283.255969 L920.008608,284.914685 L920.703351,285.835841 L919.756424,289.759422 L908.077448,284.803521 L907.818288,292.822414 L906.017325,295.579486 L902.76851,299.659535 L900.763132,302.972864 L898.986452,302.122023 L895.773663,310.497301 L895.285012,312.770062 L893.233277,313.925146 L890.332363,312.822864 L886.334147,310.855228 L885.270841,317.703288 L882.626526,322.884162 L882.313326,326.734958 L879.156872,330.563874 L876.971186,335.907745 L876.960502,335.933683 L876.960502,335.933727 L876.958117,335.939549 L877.055071,336.257335 L877.862573,339.02248 L877.835553,340.931049 L875.444571,343.027802 L872.499507,343.154935 L870.37678,345.363954 L867.409817,344.74316 L867.409022,344.775626 L867.398074,344.773288 L867.330612,347.580516 L860.869891,350.605042 L858.035379,349.171741 L852.057657,353.310106 L849.104822,351.967147 L846.698564,350.202119 L845.356672,346.654596 L846.143424,345.665948 L844.997468,345.704678 L844.690097,344.892215 L844.023522,345.73741 L840.73815,345.848662 L838.471229,343.336854 L835.061884,340.501924 L833.57103,336.946858 L830.582964,333.285349 L830.037183,328.187846 L829.507119,326.440067 L833.953897,325.16632 L836.306116,320.697421 L835.750975,314.900472 L837.469731,309.666045 L839.067958,309.783384 L839.926144,313.242241 L842.797478,310.959686 L843.059022,307.965951 L843.134253,303.477465 L846.462097,298.932692 L848.714889,299.097409 L851.463309,297.860054 L853.824181,296.057487 L858.45427,288.998568 L858.332151,286.13942 L859.306981,280.350632 L860.205873,273.299919 L860.205873,273.299611 L860.205873,273.299567 L860.111127,267.033173 L858.928793,264.377781 L859.834749,263.744458 L863.806298,286.802475 L884.347662,283.145377 L886.693612,296.931399 L890.456067,292.840763 L893.188064,289.421034 L896.949018,287.657595 L898.966845,284.654464 L904.950835,284.552387 L906.908353,282.018657 L909.976331,279.622248 L915.856922,280.3475 L918.757222,283.255969 Z M830.580581,393.181188 L827.194018,395.590125 L825.454864,398.134398 L821.174795,400.894602 L816.529871,402.707315 L812.097133,404.04207 L809.364342,407.779056 L808.279844,410.631543 L803.836067,412.929758 L804.066088,418.229339 L793.525121,419.809932 L777.143737,421.521892 L749.794281,424.116851 L723.048353,426.595309 L699.620557,427.909771 L680.573889,429.23663 L681.783861,427.869893 L681.039185,420.344265 L684.108707,416.796257 L684.624731,412.540553 L688.0403,409.867957 L690.08559,405.755045 L690.158392,403.480695 L691.322802,397.179497 L692.340723,393.396767 L692.633569,391.404428 L722.669989,389.254476 L722.244826,385.172089 L725.103621,384.879491 L725.896112,386.020195 L739.300025,384.009109 L762.686939,381.942485 L774.697039,381.325572 L780.685709,380.305384 L799.081564,379.142359 L813.086887,376.42587 L813.878494,376.33394 L844.054251,372.829824 L853.485025,370.891832 L853.477343,373.208485 L854.154603,376.364158 L850.451661,377.984451 L848.015646,382.610215 L844.528774,382.653666 L837.903551,388.359876 L835.869211,386.338202 L830.214932,391.402091 L830.580581,393.181188 Z M673.886194,433.976291 L674.04743,438.06503 L671.735961,444.77846 L669.556015,446.251638 L665.705834,450.231551 L663.681693,455.807497 L659.382066,465.268691 L659.201184,471.789747 L662.051414,478.428141 L661.410136,482.687374 L643.47631,482.711637 L619.586706,484.49228 L599.267769,484.98506 L600.216021,470.217184 L599.36097,470.217184 L594.236004,470.22111 L590.482159,470.597433 L589.721191,469.512664 L589.959071,447.019154 L589.981808,421.761161 L585.494986,395.205997 L610.034478,395.029547 L633.198214,394.297633 L655.242926,393.28137 L678.723791,393.471848 L680.151246,395.72392 L676.119388,401.170749 L674.382618,405.182732 L688.529707,404.252136 L688.494475,405.354462 L686.76552,408.829773 L683.111894,411.688524 L682.575516,416.118693 L679.37606,419.816949 L680.119148,427.331636 L678.292048,429.396231 L677.965781,429.418993 L677.91205,429.825666 L676.777133,431.108103 L677.75161,431.040215 L677.65651,431.759821 L673.886194,433.976291 Z M182.419441,344.865222 L182.267278,345.650423 L182.109354,346.437389 L182.114585,346.438315 L178.366457,365.778712 L177.434629,366.359232 L175.597639,369.434752 L173.737538,368.312045 L170.005214,365.59291 L164.9942,364.562134 L162.387855,368.130919 L163.563192,372.180045 L162.448561,377.516989 L161.853839,382.534339 L161.837393,387.6299 L160.196694,390.964845 L133.242567,352.362263 L104.870521,310.394431 L76.5740279,267.151308 L96.6008022,193.227537 L125.483784,200.46264 L151.679889,207.025073 L151.683001,207.025559 L152.397921,207.204612 L152.421696,207.134208 L152.427678,207.117357 L207.611975,219.340342 L182.514032,344.420657 L182.424628,344.866148 L182.419441,344.865222 Z M276.576232,164.472001 L276.831374,164.027215 L278.833197,151.591828 L314.082617,156.91351 L342.601473,161.088622 L375.720704,164.849075 L405.634299,168.05755 L401.465665,220.223871 L398.105547,259.320954 L397.095927,271.067437 L378.296851,269.303999 L339.156147,264.985698 L319.627295,262.495418 L300.116147,259.800192 L262.140867,253.21888 L266.124999,229.899849 L266.127692,229.900379 L266.274314,229.024879 L266.394689,228.320359 L266.392393,228.319963 L277.014198,164.904659 L276.576232,164.472001 Z M410.259533,144.450773 L444.2694,146.989577 L481.628348,148.967404 L511.303356,150.087374 L545.120024,149.252546 L544.891593,151.781954 L540.846445,154.621957 L539.669541,158.704388 L541.668605,163.236632 L544.742013,165.210532 L546.822533,189.709262 L546.457458,213.240958 L543.937072,213.240958 L543.85641,220.632793 L546.231366,224.038847 L545.827306,226.481001 L544.820335,230.597045 L543.085111,235.303005 L546.302624,238.327266 L546.286156,239.463911 L544.161,239.21525 L542.866657,238.227131 L541.966926,235.950399 L536.495119,233.634628 L531.442206,230.127247 L524.390185,230.28217 L519.569853,230.088516 L518.004562,231.170947 L511.508521,229.088663 L506.565232,225.605544 L468.082625,224.088517 L439.501121,222.397819 L403.126849,219.5688 L403.983755,208.843299 L407.293276,167.430225 L409.060774,153.736971 L410.259533,144.450773 Z M645.598022,212.517294 L645.821465,213.433818 L648.266885,217.06167 L646.845699,218.901026 L647.220002,224.654568 L648.169004,227.14679 L649.752309,231.570341 L656.217048,233.730836 L657.560397,236.203692 L657.447948,236.210926 L658.170991,237.327721 L658.403263,237.755348 L658.445868,237.752613 L659.544141,239.44878 L661.822012,240.598086 L662.897106,243.310957 L666.203846,245.286048 L668.007193,247.068676 L667.457482,253.561543 L664.33317,259.464936 L663.282358,261.182631 L659.220742,262.822467 L652.22435,264.573025 L650.39363,270.089508 L653.173397,272.153794 L654.076218,275.555526 L651.890003,279.912909 L650.80078,283.821228 L645.858287,288.004985 L645.736123,291.60262 L644.196704,290.495619 L640.005111,286.259898 L618.078588,287.722931 L595.34165,288.568257 L577.621598,288.911319 L560.470329,289.021645 L559.362829,285.065992 L559.903886,280.497354 L559.459915,275.943185 L557.412287,268.326024 L555.984036,264.886356 L554.729605,264.132518 L554.602763,258.573423 L553.322503,253.942543 L549.885786,249.143903 L549.93903,247.142213 L548.684599,242.708912 L547.879083,240.241615 L547.91564,237.64423 L544.95658,234.862543 L546.340989,231.108353 L547.397275,226.802184 L547.919569,223.657849 L545.466335,220.137544 L545.523464,214.843256 L567.98482,214.865975 L593.738787,214.145795 L621.389258,213.151413 L645.598022,212.517294 Z M692.754938,376.61767 L695.146318,375.704234 L698.446612,378.802648 L698.038844,381.155033 L698.688024,384.847421 L695.963798,386.926925 L691.658166,389.867769 L691.230398,389.898383 L691.188544,390.188511 L689.03085,391.66222 L690.996403,391.521545 L690.779362,393.027059 L689.759852,396.825494 L688.683874,402.636074 L676.882073,403.412233 L677.465426,402.046247 L682.094721,395.79666 L679.610185,391.876607 L655.212415,391.679821 L633.136356,392.696524 L610.003967,393.427644 L585.352512,393.604403 L585.398693,381.701497 L585.284389,381.701497 L585.018121,354.793478 L584.808276,326.51709 L579.266756,324.051072 L576.843279,318.903062 L575.498782,316.776973 L578.168173,312.114861 L577.38981,307.393242 L574.362628,307.486761 L569.981146,304.347719 L567.439038,299.013685 L564.235653,295.54777 L561.014255,291.614439 L561.005071,291.565959 L560.827897,290.621644 L577.642744,290.513613 L595.387079,290.170154 L618.161589,289.322842 L639.380256,287.907539 L643.103551,291.669978 L645.592856,293.473339 L644.253832,299.681063 L646.506625,307.660034 L650.175924,312.92459 L654.318157,317.218628 L659.329613,320.583613 L661.006868,321.520871 L662.829773,325.98977 L663.461646,330.660132 L666.602426,331.918175 L670.149562,330.102683 L673.544778,333.334669 L672.787606,337.668188 L671.176885,341.469358 L670.016449,346.624382 L673.406985,350.630497 L678.039415,354.304094 L680.336799,354.24816 L686.002866,359.470501 L687.902505,360.021289 L689.696404,365.596837 L689.207797,369.5951 L692.754938,376.61767 Z M470.568354,380.148122 L449.804299,379.120081 L431.051006,378.002052 L433.547727,340.836786 L435.957914,301.778831 L470.027693,303.712986 L495.962939,304.753907 L541.870633,305.679474 L569.087993,305.679474 L573.869296,309.104674 L576.035158,309.037799 L576.492463,311.813618 L573.625765,316.820028 L575.413439,319.63105 L578.070293,325.272325 L583.212477,327.560747 L583.414462,354.807154 L583.680598,381.710894 L566.237059,381.918619 L528.803365,381.793428 L491.354396,380.936323 L470.568354,380.148122 Z M398.693801,271.204361 L399.651148,260.064601 L402.994533,221.165981 L439.391498,223.996192 L468.003553,225.688477 L506.028061,227.188256 L510.684773,230.468767 L518.267652,232.937519 L520.041242,231.711149 L524.375307,231.883673 L530.955144,231.740484 L535.648633,234.99788 L540.721943,237.16389 L541.538629,239.230116 L543.537693,240.755745 L546.472514,241.099205 L547.150612,243.175225 L548.329105,247.343277 L548.268002,249.639154 L551.855094,254.64671 L553.001446,258.711496 L553.146302,265.051028 L554.706119,265.988682 L555.877549,268.794675 L557.870343,276.164982 L558.290871,280.480901 L557.732551,285.192728 L559.081684,290.008307 L559.513955,292.312697 L563.03054,296.603206 L566.044434,299.81521 L568.075639,304.077179 L541.887059,304.077179 L496.011506,303.152405 L470.105221,302.112631 L436.061667,300.182756 L437.834065,274.243093 L398.693801,271.204361 Z M184.003519,345.149615 L188.703123,321.728068 L209.184597,219.655968 L259.773131,228.757115 L264.546486,229.61594 L260.290567,254.524651 L299.088316,261.248314 L284.626461,362.360175 L255.621714,357.74694 L216.232401,350.936419 L184.003519,345.149615 Z M286.212989,362.59397 L300.673321,261.494858 L319.416259,264.084039 L338.966656,266.577054 L378.133984,270.898089 L396.958843,272.66391 L396.957739,272.676791 L397.759854,272.739078 L398.555524,272.813717 L398.556584,272.800923 L436.125465,275.71786 L434.451741,300.057344 L431.947603,340.733916 L429.450749,377.893669 L425.174874,377.568118 L410.304522,376.435751 L385.495274,374.322588 L350.314375,370.792931 L317.681057,366.863086 L286.212989,362.59397 Z M410.135384,389.315527 L410.570658,383.505123 L410.976175,378.093982 L415.502644,378.438588 L429.343331,379.49239 L429.342448,379.505403 L430.133217,379.552515 L430.942573,379.61414 L430.943456,379.600906 L449.716969,380.720039 L470.498287,381.749227 L491.305434,382.537869 L528.783012,383.395327 L566.244122,383.520915 L583.788722,383.312351 L583.755345,391.926277 L583.74881,393.615916 L583.60007,393.616975 L583.745455,394.475447 L583.742585,395.218478 L583.87115,395.217551 L588.378149,421.827635 L588.355412,447.009755 L588.129144,468.441832 L579.816467,464.068568 L573.411993,461.241048 L568.335592,463.092932 L560.8279,462.857459 L556.101475,462.905145 L552.283435,465.077021 L549.004863,466.044804 L545.866466,464.770351 L538.863806,466.082387 L535.337023,461.341975 L531.589402,465.39935 L526.287483,463.818183 L520.041242,459.515146 L513.802021,461.861487 L511.188257,455.741019 L500.661903,456.111079 L494.407848,454.558056 L487.54417,452.559895 L484.393986,446.802426 L478.403417,448.391445 L475.253675,446.308764 L470.653343,443.54856 L472.874393,393.091244 L451.154227,392.011944 L430.23079,390.755092 L410.135384,389.315527 Z M700.021086,378.082027 L699.064622,374.72904 L699.893845,372.939751 L704.826979,373.79293 L710.413179,375.932295 L713.657226,372.924091 L712.417673,367.47488 L716.417478,365.18959 L720.654457,362.49904 L718.43928,359.925829 L720.32245,356.376983 L720.147794,355.297331 L722.707517,355.707268 L722.662926,352.956063 L727.475443,354.297082 L731.525315,351.124956 L738.475482,354.584959 L740.037682,351.394086 L743.911307,348.853738 L748.85071,351.567359 L751.246814,347.777174 L753.543403,343.571185 L754.594259,345.536483 L759.964301,347.693493 L763.772938,339.122622 L766.558974,337.993254 L768.77892,333.135151 L771.568047,330.784928 L771.434184,326.29256 L775.777651,326.618021 L778.730486,323.901622 L782.371617,323.409901 L783.243931,320.621553 L781.03414,315.71766 L781.525087,315.047151 L787.866957,314.806959 L791.467293,316.69131 L797.643071,321.855731 L802.245787,323.128243 L805.843034,324.888991 L810.629678,323.492832 L814.45562,324.495066 L818.77092,322.37564 L821.876425,321.552546 L823.816019,324.615141 L827.837723,326.473995 L828.451584,328.436646 L829.040367,333.935527 L832.138101,337.675645 L833.735444,341.484579 L837.319445,344.453302 L840.047468,347.475181 L842.724454,347.384795 L837.40748,354.127294 L836.87618,354.799082 L830.707467,358.893114 L830.707202,358.896334 L830.694928,358.904451 L830.482744,361.256615 L829.915064,362.219943 L828.872862,363.978089 L823.6539,367.851205 L822.459734,370.072355 L822.190773,370.566856 L818.411453,372.620952 L812.736511,374.861821 L798.928008,377.546327 L780.541602,378.708956 L774.56706,379.727997 L762.574178,380.344468 L739.111326,382.418945 L726.644628,384.288033 L725.881982,383.188795 L720.482978,383.741921 L720.903462,387.77424 L694.831527,389.640594 L696.902688,388.22529 L700.43574,385.529623 L699.666031,381.153449 L699.846074,380.116409 L700.021086,378.082027 Z M908.833029,278.48137 L905.841078,280.818492 L904.152079,282.963371 L898.102393,283.067036 L895.865229,286.395629 L892.168558,288.12938 L889.239211,291.798653 L887.727164,293.442018 L885.926024,282.857368 L903.430934,279.582769 L908.833029,278.48137 Z M853.964051,229.357529 L859.534621,261.997829 L856.927393,263.823113 L858.512199,267.385237 L858.600675,273.210374 L857.720591,280.116354 L856.722184,286.039244 L856.830264,288.551844 L852.629311,294.955913 L850.71709,296.438533 L848.42677,297.470059 L845.693184,297.269391 L841.540001,302.941545 L841.458501,307.882227 L841.260445,310.134255 L840.881462,310.435102 L840.344246,308.270283 L836.337465,307.976097 L834.122288,314.719743 L834.66489,320.374298 L832.852978,323.814407 L828.562754,325.043512 L824.918533,323.359431 L822.603047,319.702245 L818.283066,320.846875 L814.284938,322.79338 L810.606192,321.830317 L805.990231,323.177158 L802.884726,321.656602 L798.405806,320.404426 L792.430468,315.407456 L788.233401,313.189835 L781.817183,313.432674 L776.870009,271.261879 L774.15011,248.73427 L783.225124,247.409 L792.039741,246.249902 L799.076,245.050528 L811.700137,248.662367 L821.798105,248.544984 L835.502767,242.84623 L845.762852,233.879889 L853.964051,229.357529 Z M725.278278,312.7372 L723.595548,320.451365 L725.610285,322.364257 L726.985289,326.379769 L726.98891,326.452687 L727.134869,329.422424 L725.665031,331.052864 L724.571967,335.537821 L720.932426,341.441964 L718.60758,348.812271 L718.416057,353.39701 L718.210584,353.364102 L718.377029,354.393642 L718.35151,355.009408 L718.47981,355.029964 L718.652965,356.101587 L716.509841,360.141758 L718.230186,362.140317 L715.589756,363.81809 L710.590133,366.672959 L711.8892,372.378022 L710.054506,374.078867 L705.328082,372.268845 L698.955837,371.151255 L697.3592,374.59604 L697.74348,375.943544 L695.512762,373.849261 L693.534846,374.604642 L690.858434,369.307223 L691.331413,365.441914 L689.167891,358.720192 L686.812493,358.037198 L680.947575,352.630203 L678.578137,352.688123 L674.579171,349.534391 L671.754769,346.196403 L672.681873,342.027159 L674.300409,338.208829 L675.272148,332.765882 L670.431464,328.15772 L666.520974,330.15941 L664.925926,329.520221 L664.405222,325.674101 L662.280066,320.396621 L660.166654,319.218377 L655.411312,316.043119 L651.454641,311.956013 L647.977174,306.96566 L645.906057,299.629406 L647.013115,294.493835 L647.237971,294.656257 L647.286314,293.226309 L647.381281,292.785626 L647.303092,292.729383 L647.436865,288.76857 L652.216534,284.723326 L653.358957,280.560346 L655.781683,275.731533 L654.579703,271.201625 L652.280729,269.49412 L653.469377,265.913204 L659.664713,264.363313 L664.373919,262.46961 L665.726187,260.257856 L669.028247,254.021989 L669.668773,246.456837 L667.262515,244.078823 L664.187519,242.214852 L663.088937,239.441724 L660.654511,238.21381 L660.559324,238.067136 L660.279457,237.634922 L678.516283,236.464442 L698.543123,234.990469 L712.610344,234.000365 L713.295463,240.099705 L719.754772,253.200042 L725.278278,312.7372 Z M533.752923,70.7825015 L533.911113,72.6660594 L535.478744,76.5571739 L535.341703,79.3846499 L534.694907,82.7762135 L534.858571,88.034528 L535.105988,92.9489856 L537.142667,97.8943221 L539.204423,103.232038 L540.020314,108.429719 L540.336692,111.499726 L540.374263,115.091979 L541.037483,122.783447 L541.634169,124.324714 L541.800967,130.143608 L542.645069,135.570498 L544.152391,139.913015 L545.231415,143.781853 L545.203247,147.647868 L511.314307,148.485829 L481.700755,147.366651 L444.371608,145.390811 L410.40907,142.85514 L412.259393,111.901479 L416.219596,64.6319046 L475.432174,68.851613 L533.752923,70.7825015 Z M410.660017,111.786852 L408.762453,143.521633 L408.461527,145.853417 L405.800965,166.463679 L375.896863,163.256572 L342.808228,159.500044 L314.31871,155.32886 L277.502034,149.770515 L275.332971,163.243824 L274.518272,162.438992 L273.305364,158.414128 L270.546347,156.87478 L266.85983,161.773996 L263.033909,161.85459 L252.363517,158.199742 L251.41606,160.629411 L245.906239,158.700859 L242.455018,161.194669 L240.748779,154.97327 L239.076999,150.482447 L235.491099,149.136003 L234.922625,147.545043 L235.07375,140.523664 L232.469766,136.667399 L232.013256,128.384823 L230.409996,123.932355 L227.519811,122.309723 L224.631988,125.955176 L221.174123,127.87667 L219.153116,125.479489 L220.184745,119.649279 L222.701819,118.379878 L222.558134,111.176999 L225.555184,105.018195 L229.208434,98.8175295 L223.15833,97.2836961 L219.637021,92.9223866 L216.455557,84.0307508 L214.320225,79.291552 L210.811454,75.9805582 L208.66398,71.5636891 L209.68583,66.9817513 L206.635137,59.1439836 L211.125051,32.8993935 L261.159725,43.2168984 L312.338808,52.0212794 L363.78098,59.1447561 L414.622206,64.4910747 L410.660017,111.786852 Z M204.979803,59.3114126 L208.014844,67.1084861 L206.977321,71.7608498 L209.496736,76.9444379 L212.988287,80.2389983 L214.96936,84.6292672 L218.218153,93.7172692 L222.246082,98.7052623 L226.742265,99.8455687 L224.142983,104.261247 L220.947435,110.822973 L220.947435,110.82337 L221.078582,117.40349 L218.745546,118.580565 L217.443741,125.938742 L220.799047,129.918677 L225.690658,127.199917 L227.927778,124.376743 L229.109385,125.040194 L230.418606,128.592944 L230.892731,137.197055 L233.459121,140.997783 L233.312698,147.805569 L234.231193,150.374501 L237.829235,151.725622 L239.223819,155.464196 L241.519681,163.848075 L246.166989,160.490147 L252.347867,162.653377 L253.299253,160.214356 L262.78336,163.462356 L267.673404,163.359838 L270.987186,158.955916 L271.956982,159.49691 L273.1002,163.289434 L274.569377,164.747571 L274.567214,164.75132 L275.027057,165.20184 L275.294164,165.466955 L264.813748,228.035918 L208.713937,217.943211 L187.154631,213.168038 L152.869312,205.573772 L163.637982,161.055402 L167.010108,154.071167 L166.209472,149.872985 L163.366262,147.496515 L164.211953,144.09677 L167.965424,139.151015 L173.081758,135.01812 L177.618647,127.314542 L181.521676,121.374405 L184.263473,118.281305 L184.184776,113.586705 L181.534987,110.686466 L178.673013,105.181717 L179.849521,100.82312 L179.136963,96.5412137 L186.971607,61.0439494 L194.419808,29.111567 L209.556009,32.5597493 L204.979803,59.3114126 Z M56.1974439,65.2823414 L59.1926402,65.921641 L64.2173751,67.6279765 L67.5957697,71.0688354 L72.0978242,74.005467 L73.7374968,79.2985851 L72.9434935,83.5327621 L73.2167817,87.9590267 L77.3648971,90.3456428 L82.0356928,91.6733178 L89.696111,91.0153588 L93.7017214,91.3513858 L99.4523245,94.1201918 L101.98622,96.3381878 L106.310913,96.5013162 L110.786488,95.6090755 L118.632336,98.1274775 L126.123229,97.0845707 L129.908024,96.0201598 L134.063192,98.2874733 L141.198193,97.2778275 L177.27432,105.967604 L180.160378,111.518119 L182.591316,114.219632 L182.649638,117.685149 L180.282915,120.354967 L176.257348,126.468401 L171.847302,133.954922 L166.881297,137.966111 L162.735136,143.39106 L161.567635,148.082551 L164.741263,150.735165 L165.335985,153.851312 L162.156485,160.436153 L162.156088,160.437785 L162.119665,160.513217 L151.288367,205.274867 L96.2495111,191.48761 L18.4846825,168.354028 L17.1159359,153.372911 L31.0836929,128.848376 L41.3426084,101.202973 L56.1974439,65.2823414 Z M146.562762,452.523899 L149.394979,453.145885 L153.484784,447.656797 L150.231266,443.096364 L150.262988,439.343322 L150.104799,434.990217 L155.35387,430.124658 L159.408819,418.932095 L167.336244,414.78398 L163.997782,408.431127 L162.298209,403.202964 L161.501855,398.489196 L161.073534,394.863329 L161.115101,392.730801 L163.440256,388.003887 L163.452,382.676339 L164.029878,377.775181 L165.214619,372.117099 L164.147339,368.439974 L165.681703,366.339691 L169.341598,367.092338 L172.849596,369.644817 L176.147726,371.639449 L178.612329,367.514009 L179.808019,366.769215 L183.693431,346.721829 L215.954013,352.514455 L255.359022,359.327711 L284.398405,363.946593 L263.591303,508.002538 L220.627943,501.450163 L173.909038,474.454493 L144.319372,455.865419 L146.562762,452.523899 Z M890.519205,482.988969 L886.943415,482.362704 L885.304482,481.897186 L884.589606,477.328945 L881.419819,472.528319 L877.276086,470.558301 L877.658159,468.837077 L875.756976,465.96893 L873.17765,460.154336 L865.384926,456.036748 L861.917657,450.327803 L856.149824,446.925278 L854.182062,443.954613 L845.760467,438.966995 L842.656551,434.944072 L837.328805,427.1423 L833.21006,426.061854 L827.63013,423.018404 L829.950296,418.439974 L831.817042,416.16408 L833.695532,415.165771 L844.316588,409.160302 L863.607449,406.376233 L872.962286,405.982707 L873.701532,409.050771 L876.01384,406.481883 L879.240668,409.513555 L879.765346,413.036552 L903.741837,409.106707 L931.284229,428.305943 L926.489725,447.150604 L910.71867,466.290465 L890.519205,482.988969 Z M932.29747,427.058577 L904.125501,407.419937 L881.112096,411.192521 L880.744063,408.727253 L875.918301,404.19267 L874.547181,405.71552 L874.211995,404.326463 L863.499372,404.777071 L843.788822,407.617472 L832.924235,413.76141 L831.05122,414.755836 L820.410562,416.119529 L805.662108,418.009306 L805.482064,413.882675 L809.570256,411.769115 L810.725218,408.633779 L813.074347,405.420982 L817.052165,404.220814 L821.833335,402.357989 L826.596581,399.305584 L828.357544,396.730035 L832.361235,393.881429 L831.970508,391.981064 L835.811285,388.541353 L837.825227,390.542646 L845.133273,384.248903 L848.989768,384.200777 L851.609005,379.226878 L856.004128,377.303796 L855.080954,373.125157 L855.089608,370.609468 L858.638113,370.127539 L889.450688,365.952781 L930.491826,358.313343 L952.163074,353.615235 L973.382491,348.834946 L981.66934,372.523506 L972.821787,393.791837 L954.472996,407.844739 L938.972846,424.309313 L932.29747,427.058577 Z M951.82789,352.039141 L930.198143,356.731779 L889.207159,364.35988 L863.203392,367.892228 L855.094819,368.990539 L855.095084,368.925033 L854.161578,369.116965 L853.490587,369.207837 L853.49041,369.254993 L843.788821,371.249846 L818.966859,374.130653 L819.03326,374.104716 L823.368869,371.756037 L823.37302,371.74845 L823.382203,371.74351 L823.938933,370.707706 L824.895838,368.948104 L830.089634,365.082397 L831.312851,363.006201 L832.058189,361.749129 L832.233994,359.807343 L837.862843,356.072254 L837.869642,356.063652 L837.873792,356.060917 L840.062745,353.307506 L844.185993,348.125794 L845.354112,351.236031 L848.223945,353.331636 L852.209534,355.169008 L858.150435,351.056493 L860.829981,352.422523 L868.908531,348.640145 L868.909326,348.610899 L868.920275,348.605738 L868.965484,346.747149 L870.905254,347.161453 L873.198753,344.774087 L876.067085,344.650043 L879.427865,341.691157 L879.428218,341.665748 L879.450557,341.646162 L879.492058,338.754106 L878.65736,336.012341 L880.484106,331.486713 L883.683209,327.593878 L883.871552,327.365551 L884.19888,323.330101 L886.816528,318.20247 L887.583943,313.255171 L889.692631,314.290226 L889.763095,314.317091 L893.360341,315.692606 L893.365197,315.689827 L893.373674,315.693004 L896.404653,313.979147 L896.70549,313.809844 L896.743371,313.6296 L897.292772,311.027362 L899.875983,304.330652 L901.395799,305.058286 L904.067575,300.627323 L907.326545,296.528085 L909.41722,293.334079 L909.615365,287.203816 L920.884718,291.986046 L922.190672,286.514735 L924.431103,286.715226 L926.69096,287.733077 L925.734849,290.976004 L931.022684,291.755648 L935.104609,293.713534 L936.903277,295.275908 L937.072371,296.44749 L937.138154,298.198842 L934.32086,301.225838 L933.605896,305.257628 L933.066384,308.296887 L933.066825,308.297019 L933.066384,308.299622 L933.758655,308.493364 L937.034049,309.423123 L939.654082,307.876364 L941.191646,310.529375 L941.253809,310.636964 L941.254162,310.637185 L941.315707,310.743364 L941.483123,310.804196 L956.959874,322.090057 L963.441875,333.191483 L972.613489,347.356298 L951.82789,352.039141 Z M966.70632,298.25676 L958.245873,267.388414 L959.111653,265.449274 L960.247895,264.287837 L962.976535,264.495827 L961.254866,266.983108 L963.009648,272.1084 L963.010001,272.108974 L963.284438,272.910717 L963.432339,272.850548 L970.30127,284.909126 L978.027416,295.6588 L966.70632,298.25676 Z M971.940115,123.459424 L1003.20099,115.138581 L1003.01715,121.773799 L1005.35762,125.033929 L1005.48213,127.808603 L1002.50898,131.503726 L999.090986,133.842258 L999.157564,136.881342 L999.827054,141.054115 L999.283657,147.3925 L998.412932,149.892132 L997.697262,155.72512 L998.660348,161.84087 L998.509973,163.581679 L999.809041,170.259201 L999.171692,174.163991 L1000.6297,175.651286 L987.394881,178.711895 L982.87287,157.77882 L979.949792,158.303008 L979.809572,158.093738 L980.047628,154.1807 L976.701771,148.019956 L977.204462,142.337214 L975.146635,138.592376 L972.859405,131.390666 L972.759979,128.062492 L971.940115,123.459424 Z M991.239542,224.505909 L990.469833,222.968194 L994.194673,219.270291 L991.714066,217.126205 L988.108166,198.653721 L1001.83402,195.587995 L1018.67156,191.68047 L1022.31658,204.47061 L1022.1911,207.818833 L1014.67732,211.112137 L1003.99357,215.24931 L991.239542,224.505909 Z M1030.92996,163.554286 L1028.95831,163.68102 L1025.1676,166.760819 L1024.01811,169.584766 L1002.44947,175.21744 L1000.88497,173.621805 L1001.43782,170.23494 L1000.1278,163.495617 L1000.275,161.784539 L999.316501,155.694727 L999.956234,150.336521 L1000.83093,147.824361 L1001.4417,140.993108 L1000.75967,136.790603 L1000.71349,134.673912 L1003.51277,132.759034 L1007.11082,128.341393 L1006.93784,124.487067 L1004.63489,121.278571 L1004.83383,114.13123 L1004.81582,113.523339 L1004.80407,113.519457 L1004.85184,107.941526 L1009.25756,106.055411 L1024.14023,150.083051 L1024.15277,153.058392 L1028.78286,155.939067 L1030.87751,159.632249 L1030.87804,159.631985 L1030.8783,159.632249 L1031.82399,159.225973 L1031.94638,159.173436 L1030.92996,163.554286 Z M1010.65332,105.176227 L1016.54795,98.9207944 L1019.56815,85.4006822 L1019.16798,64.3416425 L1026.24274,42.5827805 L1033.53118,47.1991484 L1043.69423,39.3539487 L1052.8095,43.7864555 L1063.68266,77.7115523 L1079.69653,88.0392241 L1083.13325,97.7386466 L1068.84996,110.80107 L1053.34116,122.031989 L1037.09161,143.410204 L1032.43962,157.217664 L1031.56421,157.593414 L1029.97623,154.79448 L1025.75329,152.16648 L1025.74234,149.816258 L1010.65332,105.176227 Z" id="Shape"></path>
                </g>
            </g>
        </g>
    </g>
</svg>