<?xml version="1.0" encoding="UTF-8"?>
<svg width="143px" height="91px" viewBox="0 0 143 91" version="1.1" xmlns="http://www.w3.org/2000/svg" xmlns:xlink="http://www.w3.org/1999/xlink">
    <!-- Generator: Sketch 46.2 (44496) - http://www.bohemiancoding.com/sketch -->
    <title>avioncito</title>
    <desc>Created with Sketch.</desc>
    <defs>
        <polygon id="path-1" points="91.4042395 48.5584689 91.4042395 0.066183709 0.455136432 0.066183709 0.455136432 48.5584689 91.4042395 48.5584689"></polygon>
        <polygon id="path-3" points="0.311381422 69.0185941 124.813311 69.0185941 124.813311 0.400405684 0.311381422 0.400405684"></polygon>
        <polygon id="path-5" points="0.43371614 0.0219489056 5.10567301 0.0219489056 5.10567301 3.34186132 0.43371614 3.34186132 0.43371614 0.0219489056"></polygon>
    </defs>
    <g id="v2" stroke="none" stroke-width="1" fill="none" fill-rule="evenodd">
        <g id="01_HOME_Desktop_A-Copy-5" transform="translate(-1198.000000, -1862.000000)">
            <g id="Businesses" transform="translate(0.000000, 1763.000000)">
                <g id="avioncito" transform="translate(1198.000000, 99.000000)">
                    <g id="Page-1">
                        <polygon id="Fill-1" fill="#FFFFFF" points="141.310967 89.4231709 65.3253015 78.372823 53.4485539 44.0003283"></polygon>
                        <g id="Group-35" transform="translate(0.000000, 0.456254)">
                            <g id="Group-4" transform="translate(51.450128, 41.942627)">
                                <mask id="mask-2" fill="white">
                                    <use xlink:href="#path-1"></use>
                                </mask>
                                <g id="Clip-3"></g>
                                <path d="M15.030023,34.590551 L81.0323052,44.1892747 L4.71324333,4.73353816 L15.030023,34.590551 Z M89.8621762,48.5584689 C89.787059,48.5584689 89.7129708,48.553354 89.6378537,48.5431241 L13.6521886,37.4917532 C13.0800631,37.4088909 12.603635,37.0150394 12.4153275,36.4718313 L0.53857994,2.09933655 C0.333808431,1.50600182 0.513883879,0.848218667 0.991341067,0.43799931 C1.46982726,0.0277799539 2.14999795,-0.0499673556 2.71080435,0.239539073 L90.573217,45.6623816 C91.2410397,46.0081526 91.5610594,46.7825567 91.3295339,47.4955814 C91.1216754,48.1369967 90.5217669,48.5584689 89.8621762,48.5584689 L89.8621762,48.5584689 Z" id="Fill-2" fill="#3E6BFD" mask="url(#mask-2)"></path>
                            </g>
                            <polygon id="Fill-5" fill="#FFFFFF" points="19.8956616 60.5889444 141.310761 88.9667123 93.0659757 23.4175465 61.841922 39.2800436 64.5831848 48.9708366 53.4483481 43.5438698"></polygon>
                            <g id="Group-9" transform="translate(18.041056, 21.482809)">
                                <mask id="mask-4" fill="white">
                                    <use xlink:href="#path-3"></use>
                                </mask>
                                <g id="Clip-8"></g>
                                <path d="M6.30329199,38.5696787 L119.558401,65.0405916 L74.5560028,3.89642469 L45.6286829,18.5927122 L48.0283168,27.0722839 C48.1929572,27.6553887 47.9984757,28.2794131 47.5292506,28.6671267 C47.0600254,29.0538173 46.4086668,29.1315646 45.8622664,28.8655869 L35.4220065,23.7772301 L6.30329199,38.5696787 Z M123.270013,69.0190033 C123.152707,69.0190033 123.034371,69.0046814 122.916036,68.9780837 L1.50093704,40.5992927 C0.871187474,40.453005 0.400933303,39.9302567 0.322729109,39.2908873 C0.244524914,38.652541 0.575863739,38.0326085 1.15210517,37.7390101 L34.7058207,20.6939355 C35.1369727,20.4750154 35.651474,20.4688775 36.0867421,20.6837056 L44.1211941,24.5997148 L42.3142656,18.2131825 C42.1156681,17.5093648 42.4439199,16.7636044 43.0983656,16.4311324 L74.3234483,0.56863525 C75.0005319,0.225933294 75.824763,0.420301568 76.2713501,1.02898116 L124.516135,66.578147 C124.896866,67.0968034 124.914359,67.7955062 124.557295,68.3315534 C124.267117,68.7673475 123.780398,69.0190033 123.270013,69.0190033 L123.270013,69.0190033 Z" id="Fill-7" fill="#3E6BFD" mask="url(#mask-4)"></path>
                            </g>
                            <path d="M126.133179,80.5097487 C125.90474,80.5097487 125.673215,80.4596222 125.455066,80.3522081 L52.7694122,44.9209178 C52.2230119,44.6549402 51.9050501,44.110709 51.9050501,43.5439721 C51.9040211,43.3168681 51.9554712,43.0856721 52.0635165,42.8687981 C52.4391024,42.1066698 53.3631467,41.7915886 54.1276956,42.1660033 L99.0817305,64.0784687 L61.0271578,40.5844593 C60.30274,40.1374123 60.0815044,39.1911457 60.5301495,38.4709601 C60.9808527,37.7507745 61.93268,37.5308315 62.6560688,37.9768555 L126.932714,77.661742 C127.105586,77.7650641 127.251705,77.8980529 127.366953,78.0504786 L127.366953,78.0515016 C127.476027,78.1947203 127.557318,78.3553299 127.609797,78.5241234 C127.69006,78.7829401 127.701379,79.0632396 127.634494,79.3363782 C127.605681,79.4550451 127.561434,79.5726891 127.501752,79.686241 C127.379301,79.91846 127.205399,80.1077133 126.999599,80.2458171 L126.999599,80.2458171 C126.99857,80.2458171 126.99857,80.2468401 126.997541,80.2468401 C126.997541,80.2468401 126.996512,80.2478631 126.996512,80.2478631 L126.995483,80.2478631 C126.872003,80.3317483 126.736174,80.3951738 126.594172,80.4391624 C126.594172,80.4401854 126.593143,80.4401854 126.593143,80.4401854 C126.592114,80.4401854 126.592114,80.4401854 126.591085,80.4401854 C126.591085,80.4401854 126.590056,80.4412083 126.589027,80.4412083 L126.589027,80.4412083 C126.44188,80.4862199 126.287529,80.5097487 126.133179,80.5097487" id="Fill-10" fill="#3E6BFD"></path>
                            <path d="M70.548004,51.6462647 L70.548004,35.5628015 C70.548004,32.6390935 73.6525047,30.7445143 76.2733742,32.0692876 L108.443081,48.3102913 C111.585655,49.8969502 113.564427,53.1030038 113.564427,56.6067476 L113.564427,72.6155324 L70.548004,51.6462647 Z" id="Fill-12" fill="#E1E8FD"></path>
                            <path d="M72.0915078,50.6896659 L112.020923,70.153091 L112.020923,56.6066453 C112.020923,53.6655465 110.381722,51.009862 107.744389,49.6789509 L75.5746815,33.4369241 C74.8142486,33.0533025 73.9632635,33.0870612 73.2347296,33.5310393 C72.5082538,33.9739944 72.0915078,34.7146398 72.0915078,35.5626992 L72.0915078,50.6896659 Z M113.564427,74.1499165 C113.331872,74.1499165 113.100347,74.097744 112.885285,73.9923759 L69.8688623,53.0241312 C69.339955,52.7663374 69.0045001,52.2313132 69.0045001,51.6461624 L69.0045001,35.5626992 C69.0045001,33.6517522 69.9820525,31.9136907 71.6212536,30.9142285 C73.2583967,29.9147664 75.2577487,29.8349731 76.9730959,30.7004234 L109.141774,46.9424502 C112.821487,48.8002017 115.107931,52.5034288 115.107931,56.6066453 L115.107931,72.6154301 C115.107931,73.1443165 114.833187,73.6373981 114.381455,73.9176976 C114.131407,74.0711462 113.848432,74.1499165 113.564427,74.1499165 L113.564427,74.1499165 Z" id="Fill-14" fill="#3E6BFD"></path>
                            <polygon id="Fill-16" fill="#3E6BFD" points="70.548004 43.5931779 113.564427 64.5624457 113.564427 58.2025112 70.548004 37.170841"></polygon>
                            <path d="M20.6372638,43.8544498 C20.4860004,43.8544498 20.330621,43.8206911 20.1855316,43.7501047 L18.4465173,42.9020453 C17.936132,42.6534585 17.7262155,42.0406869 17.9762631,41.5332834 C18.2252818,41.0269029 18.8437123,40.8161668 19.3530686,41.0647536 L21.0910539,41.912813 C21.6014392,42.1613998 21.8123847,42.7741714 21.5613081,43.2815749 C21.3843196,43.6437137 21.0179947,43.8544498 20.6372638,43.8544498" id="Fill-18" fill="#FF6766"></path>
                            <path d="M53.2397693,59.7467159 C53.0885059,59.7467159 52.9331265,59.7129572 52.7880372,59.6423709 L25.4330331,46.3076843 C24.9216188,46.0590975 24.7117023,45.446326 24.9627789,44.9378995 C25.2117975,44.432542 25.8281701,44.2228288 26.3385553,44.4703926 L53.6935594,57.8050792 C54.2039447,58.053666 54.4148902,58.6664375 54.1638136,59.173841 C53.9868251,59.5359798 53.6205002,59.7467159 53.2397693,59.7467159" id="Fill-20" fill="#FF6766"></path>
                            <path d="M65.4009331,19.9015267 C65.2496698,19.9015267 65.0942904,19.867768 64.949201,19.7971817 L59.697172,17.2376584 C59.1867867,16.9880486 58.9768702,16.3752771 59.2269178,15.8678736 C59.4759364,15.3625161 60.0923089,15.1517799 60.6037232,15.4003667 L65.8547233,17.95989 C66.3661376,18.2084768 66.5760541,18.8212483 66.3249774,19.3286518 C66.147989,19.6907906 65.7816641,19.9015267 65.4009331,19.9015267" id="Fill-22" fill="#FF6766"></path>
                            <path d="M91.5791699,32.6619062 C91.4279065,32.6619062 91.2725271,32.6281475 91.1274378,32.5575611 L68.5068745,21.5317651 C67.9964892,21.2821553 67.7865727,20.6693837 68.0366203,20.1619802 C68.2856389,19.6555997 68.9030405,19.4458866 69.4134257,19.6944734 L92.03296,30.7202695 C92.5433453,30.9688562 92.7542908,31.5816278 92.5032142,32.0890313 C92.3262258,32.4511701 91.9599008,32.6619062 91.5791699,32.6619062" id="Fill-24" fill="#FF6766"></path>
                            <path d="M2.92020637,23.3321268 C2.76894299,23.3321268 2.6135636,23.2983681 2.46847424,23.2277817 L0.576138534,22.3050439 C0.0657532636,22.0564571 -0.145192261,21.4436855 0.105884363,20.936282 C0.354902983,20.4299015 0.971275517,20.2191654 1.48268979,20.4677522 L3.3739965,21.39049 C3.88438177,21.6390768 4.09532729,22.2518484 3.84425067,22.7592519 C3.66726223,23.1213906 3.30093731,23.3321268 2.92020637,23.3321268" id="Fill-26" fill="#FF6766"></path>
                            <path d="M39.1844175,41.0097167 C39.0331541,41.0097167 38.8777747,40.975958 38.7326854,40.9053716 L10.0924571,26.9435916 C9.58104284,26.6950048 9.37112632,26.0822332 9.62220294,25.5748298 C9.87122156,25.0694722 10.4875941,24.8577131 10.9979794,25.1073229 L39.6382076,39.0680799 C40.1485929,39.3166667 40.3595384,39.9294383 40.1084618,40.4368418 C39.9314734,40.7989805 39.5651485,41.0097167 39.1844175,41.0097167" id="Fill-28" fill="#FF6766"></path>
                            <g id="Group-32" transform="translate(6.174015, -0.000000)">
                                <mask id="mask-6" fill="white">
                                    <use xlink:href="#path-5"></use>
                                </mask>
                                <g id="Clip-31"></g>
                                <path d="M4.07577624,3.34186132 C3.92451287,3.34186132 3.76913348,3.30810262 3.62404412,3.23751625 L1.01037761,1.96286957 C0.498963342,1.71428277 0.289046819,1.10151122 0.539094442,0.594107724 C0.789142064,0.0877272214 1.4055146,-0.121985916 1.91589987,0.125577885 L4.52956637,1.40022456 C5.03995164,1.64881136 5.25089717,2.26158291 4.99982054,2.76898641 C4.8228321,3.13112519 4.45650719,3.34186132 4.07577624,3.34186132" id="Fill-30" fill="#FF6766" mask="url(#mask-6)"></path>
                            </g>
                            <path d="M56.0937079,25.6887909 C55.9424445,25.6887909 55.7870651,25.6550322 55.6419758,25.5844459 L15.0406217,5.79264065 C14.5292075,5.54405386 14.3192909,4.93025931 14.5693386,4.42285582 C14.8193862,3.91647532 15.4357587,3.70778517 15.946144,3.95534897 L56.547498,23.7471542 C57.0578833,23.995741 57.2688288,24.6085125 57.0177522,25.115916 C56.8407637,25.4780548 56.4744388,25.6887909 56.0937079,25.6887909" id="Fill-33" fill="#FF6766"></path>
                        </g>
                    </g>
                </g>
            </g>
        </g>
    </g>
</svg>