<?xml version="1.0" encoding="UTF-8"?>
<svg width="184px" height="43px" viewBox="0 0 184 43" version="1.1" xmlns="http://www.w3.org/2000/svg" xmlns:xlink="http://www.w3.org/1999/xlink">
    <!-- Generator: Sketch 46.2 (44496) - http://www.bohemiancoding.com/sketch -->
    <title>Group 13</title>
    <desc>Created with Sketch.</desc>
    <defs></defs>
    <g id="v5" stroke="none" stroke-width="1" fill="none" fill-rule="evenodd">
        <g id="SERVICES-v5" transform="translate(-303.000000, -2163.000000)" fill="#000000">
            <g id="CLIENTS" transform="translate(268.000000, 1667.000000)">
                <g id="logos" transform="translate(0.000000, 122.000000)">
                    <g id="Group-194" transform="translate(0.000000, 0.010000)">
                        <g id="Group-13" transform="translate(35.000000, 374.000000)">
                            <path d="M18.8551,11.7571 C20.9731,11.7571 22.6961,10.0341 22.6961,7.9151 C22.6961,5.7971 20.9731,4.0751 18.8551,4.0751 C16.7371,4.0751 15.0141,5.7971 15.0141,7.9151 C15.0141,10.0341 16.7371,11.7571 18.8551,11.7571 M18.8551,0.8891 C22.7301,0.8891 25.8821,4.0411 25.8821,7.9151 C25.8821,11.7911 22.7301,14.9421 18.8551,14.9421 C14.9811,14.9421 11.8281,11.7911 11.8281,7.9151 C11.8281,4.0411 14.9811,0.8891 18.8551,0.8891" id="Fill-155"></path>
                            <path d="M7.1967,17.6547 C9.3147,17.6547 11.0377,19.3777 11.0377,21.4957 C11.0377,23.6137 9.3147,25.3377 7.1967,25.3377 C5.0787,25.3377 3.3557,23.6137 3.3557,21.4957 C3.3557,19.3777 5.0787,17.6547 7.1967,17.6547 M7.1967,28.5217 C11.0717,28.5217 14.2237,25.3697 14.2237,21.4957 C14.2237,17.6207 11.0717,14.4687 7.1967,14.4687 C3.3227,14.4687 0.1707,17.6207 0.1707,21.4957 C0.1707,25.3697 3.3227,28.5217 7.1967,28.5217" id="Fill-156"></path>
                            <path d="M18.8551,31.2349 C20.9731,31.2349 22.6961,32.9579 22.6961,35.0769 C22.6961,37.1949 20.9731,38.9179 18.8551,38.9179 C16.7371,38.9179 15.0141,37.1949 15.0141,35.0769 C15.0141,32.9579 16.7371,31.2349 18.8551,31.2349 M18.8551,42.1029 C22.7301,42.1029 25.8821,38.9509 25.8821,35.0769 C25.8821,31.2009 22.7301,28.0489 18.8551,28.0489 C14.9811,28.0489 11.8281,31.2009 11.8281,35.0769 C11.8281,38.9509 14.9811,42.1029 18.8551,42.1029" id="Fill-157"></path>
                            <path d="M30.5131,17.6547 C32.6321,17.6547 34.3551,19.3777 34.3551,21.4957 C34.3551,23.6137 32.6321,25.3377 30.5131,25.3377 C28.3951,25.3377 26.6721,23.6137 26.6721,21.4957 C26.6721,19.3777 28.3951,17.6547 30.5131,17.6547 M30.5131,28.5217 C34.3881,28.5217 37.5411,25.3697 37.5411,21.4957 C37.5411,17.6207 34.3881,14.4687 30.5131,14.4687 C26.6391,14.4687 23.4871,17.6207 23.4871,21.4957 C23.4871,25.3697 26.6391,28.5217 30.5131,28.5217" id="Fill-158"></path>
                            <path d="M58.342,18.7721 C56.543,18.7721 55.079,20.2351 55.079,22.0341 C55.079,23.8341 56.543,25.2981 58.342,25.2981 C60.142,25.2981 61.607,23.8341 61.607,22.0341 C61.607,20.2351 60.142,18.7721 58.342,18.7721 M58.342,28.9151 C57.226,28.9151 56.112,28.6381 55.123,28.1121 L55.061,28.0781 L54.747,28.6031 L51.444,28.6031 L51.444,8.1481 L55.061,8.1481 L55.061,15.9921 L55.123,15.9581 C56.112,15.4331 57.226,15.1561 58.342,15.1561 C62.136,15.1561 65.223,18.2421 65.223,22.0341 C65.223,25.8291 62.136,28.9151 58.342,28.9151" id="Fill-159"></path>
                            <path d="M97.0017,18.6596 C95.8517,18.6596 94.7677,19.2776 94.1727,20.2706 L94.1337,20.3346 L99.8697,20.3346 L99.8307,20.2706 C99.2347,19.2776 98.1517,18.6596 97.0017,18.6596 M97.0017,28.9146 C93.1667,28.9146 90.0457,25.7936 90.0457,21.9606 C90.0457,18.1246 93.1667,15.0036 97.0017,15.0036 C100.8057,15.0036 103.9247,18.0996 103.9547,21.9046 L103.9547,21.9456 L103.9617,21.9456 L103.9617,22.8856 L102.2377,22.8856 L102.2377,22.8866 L93.8347,22.8866 L93.8517,22.9416 C94.2847,24.3276 95.5507,25.2586 97.0017,25.2586 C98.0147,25.2586 98.9537,24.8066 99.5857,24.0126 L102.4727,26.2556 C101.1447,27.9466 99.1527,28.9146 97.0017,28.9146" id="Fill-160"></path>
                            <polygon id="Fill-161" points="67.692 28.603 71.309 28.603 71.309 8.148 67.692 8.148"></polygon>
                            <path d="M180.9975,28.9066 C179.8265,28.9066 178.7815,28.6086 177.8895,28.0186 C176.6905,27.2266 175.2635,25.5496 175.2635,22.0716 L175.2635,18.8046 L171.9695,18.8046 L171.9695,15.6286 L175.2635,15.6286 L175.2635,11.0636 L178.8805,11.0636 L178.8805,15.6286 L183.6225,15.6286 L183.6225,18.8046 L178.8805,18.8046 L178.8805,22.0716 C178.8805,23.1046 179.0545,24.4526 179.8835,25.0016 C180.1735,25.1946 180.5615,25.2956 181.0035,25.2956 C181.4395,25.2956 181.9125,25.1986 182.3385,25.0236 L183.7535,28.3516 C182.8965,28.7116 181.9205,28.9066 180.9975,28.9066" id="Fill-162"></path>
                            <path d="M81.0575,28.9149 C77.2635,28.9149 74.1775,25.8289 74.1775,22.0349 L74.1775,15.4289 L77.7935,15.4289 L77.7935,22.0349 C77.7935,23.8339 79.2585,25.2989 81.0575,25.2989 C82.8565,25.2989 84.3215,23.8339 84.3215,22.0349 L84.3215,15.2659 L84.4305,15.2659 L84.4305,15.2389 L88.0465,15.2389 L88.0465,28.6029 L84.7505,28.6029 L84.4305,28.0279 L84.3675,28.0649 C83.3565,28.6199 82.2125,28.9149 81.0575,28.9149" id="Fill-163"></path>
                            <path d="M118.4564,28.6032 L118.4564,15.2392 L121.7194,15.2392 L122.0734,15.8122 L122.1364,15.7802 C123.1464,15.2222 124.2924,14.9272 125.4454,14.9272 C127.3644,14.9272 129.1474,15.7062 130.4694,17.1212 L130.4994,17.1542 L130.5304,17.1212 C131.8514,15.7062 133.6354,14.9272 135.5534,14.9272 C139.3474,14.9272 142.4334,18.0152 142.4334,21.8062 L142.4334,28.4152 L138.8164,28.4152 L138.8164,21.8062 C138.8164,20.0082 137.3534,18.5452 135.5534,18.5452 C133.8814,18.5452 132.4854,19.7982 132.3084,21.4602 C132.3104,21.5072 132.3134,21.5442 132.3164,21.5842 C132.3204,21.6572 132.3254,21.7332 132.3254,21.8062 L132.3254,28.4152 L132.2894,28.4152 L132.2894,28.5772 L128.6734,28.5772 L128.6734,21.8062 C128.6734,21.7332 128.6784,21.6572 128.6824,21.5842 C128.6854,21.5442 128.6884,21.5072 128.6914,21.4672 C128.5134,19.7982 127.1194,18.5452 125.4454,18.5452 C123.6464,18.5452 122.1824,20.0082 122.1824,21.8062 L122.1824,28.5772 L122.0734,28.5772 L122.0734,28.6032 L118.4564,28.6032 Z" id="Fill-164"></path>
                            <path d="M160.4101,28.6032 L160.4101,15.2392 L163.7311,15.2392 L164.0261,15.8122 L164.0881,15.7802 C165.1001,15.2222 166.2441,14.9272 167.3981,14.9272 C168.4551,14.9272 169.4681,15.1592 170.4101,15.6202 L168.8061,18.8622 C168.3651,18.6512 167.8931,18.5452 167.3981,18.5452 C165.5991,18.5452 164.1351,20.0082 164.1351,21.8062 L164.1351,28.5772 L164.0261,28.5772 L164.0261,28.6032 L160.4101,28.6032 Z" id="Fill-165"></path>
                            <path d="M151.1852,18.7447 C149.3872,18.7447 147.9222,20.2077 147.9222,22.0077 C147.9222,23.8087 149.3872,25.2717 151.1852,25.2717 C152.9842,25.2717 154.4502,23.8087 154.4502,22.0077 C154.4502,20.2077 152.9842,18.7447 151.1852,18.7447 M151.1852,28.8897 C147.3922,28.8897 144.3062,25.8017 144.3062,22.0077 C144.3062,18.2147 147.3922,15.1267 151.1852,15.1267 C152.3032,15.1267 153.4172,15.4057 154.4052,15.9307 L154.4682,15.9647 L154.4682,15.2387 L158.0842,15.2387 L158.0842,28.5777 L154.8142,28.5777 L154.4682,28.0507 L154.4052,28.0847 C153.4172,28.6107 152.3042,28.8897 151.1852,28.8897" id="Fill-166"></path>
                            <path d="M110.7106,28.9165 C107.8946,28.9165 106.4606,27.7935 105.3386,26.5675 L108.4076,24.1415 C109.0206,25.0495 109.8856,25.5925 110.7296,25.5925 C111.4456,25.5925 112.0746,25.1385 112.0746,24.6205 C112.0746,24.0165 111.2776,23.8065 110.2696,23.5375 L110.2176,23.5235 C110.0626,23.4825 109.9026,23.4385 109.7376,23.3955 C107.7286,22.8435 105.8716,21.9805 105.8716,19.4125 C105.8716,16.8715 107.8536,15.0965 110.6916,15.0965 C112.7266,15.0965 114.3836,15.8345 115.6176,17.2895 L112.7756,19.4935 C112.2736,18.6945 111.4676,18.1795 110.7106,18.1795 C110.0176,18.1795 109.4966,18.5715 109.4966,19.0935 C109.4966,19.7315 110.3526,19.9705 111.4366,20.2715 L111.8696,20.3945 C113.7946,20.9515 115.8496,21.7665 115.8496,24.4155 C115.8496,26.5845 114.2406,28.9165 110.7106,28.9165" id="Fill-167"></path>
                        </g>
                    </g>
                </g>
            </g>
        </g>
    </g>
</svg>