<?xml version="1.0" encoding="utf-8"?>
<!-- Generator: Adobe Illustrator 21.0.0, SVG Export Plug-In . SVG Version: 6.00 Build 0)  -->
<svg version="1.1" id="Layer_1" xmlns="http://www.w3.org/2000/svg" xmlns:xlink="http://www.w3.org/1999/xlink" x="0px" y="0px"
	 viewBox="0 0 115 69" style="enable-background:new 0 0 115 69;" xml:space="preserve" width="115px" height="69px" >
<style type="text/css">
	.st0{fill:#FFFFFF;}
</style>
<title>cartoon-network</title>
<path id="path4-9" class="st0" d="M56.8,3.5h53.6c0,17.8,0,35.7,0,53.5H56.8V3.5z"/>
<path id="path4" d="M3.4,3.5h53.5c0,17.8,0,35.7,0,53.5H3.4V3.5z"/>
<path id="path8" class="st0" d="M29.2,6.4C36,5.7,42.9,8,47.9,12.7c1.8,1.7,3.3,3.6,4.5,5.7c-4.4,2.5-8.9,5.1-13.3,7.6
	c-0.9-1.5-2.2-2.8-3.8-3.5c-3.3-1.6-7.3-0.9-9.9,1.8c-3.3,3.4-3.2,8.8,0.2,12.1c2.3,2.3,5.7,3,8.8,1.9c2-0.7,3.6-2.1,4.6-3.9
	c4.4,2.5,8.9,5.1,13.3,7.6C45.9,53.6,31.3,57.5,19.8,51S4.3,29.8,10.9,18.4C14.7,11.7,21.5,7.2,29.2,6.4z"/>
<path id="path10" d="M60.8,7.3H76c5.1,6.4,10.2,12.8,15.3,19.1c0-6.4,0-12.8,0-19.1h15.3c0,15.3,0,30.6,0,45.8h-0.4
	c-1.3,0-2.6,0-3.9,0c-2.3,0-4.7,0-7,0h-3.9C86.2,46.8,81.1,40.4,76,34.1c0,6.4,0,12.7,0,19.1h-2.7c-4.1,0-8.2,0-12.3,0h-0.2
	C60.7,37.9,60.8,22.6,60.8,7.3z"/>
<path id="path12" d="M6.6,61.3c0.8-0.6,1.9-0.8,2.9-0.5c0.8,0.3,1.5,0.8,2,1.6c-0.6,0.3-1.2,0.7-1.8,1c-0.3-0.5-0.8-0.7-1.4-0.7
	c-0.7,0.1-1.3,0.8-1.1,1.6c0.1,0.6,0.6,1.1,1.2,1.1c0.5,0,1-0.2,1.3-0.7l1.8,1c-0.6,1-1.6,1.6-2.7,1.7H8.4c-1.3-0.1-2.4-0.9-2.9-2
	c-0.3-0.6-0.4-1.3-0.3-2C5.4,62.6,5.9,61.8,6.6,61.3z"/>
<path id="path14" d="M36.6,60.7c-0.9,0-1.7,0.4-2.3,1c-1.2,1.2-1.3,3.2-0.2,4.5c0.6,0.7,1.4,1.1,2.3,1.3h0.7
	c0.9-0.1,1.7-0.6,2.3-1.3c1.2-1.5,0.9-3.6-0.5-4.8c-0.6-0.5-1.3-0.7-2.1-0.7L36.6,60.7z M36.7,62.9c0.7,0,1.3,0.5,1.3,1.2
	c0,0.7-0.5,1.3-1.2,1.3c-0.7,0-1.3-0.5-1.3-1.2c0-0.5,0.3-1,0.8-1.2C36.5,62.9,36.6,62.9,36.7,62.9z"/>
<path id="path16" d="M44.1,60.7c-0.2,0-0.4,0-0.6,0c-1.9,0.3-3.1,2.1-2.8,3.9c0.2,1,0.7,1.8,1.6,2.4c0.5,0.3,1,0.5,1.5,0.6h0.7
	c0.9-0.1,1.8-0.6,2.4-1.4c0.6-0.8,0.8-1.9,0.6-2.8c-0.2-0.9-0.8-1.7-1.6-2.2C45.3,60.9,44.7,60.7,44.1,60.7z M44.1,62.9
	c0.7,0,1.2,0.6,1.2,1.2c0,0.7-0.6,1.2-1.2,1.2s-1.2-0.6-1.2-1.2c0-0.1,0-0.2,0-0.3c0.1-0.5,0.5-0.8,0.9-0.9
	C43.9,62.9,44,62.9,44.1,62.9L44.1,62.9z"/>
<path id="path18" d="M91.4,60.7c-1.9,0-3.4,1.5-3.4,3.4c0,0.6,0.2,1.3,0.5,1.8c0.6,0.9,1.5,1.5,2.6,1.6h0.6c0.8-0.1,1.5-0.4,2.1-1
	c0.5-0.5,0.9-1.2,1-2c0.2-1.9-1.1-3.6-3-3.8c0,0,0,0,0,0L91.4,60.7z M91.3,62.9c0.7,0,1.3,0.5,1.3,1.2c0,0.7-0.5,1.3-1.2,1.3
	c-0.1,0-0.1,0-0.2,0c-0.7-0.1-1.2-0.7-1.1-1.4c0.1-0.4,0.4-0.8,0.8-1C91,62.9,91.2,62.9,91.3,62.9z"/>
<path id="path20" d="M17,60.8h-3.3c-0.7,2.2-1.4,4.4-2,6.5H14c0.1-0.4,0.2-0.7,0.3-1.1c0.7,0,1.4,0,2.1,0c0.1,0.3,0.2,0.7,0.3,1.1
	H19C18.3,65.2,17.6,63,17,60.8z M15.4,62.6c0.2,0.7,0.4,1.3,0.6,2h-1.2C14.9,64,15.1,63.3,15.4,62.6L15.4,62.6z"/>
<path id="path22" d="M19.7,60.9v6.5h2.2c0-0.6,0-1.3,0-1.9h0.7l1,1.9h2.4c-0.4-0.7-0.9-1.4-1.3-2.1c0.1-0.1,0.2-0.2,0.3-0.2
	c0.6-0.4,1-1.2,1-1.9c-0.1-1.2-1-2.2-2.2-2.2C22.4,60.8,21,60.9,19.7,60.9z M22.5,62.8h0.7c0.3,0,0.5,0.2,0.5,0.5c0,0,0,0,0,0.1
	c0,0.3-0.2,0.5-0.5,0.5h-1.4c0-0.4,0-0.7,0-1.1L22.5,62.8z"/>
<path id="path24" d="M26.5,62.8c0-0.6,0-1.3,0-1.9h6.5c0,0.6,0,1.3,0,1.9H31c0,1.5,0,3.1,0,4.6h-2.4v-4.6H26.5z"/>
<path id="path26" d="M48.2,60.9h2.2c0.7,0.9,1.5,1.8,2.2,2.7c0-0.9,0-1.8,0-2.7h2.2c0,2.2,0,4.4,0,6.5h-2.2
	c-0.8-0.9-1.5-1.8-2.2-2.7c0,0.9,0,1.8,0,2.7h-2.2C48.2,65.2,48.2,63,48.2,60.9z"/>
<path id="path28" d="M59.2,60.8c0.7,0,1.5,0,2.2,0c0.7,0.9,1.4,1.8,2.2,2.7c0-0.9,0-1.8,0-2.7h2.1v6.5h-2.2
	c-0.7-0.9-1.5-1.8-2.2-2.7c0,0.9,0,1.8,0,2.7h-2.1C59.2,65.2,59.2,63,59.2,60.8z"/>
<path id="path30" d="M66.6,60.8h5.7c0,0.5,0,0.9,0,1.4c0,0.2,0,0.3,0,0.5h-3.6c0,0.2,0,0.4,0,0.6h3c0,0.5,0,1.1,0,1.6h-3
	c0,0.2,0,0.4,0,0.7c1.2,0,2.4,0,3.5,0c0,0.3,0,0.5,0,0.8s0,0.6,0,1h-5.7C66.6,65.2,66.6,63,66.6,60.8z"/>
<path id="path32" d="M73.1,60.9h6.6c0,0.6,0,1.3,0,1.9h-2.1c0,1.5,0,3.1,0,4.6h-2.4c0-1.5,0-3.1,0-4.6c-0.7,0-1.4,0-2.1,0
	C73.1,62.1,73.1,61.5,73.1,60.9z"/>
<path id="path34" d="M80.2,60.9h2.2c0.2,1,0.3,1.9,0.6,2.9c0.4-0.9,0.7-1.8,1.1-2.6c0.4,0.9,0.7,1.8,1.1,2.6c0.2-1,0.3-1.9,0.6-2.9
	h2.2c-0.4,2.2-0.8,4.3-1.2,6.5h-1.8c-0.3-0.6-0.5-1.2-0.8-1.8c-0.3,0.6-0.5,1.2-0.8,1.8h-1.8C81,65.2,80.6,63,80.2,60.9z"/>
<path id="path36" d="M97.4,60.9h-2c0,2.2,0,4.4,0,6.5h2.2c0-0.6,0-1.3,0-1.9h0.7c0.3,0.6,0.6,1.3,1,1.9h2.4
	c-0.4-0.7-0.9-1.4-1.3-2.2c0.7-0.4,1.2-1,1.3-1.8c0-0.2,0-0.3,0-0.5c-0.1-0.5-0.3-0.9-0.6-1.3c-0.5-0.5-1.1-0.8-1.8-0.8L97.4,60.9z
	 M97.6,62.8H99c0.3,0,0.5,0.3,0.5,0.6c0,0.1,0,0.1,0,0.2c-0.1,0.2-0.3,0.3-0.5,0.4h-1.4C97.6,63.5,97.6,63.1,97.6,62.8z"/>
<path id="path38" d="M102.4,67.4c0-2.2,0-4.4,0-6.5c0.7,0,1.5,0,2.2,0c0,0.7,0,1.4,0,2.1c0.6-0.7,1.1-1.4,1.6-2.1h2.8
	c-0.8,1-1.7,2.1-2.5,3.1c0.8,1.2,1.7,2.3,2.5,3.4h-2.8l-1.6-2.4c0,0.8,0,1.6,0,2.4L102.4,67.4z"/>
</svg>
