<?xml version="1.0" encoding="UTF-8"?>
<svg width="134px" height="35px" viewBox="0 0 134 35" version="1.1" xmlns="http://www.w3.org/2000/svg" xmlns:xlink="http://www.w3.org/1999/xlink">
    <!-- Generator: Sketch 46.2 (44496) - http://www.bohemiancoding.com/sketch -->
    <title>Group 6</title>
    <desc>Created with Sketch.</desc>
    <defs></defs>
    <g id="v5" stroke="none" stroke-width="1" fill="none" fill-rule="evenodd">
        <g id="SERVICES-v5" transform="translate(-598.000000, -2706.000000)" fill="#EC1C24">
            <g id="CLIENTS" transform="translate(268.000000, 1667.000000)">
                <g id="logos" transform="translate(0.000000, 122.000000)">
                    <g id="Group-194" transform="translate(0.000000, 0.010000)">
                        <g id="Group-6" transform="translate(330.000000, 917.000000)">
                            <path d="M124.6447,7.4894 L124.5057,7.1414 C124.2967,6.5854 124.0187,6.1684 123.6017,5.8904 L122.2807,5.6124 C121.8637,5.8214 121.4467,6.0994 121.2387,6.5854 C120.9607,7.1414 120.9607,7.6984 121.0997,8.3234 L121.7947,9.7144 L121.7947,9.9224 L121.2387,9.9224 C120.1957,9.3664 119.3617,8.4624 118.6667,7.3504 C117.9707,6.2384 117.5547,4.9874 117.2757,3.6664 C117.2067,3.5964 117.2067,3.4574 117.2067,3.4574 L114.7037,3.4574 C114.8427,5.8214 115.5377,8.1154 116.7197,10.1314 L119.9867,15.6224 C120.1957,16.5964 120.0567,17.7084 119.5697,19.0294 L114.1477,33.8364 L117.3457,33.8364 L123.7407,22.2264 L130.3457,33.9754 L133.4037,33.9754 L127.4947,18.3344 C127.0077,17.2214 126.8697,16.1094 127.0777,15.2054 L127.8427,13.3294 L129.8587,10.4784 C130.9007,8.8794 131.4577,7.0724 131.7357,4.9874 L129.3717,4.9874 C130.7627,4.2224 132.2917,3.8054 134.0297,3.5964 L131.8747,0.5374 C130.7627,2.6924 129.3717,4.2224 127.8427,5.2654 L124.6447,7.4894 Z M128.1897,5.7514 L128.5377,5.4734 L128.9547,5.5434 L128.9547,5.6124 C129.0937,5.8214 129.0937,5.9604 128.9547,6.0294 L126.7297,7.6284 C126.5217,7.6284 126.3827,7.6284 126.3127,7.4894 L126.2437,7.3504 C126.1737,7.2114 126.1737,7.1414 126.3127,7.0034 L128.1897,5.7514 Z M124.7837,8.1154 L125.5487,7.4894 L125.8267,8.0454 C126.1737,8.3934 126.4517,8.4624 126.7997,8.1844 L128.9547,6.7944 C128.1897,8.5324 126.9387,9.7144 125.2007,10.3394 L124.6447,10.4094 C124.3667,10.3394 124.2277,10.2704 124.2277,10.1314 L124.6447,9.3664 L124.7837,8.8104 L124.7837,8.1154 Z" id="Fill-178"></path>
                            <path d="M47.6902,12.7032 L41.5032,13.6072 L41.5032,17.9172 L43.4492,17.9172 C43.7972,15.9702 45.0482,14.9972 47.2732,14.9972 C49.5672,14.9972 50.6792,16.1102 50.7492,18.2642 L50.7492,20.6282 L44.9782,22.7132 C41.6422,23.2002 39.9742,25.4242 39.9742,29.2482 C39.9742,31.6812 40.7382,33.2102 42.2672,33.9752 L45.1182,34.3922 C47.9682,34.3922 49.9142,33.3502 50.9572,31.3342 L50.9572,33.6972 L58.8132,33.6972 L58.8132,31.8892 L56.1012,31.8892 L56.1012,17.7782 C56.1012,14.3022 53.3212,12.5642 47.6902,12.7032 L47.6902,12.7032 Z M67.6412,13.3292 L65.3472,13.3292 L59.1602,14.9282 L59.1602,16.2482 L62.2882,16.2482 L62.2882,31.8892 L59.7862,31.8892 L59.7862,33.8362 L70.8392,33.8362 L70.8392,31.8892 L67.8502,31.8892 L67.8502,19.0292 C68.8232,17.5002 70.1442,16.7352 71.7422,16.8042 C73.4112,16.8042 74.2452,17.2912 74.3152,18.1252 L75.8442,18.1252 L75.8442,13.1202 C72.9242,12.1472 70.1442,13.2592 67.6412,16.3882 L67.6412,13.3292 Z M76.6782,16.2482 L79.7372,16.2482 L79.7372,31.8892 L77.2342,31.8892 L77.2342,33.8362 L88.3572,33.8362 L88.3572,31.8892 L85.2292,31.8892 L85.2292,13.3292 L82.8652,13.3292 L76.6782,14.9282 L76.6782,16.2482 Z M88.5662,14.9282 L88.5662,16.2482 L91.6942,16.2482 L91.6942,31.8892 L89.1212,31.8892 L89.1212,33.8362 L100.2442,33.8362 L100.2442,31.8892 L97.2552,31.8892 L97.2552,19.0292 C99.3402,17.0132 101.2872,16.1102 102.9552,16.1792 C104.0682,16.2482 104.7632,16.5962 104.8322,17.3612 L104.8322,31.8892 L102.3302,31.8892 L102.3302,33.8362 L113.4522,33.8362 L113.4522,31.8892 L110.4632,31.8892 L110.4632,19.0292 C110.4632,15.0672 108.7252,13.0502 105.3192,13.1202 C102.8862,12.5642 100.1052,13.8152 96.9772,16.8742 L96.9772,13.3292 L94.6832,13.3292 L88.5662,14.9282 Z M24.8192,5.1952 C23.2902,4.5002 21.0652,4.0832 18.0062,3.8742 C13.4182,3.7352 9.5952,4.8482 6.3972,7.3502 C2.8522,10.1312 0.9752,14.0242 0.9752,18.8902 C0.9752,23.8262 2.7132,27.7882 6.0492,30.6382 C9.1782,33.2102 12.7932,34.4622 17.1032,34.4622 C22.3862,34.4622 26.0012,33.2102 28.0862,30.5692 L26.0702,28.4142 C25.4452,29.1092 24.3322,29.8042 22.9422,30.3602 C21.3432,30.9862 19.6752,31.3342 18.0062,31.3342 C15.6432,31.3342 13.4182,30.4292 11.4022,28.6922 C8.8302,26.3282 7.5092,23.2702 7.5092,19.3072 C7.5092,15.1362 8.4822,11.8692 10.4992,9.5752 C12.3062,7.4202 14.7392,6.4462 17.7982,6.4462 C21.6912,6.4462 23.9852,8.0452 24.8192,11.4522 L27.5302,11.4522 L27.5302,3.7352 L24.8192,3.7352 L24.8192,5.1952 Z M88.2872,6.3772 L84.2552,4.7782 L80.0842,10.4092 L81.9612,11.1742 L88.2872,6.3772 Z M35.1072,0.8162 L28.5732,2.4152 L28.5732,4.2222 L31.3542,4.2222 L31.3542,32.0292 L28.9902,32.0292 L28.9902,33.8362 L39.4872,33.8362 L39.4872,31.8892 L36.8452,31.8892 L36.8452,0.8162 L35.1072,0.8162 Z M46.0212,25.2162 C46.9952,23.8262 48.5942,23.0612 50.6792,22.7832 L50.6792,29.5262 C50.1232,30.8472 48.9412,31.4722 47.2732,31.4722 C46.1612,31.4722 45.4652,31.0562 45.1182,30.2212 L44.9782,27.9972 C44.9782,26.9542 45.3962,26.0502 46.0212,25.2162 L46.0212,25.2162 Z" id="Fill-179"></path>
                        </g>
                    </g>
                </g>
            </g>
        </g>
    </g>
</svg>