<?xml version="1.0" encoding="UTF-8"?>
<svg width="171px" height="37px" viewBox="0 0 171 37" version="1.1" xmlns="http://www.w3.org/2000/svg" xmlns:xlink="http://www.w3.org/1999/xlink">
    <!-- Generator: Sketch 46.2 (44496) - http://www.bohemiancoding.com/sketch -->
    <title>Group 16</title>
    <desc>Created with Sketch.</desc>
    <defs></defs>
    <g id="v5" stroke="none" stroke-width="1" fill="none" fill-rule="evenodd">
        <g id="SERVICES-v5" transform="translate(-581.000000, -2432.000000)">
            <g id="CLIENTS" transform="translate(268.000000, 1667.000000)">
                <g id="logos" transform="translate(0.000000, 122.000000)">
                    <g id="Group-194" transform="translate(0.000000, 0.010000)">
                        <g id="Group-16" transform="translate(313.000000, 643.000000)">
                            <path d="M154.1588,26.7991 C155.6238,27.3721 158.0278,27.8091 161.3048,27.8191 L161.3238,27.8191 L161.3508,27.8191 C164.6198,27.8091 167.0318,27.3731 168.4978,26.7991 L168.1708,25.9431 C168.1708,21.0181 163.2998,20.5721 162.8168,20.5721 C162.8168,20.0351 161.8708,20.1351 161.5608,20.1351 C161.5608,19.6071 161.8428,19.4341 161.8428,19.4341 L162.4528,19.0521 L162.3258,18.4971 L160.3328,18.4971 L160.2048,19.0521 L160.8148,19.4341 C160.8148,19.4341 161.0968,19.6071 161.0968,20.1351 C160.7878,20.1351 159.8408,20.0351 159.8408,20.5721 C159.3588,20.5721 154.4878,21.0181 154.4878,25.9431 L154.1588,26.7991 Z" id="Fill-120" fill="#20438E"></path>
                            <path d="M169.0152,27.4172 C167.6402,28.1092 165.0462,28.6642 161.3502,28.6732 L161.3232,28.6732 L161.3042,28.6732 C157.6082,28.6642 155.0132,28.1092 153.6392,27.4172 C153.0202,28.1822 152.4922,28.9832 152.4922,29.6472 C152.4922,30.7492 155.5702,32.0782 161.3042,32.0872 L161.3232,32.0872 L161.3502,32.0872 C167.0852,32.0782 170.1622,30.7492 170.1622,29.6472 C170.1622,28.9842 169.6252,28.1832 169.0152,27.4172" id="Fill-121" fill="#20438E"></path>
                            <path d="M91.3102,22.1109 C91.3832,21.6099 91.4282,21.1369 91.4562,20.6819 C91.4832,20.2359 91.4922,19.8349 91.4742,19.4889 C91.4742,19.1429 91.4472,18.8609 91.4102,18.6609 C91.3742,18.4519 91.3372,18.3509 91.2832,18.3509 C91.2102,18.3509 91.0732,18.3699 90.8732,18.4059 C90.6822,18.4329 90.4452,18.4789 90.1812,18.5329 C89.9262,18.5879 89.6622,18.6429 89.3982,18.6969 L88.6792,18.8699 C88.4702,18.9339 88.3242,18.9789 88.2332,19.0159 C88.2512,19.1339 88.2602,19.2979 88.2602,19.4979 C88.2602,19.7079 88.2602,19.9259 88.2512,20.1629 C88.2422,20.4089 88.2332,20.6359 88.2242,20.8549 L88.1882,21.4099 C88.1332,21.9739 88.0602,22.5749 87.9782,23.2309 C87.8962,23.8769 87.8052,24.5319 87.7052,25.2239 C87.6052,25.8979 87.5052,26.5719 87.3962,27.2359 L87.0862,29.0929 C86.9862,29.6759 86.8862,30.1859 86.8042,30.6319 C87.0312,30.6229 87.2862,30.6129 87.5782,30.5859 C87.8692,30.5589 88.1602,30.5219 88.4702,30.4769 C88.7702,30.4399 89.0522,30.3859 89.3072,30.3309 C89.5712,30.2669 89.7722,30.2039 89.9352,30.1309 C90.1172,30.0489 90.2542,29.9399 90.3542,29.8029 C90.4452,29.6579 90.5182,29.4479 90.5732,29.1659 C90.7912,27.9829 91.0282,26.9539 91.2922,26.1069 C91.5562,25.2609 91.8292,24.5509 92.1022,23.9859 C92.3842,23.4309 92.6572,22.9939 92.9302,22.6659 C93.2032,22.3389 93.4582,22.1199 93.6952,21.9839 C93.9232,21.8469 94.1322,21.7829 94.3142,21.7829 C94.5692,21.7919 94.8062,21.8289 95.0332,21.9019 C95.2612,21.9739 95.4432,22.0649 95.6072,22.1569 C95.7712,22.0019 95.9252,21.7829 96.0712,21.5099 C96.2262,21.2279 96.3622,20.9279 96.4812,20.6089 C96.5992,20.2809 96.6902,19.9539 96.7362,19.6439 C96.7902,19.3349 96.7992,19.0609 96.7542,18.8249 C96.6722,18.7519 96.5532,18.6699 96.4082,18.5969 C96.2622,18.5239 96.1162,18.4609 95.9622,18.4239 C95.8162,18.3789 95.6892,18.3509 95.5892,18.3509 C95.2972,18.3419 94.9792,18.3969 94.6332,18.4969 C94.2962,18.6059 93.9412,18.7969 93.5772,19.0709 C93.2132,19.3439 92.8482,19.7259 92.4752,20.2179 C92.1112,20.7089 91.7472,21.3369 91.3922,22.1109 L91.3102,22.1109 Z M77.4372,27.9189 C77.1822,27.9189 76.9722,27.7909 76.8092,27.5089 C76.6542,27.2449 76.5632,26.8079 76.5632,26.2069 C76.5632,25.8069 76.6082,25.3699 76.6902,24.8869 C76.7812,24.4139 76.9182,23.9409 77.1092,23.4579 C77.2912,22.9849 77.5372,22.5299 77.8372,22.1109 C78.1562,21.7009 78.4652,21.4009 78.7752,21.1819 C79.0842,20.9729 79.3942,20.8269 79.7032,20.7459 C80.0132,20.6729 80.3322,20.6359 80.6502,20.6449 C80.8592,20.6449 81.0602,20.6639 81.2422,20.6909 C81.4242,20.7269 81.5882,20.7729 81.7332,20.8269 L81.6972,21.1549 L81.6512,21.4099 C81.5242,22.2929 81.3332,23.0759 81.0872,23.7769 C80.8412,24.4779 80.5592,25.0879 80.2502,25.6069 C79.9402,26.1259 79.6122,26.5529 79.2762,26.8989 C78.9392,27.2359 78.6112,27.4999 78.2922,27.6639 C77.9832,27.8279 77.7102,27.9189 77.4642,27.9189 L77.4372,27.9189 Z M73.0312,26.8259 C73.0402,27.7089 73.1492,28.4459 73.3682,29.0189 C73.5862,29.6019 73.8862,30.0389 74.2692,30.3209 C74.6512,30.6029 75.0972,30.7399 75.6072,30.7399 C76.3262,30.7399 77.0182,30.5939 77.6822,30.3209 C78.3472,30.0479 78.9482,29.6749 79.4942,29.2019 C80.0402,28.7369 80.4952,28.1999 80.8592,27.5989 L80.8052,28.1459 C80.7872,28.3459 80.7682,28.5549 80.7502,28.7649 C80.7412,29.0919 80.7232,29.4109 80.7322,29.7019 C80.7412,30.0029 80.7502,30.2479 80.7872,30.4399 C80.8232,30.6309 80.8692,30.7309 80.9412,30.7399 C81.0602,30.7399 81.2422,30.7309 81.4972,30.7219 C81.7432,30.7039 82.0252,30.6759 82.3342,30.6399 C82.6442,30.6029 82.9532,30.5579 83.2542,30.4939 C83.5542,30.4299 83.8182,30.3579 84.0462,30.2569 C84.0372,30.1029 84.0272,29.8749 84.0272,29.5569 C84.0182,29.2469 84.0272,28.8829 84.0552,28.4549 C84.0732,28.0359 84.1182,27.5899 84.1732,27.1169 C84.2462,26.5889 84.3102,26.0059 84.4012,25.3779 L84.6652,23.4479 C84.7652,22.7929 84.8562,22.1649 84.9472,21.5729 C85.0382,20.9809 85.1202,20.4529 85.2022,19.9979 C85.2752,19.5429 85.3472,19.1969 85.3932,18.9599 C85.0382,18.8779 84.6282,18.7869 84.1822,18.6959 C83.7272,18.6049 83.2542,18.5229 82.7622,18.4509 C82.2802,18.3869 81.7972,18.3499 81.3332,18.3499 C80.5592,18.3409 79.8312,18.4139 79.1662,18.5509 C78.4932,18.6869 77.8552,18.9149 77.2732,19.2149 C76.6812,19.5339 76.1262,19.9339 75.6072,20.4529 C75.1152,20.9359 74.7152,21.4549 74.3782,22.0009 C74.0502,22.5469 73.7862,23.1109 73.5862,23.6759 C73.3862,24.2399 73.2492,24.7859 73.1582,25.3239 C73.0762,25.8519 73.0312,26.3519 73.0312,26.7979 L73.0312,26.8259 Z M66.1122,34.0449 C65.6662,34.0449 65.2382,33.9909 64.8382,33.8999 C64.4372,33.7999 64.0822,33.6539 63.7732,33.4809 C63.4632,33.2989 63.2172,33.0889 63.0442,32.8439 C62.8622,32.6069 62.7712,32.3339 62.7712,32.0519 C62.7712,31.8879 62.8442,31.7239 62.9722,31.5779 C63.1082,31.4239 63.2542,31.2869 63.4362,31.1689 C63.6092,31.0409 63.7642,30.9499 63.9092,30.8769 C64.0462,30.8959 64.2552,30.9319 64.5282,30.9869 C64.8112,31.0409 65.1202,31.1049 65.4392,31.1779 C65.7752,31.2599 66.0852,31.3329 66.3852,31.4139 C66.6862,31.4959 66.9322,31.5689 67.1232,31.6509 C67.4322,31.7699 67.6692,31.8969 67.8332,32.0239 C67.9972,32.1519 68.0972,32.2879 68.1612,32.4249 C68.2062,32.5709 68.2422,32.7159 68.2332,32.8709 C68.2242,33.0989 68.1422,33.2989 67.9692,33.4719 C67.7872,33.6539 67.5512,33.7899 67.2322,33.8909 C66.9222,33.9909 66.5582,34.0449 66.1402,34.0449 L66.1122,34.0449 Z M68.0242,22.0829 C68.0152,22.6649 67.9332,23.1839 67.7602,23.6389 C67.5872,24.1039 67.3502,24.4679 67.0502,24.7319 C66.7592,25.0049 66.4132,25.1409 66.0302,25.1409 C65.6392,25.1409 65.3392,25.0049 65.1202,24.7229 C64.9022,24.4409 64.7922,24.0129 64.7832,23.4389 C64.7832,23.0299 64.8292,22.6379 64.9292,22.2649 C65.0202,21.8919 65.1562,21.5549 65.3392,21.2729 C65.5212,20.9809 65.7302,20.7449 65.9852,20.5809 C66.2312,20.4079 66.5132,20.3259 66.8312,20.3169 C67.2502,20.3259 67.5512,20.4809 67.7422,20.7899 C67.9332,21.0909 68.0242,21.5179 68.0242,22.0549 L68.0242,22.0829 Z M66.7502,18.3499 C65.9942,18.3499 65.3022,18.4689 64.6742,18.7149 C64.0462,18.9599 63.5002,19.3059 63.0352,19.7519 C62.5712,20.1889 62.2162,20.7259 61.9612,21.3359 C61.7062,21.9549 61.5792,22.6379 61.5702,23.3849 C61.5792,23.8669 61.6342,24.2949 61.7432,24.6499 C61.8522,25.0139 61.9982,25.3139 62.1712,25.5689 C62.3442,25.8149 62.5262,26.0149 62.7172,26.1789 C62.9082,26.3339 63.0812,26.4519 63.2452,26.5339 C62.9352,26.7069 62.6442,26.8889 62.3622,27.0989 C62.0802,27.3079 61.8522,27.5079 61.6702,27.7179 C61.4882,27.9269 61.3882,28.1179 61.3882,28.2909 C61.3882,28.5819 61.4422,28.8459 61.5422,29.0739 C61.6432,29.3109 61.7522,29.5019 61.8792,29.6659 C62.0072,29.8209 62.1162,29.9389 62.2072,30.0209 C61.7252,30.2759 61.2972,30.5399 60.9332,30.8309 C60.5502,31.1129 60.2592,31.3949 60.0402,31.6869 C59.8312,31.9689 59.7222,32.2329 59.7132,32.4699 C59.7132,32.8969 59.8132,33.3429 60.0222,33.7899 C60.2322,34.2449 60.5592,34.6729 61.0142,35.0639 C61.4702,35.4549 62.0702,35.7739 62.8082,36.0109 C63.5452,36.2569 64.4462,36.3839 65.5022,36.3929 C66.3952,36.3839 67.2052,36.2659 67.9242,36.0289 C68.6432,35.7829 69.2532,35.4649 69.7632,35.0459 C70.2722,34.6359 70.6642,34.1629 70.9282,33.6349 C71.2012,33.1069 71.3282,32.5509 71.3382,31.9689 C71.3382,31.5679 71.2652,31.1769 71.1012,30.7759 C70.9372,30.3849 70.6732,30.0209 70.3092,29.6929 C69.9542,29.3649 69.4622,29.1099 68.8712,28.9279 L68.0512,28.7099 L67.1142,28.4819 L66.2402,28.2639 C65.9672,28.1909 65.7482,28.1269 65.5752,28.0729 C65.2382,27.9819 64.9742,27.8819 64.8012,27.7719 C64.6382,27.6539 64.5472,27.5259 64.5472,27.3809 C64.5472,27.3079 64.5742,27.2439 64.6192,27.1899 L64.7832,27.0079 L65.0472,27.0529 C65.1662,27.0799 65.3202,27.0899 65.4932,27.1079 C65.6752,27.1349 65.8572,27.1439 66.0582,27.1439 C66.5132,27.1439 66.9862,27.0899 67.4502,26.9799 C67.9242,26.8799 68.3792,26.7069 68.8072,26.4799 C69.2442,26.2519 69.6262,25.9519 69.9632,25.5879 C70.3002,25.2229 70.5732,24.7859 70.7732,24.2769 C70.9642,23.7669 71.0642,23.1749 71.0742,22.5019 C71.0742,22.3919 71.0642,22.2559 71.0462,22.0829 C71.0282,21.9099 71.0102,21.7369 70.9732,21.5549 C70.9462,21.3819 70.9012,21.2179 70.8642,21.0909 C70.9822,21.0909 71.1552,21.0999 71.3652,21.1179 L72.0202,21.1539 C72.2392,21.1629 72.4122,21.1719 72.5572,21.1719 C72.5572,21.0179 72.5572,20.8269 72.5762,20.6169 L72.6212,19.9339 L72.6852,19.2519 C72.7212,19.0329 72.7392,18.8509 72.7672,18.6959 L72.1022,18.8149 L71.3562,18.9419 L70.6822,19.0509 C70.4822,19.0789 70.3272,19.0969 70.2272,19.0969 C70.0722,19.1059 69.9172,19.0879 69.7542,19.0419 C69.5902,19.0059 69.4172,18.9509 69.2442,18.8779 C69.0982,18.8149 68.9162,18.7419 68.6982,18.6599 C68.4702,18.5779 68.2062,18.5049 67.8872,18.4419 C67.5692,18.3869 67.1962,18.3499 66.7772,18.3499 L66.7502,18.3499 Z M56.1082,20.5079 C56.3172,20.5079 56.4992,20.5629 56.6362,20.6629 C56.7812,20.7719 56.8822,20.8899 56.9542,21.0359 C57.0272,21.1909 57.0642,21.3269 57.0642,21.4639 C57.0642,21.6369 57.0182,21.8369 56.9272,22.0649 C56.8362,22.3009 56.6632,22.5289 56.4082,22.7559 C56.1442,22.9839 55.7802,23.1839 55.3072,23.3569 C54.8332,23.5299 54.2142,23.6489 53.4592,23.7029 C53.6142,22.9569 53.8322,22.3379 54.1142,21.8729 C54.4062,21.3999 54.7242,21.0539 55.0612,20.8269 C55.4072,20.6169 55.7442,20.4989 56.0812,20.5079 L56.1082,20.5079 Z M56.5812,18.3499 C55.7712,18.3499 55.0152,18.4959 54.3152,18.7779 C53.6232,19.0609 52.9952,19.4519 52.4482,19.9529 C51.8932,20.4529 51.4292,21.0269 51.0372,21.6909 C50.6552,22.3379 50.3642,23.0479 50.1542,23.7849 C49.9542,24.5319 49.8452,25.2959 49.8452,26.0789 C49.8452,27.0349 49.9812,27.8539 50.2642,28.5549 C50.5372,29.2469 50.9832,29.7839 51.5932,30.1659 C52.2122,30.5489 53.0132,30.7399 54.0142,30.7399 C54.8332,30.7309 55.5532,30.6399 56.1722,30.4669 C56.7912,30.2849 57.3092,30.0659 57.7282,29.8019 C58.1562,29.5379 58.4752,29.2739 58.7112,29.0099 C58.8752,28.8459 59.0032,28.6459 59.0942,28.3999 C59.1942,28.1549 59.2392,27.8629 59.2392,27.5169 C59.2392,27.2529 59.2122,27.0349 59.1672,26.8709 C59.1122,26.6979 59.0392,26.5709 58.9482,26.4799 C58.6662,26.7159 58.3292,26.9529 57.9562,27.1899 C57.5732,27.4349 57.1462,27.6359 56.6812,27.7999 C56.2082,27.9629 55.6982,28.0449 55.1522,28.0549 C54.7242,28.0449 54.3692,27.9629 54.0962,27.7999 C53.8322,27.6449 53.6322,27.4169 53.5042,27.1349 C53.3862,26.8529 53.3222,26.5249 53.3222,26.1609 L53.3222,25.8329 C53.7232,25.8239 54.1602,25.7789 54.6332,25.7059 C55.1162,25.6329 55.6072,25.5239 56.1082,25.3689 C56.5992,25.2229 57.0822,25.0319 57.5462,24.8049 C58.0102,24.5679 58.4292,24.2859 58.8022,23.9579 C59.1672,23.6299 59.4582,23.2389 59.6762,22.8019 C59.8952,22.3649 60.0042,21.8639 60.0042,21.3089 C60.0042,20.6719 59.8582,20.1349 59.5672,19.6979 C59.2852,19.2609 58.8842,18.9239 58.3752,18.6959 C57.8652,18.4599 57.2822,18.3499 56.6092,18.3499 L56.5812,18.3499 Z M43.7732,21.1179 C44.0832,21.1179 44.3192,21.2629 44.4742,21.5459 C44.6382,21.8279 44.7292,22.2379 44.7292,22.7749 C44.7292,23.1929 44.6922,23.6489 44.6112,24.1309 C44.5382,24.6139 44.4192,25.0869 44.2462,25.5599 C44.0832,26.0239 43.8552,26.4519 43.5732,26.8439 C43.2912,27.2259 42.9452,27.5359 42.5442,27.7719 C42.1252,28.0089 41.6522,28.1269 41.0882,28.1269 C40.8512,28.1359 40.5872,28.0819 40.3142,27.9729 C40.0412,27.8629 39.8042,27.6809 39.5762,27.4349 C39.5762,27.3439 39.5862,27.2529 39.6042,27.1529 L39.6582,26.7979 C39.8312,25.9239 40.0682,25.1409 40.3782,24.4499 C40.6872,23.7489 41.0332,23.1569 41.4242,22.6559 C41.8162,22.1649 42.2072,21.7819 42.6082,21.5179 C43.0082,21.2539 43.3822,21.1179 43.7462,21.1179 L43.7732,21.1179 Z M40.3232,21.3089 L40.4502,20.3709 L40.5872,19.3789 C40.6232,19.0509 40.6602,18.7599 40.6782,18.5139 C40.7052,18.2689 40.7052,18.0959 40.6962,18.0049 C40.5232,17.9859 40.3052,17.9859 40.0502,18.0229 C39.7862,18.0589 39.5132,18.1049 39.2122,18.1679 C38.9122,18.2319 38.6302,18.3049 38.3472,18.3869 C38.0652,18.4599 37.8292,18.5419 37.6192,18.6139 C37.4102,18.6869 37.2732,18.7509 37.1912,18.8059 C37.1912,18.9969 37.1732,19.2429 37.1462,19.5609 C37.1192,19.8709 37.0822,20.2079 37.0372,20.5809 L36.9002,21.6819 L36.7642,22.6929 C36.4452,24.9229 36.1082,27.1529 35.7532,29.4019 C35.3982,31.6409 35.0252,33.8709 34.6422,36.0739 C34.8252,36.0739 35.0522,36.0649 35.3252,36.0469 C35.5982,36.0289 35.8712,36.0019 36.1632,35.9649 C36.4542,35.9379 36.7182,35.9009 36.9732,35.8559 C37.2192,35.8199 37.4192,35.7739 37.5652,35.7289 C37.8192,35.6369 38.0202,35.5099 38.1472,35.3279 C38.2752,35.1549 38.3662,34.8909 38.4112,34.5539 C38.4752,34.1259 38.5392,33.6889 38.6112,33.2249 L38.8572,31.7409 L39.1582,29.9939 C39.4762,30.2669 39.8682,30.4669 40.3232,30.5759 C40.7782,30.6939 41.2612,30.7489 41.7522,30.7399 C42.5532,30.7399 43.2912,30.5849 43.9642,30.2849 C44.6382,29.9939 45.2482,29.5749 45.7852,29.0469 C46.3132,28.5189 46.7772,27.9089 47.1502,27.2079 C47.5242,26.5069 47.8152,25.7509 48.0062,24.9409 C48.2062,24.1309 48.3062,23.2839 48.3062,22.4289 C48.3062,21.9369 48.2612,21.4459 48.1522,20.9719 C48.0422,20.4899 47.8692,20.0529 47.6422,19.6609 C47.4052,19.2609 47.0872,18.9509 46.6952,18.7149 C46.3042,18.4779 45.8302,18.3499 45.2572,18.3499 C44.6922,18.3499 44.1642,18.4419 43.6912,18.6049 C43.2092,18.7689 42.7632,18.9879 42.3622,19.2699 C41.9522,19.5429 41.5882,19.8619 41.2612,20.2169 C40.9242,20.5629 40.6322,20.9269 40.3782,21.3089 L40.3232,21.3089 Z M31.5932,18.3499 C30.8922,18.3499 30.2552,18.4509 29.6812,18.6599 C29.1082,18.8599 28.6162,19.1519 28.1972,19.5159 C27.7882,19.8799 27.4602,20.2989 27.2322,20.7899 C27.0142,21.2729 26.9052,21.8009 26.8962,22.3739 C26.8962,22.7199 26.9412,23.0659 27.0412,23.4029 C27.1412,23.7399 27.3332,24.0759 27.6062,24.4219 C27.8792,24.7589 28.2702,25.1049 28.7802,25.4599 C29.2812,25.8149 29.6722,26.1059 29.9542,26.3339 C30.2372,26.5519 30.4372,26.7439 30.5552,26.9079 C30.6642,27.0709 30.7192,27.2259 30.7192,27.3809 C30.7102,27.6449 30.5822,27.8449 30.3372,28.0179 C30.0912,28.1729 29.7542,28.2549 29.3352,28.2639 C28.9982,28.2639 28.6532,28.2269 28.3162,28.1639 C27.9702,28.0909 27.6422,28.0179 27.3422,27.9089 C27.0322,27.8089 26.7592,27.7089 26.5222,27.5989 C26.3952,27.5359 26.2772,27.5719 26.1672,27.6989 C26.0582,27.8269 25.9762,28.0089 25.9122,28.2459 C25.8492,28.4819 25.8312,28.7279 25.8492,29.0009 C25.8672,29.2649 25.9492,29.5109 26.0762,29.7289 C26.1952,29.9019 26.3862,30.0569 26.6592,30.2119 C26.9232,30.3669 27.2602,30.4939 27.6512,30.5939 C28.0342,30.6849 28.4612,30.7399 28.9442,30.7399 C29.7182,30.7399 30.4282,30.6219 31.0562,30.4119 C31.6752,30.1939 32.2032,29.8929 32.6492,29.5109 C33.0862,29.1379 33.4232,28.7099 33.6592,28.2269 C33.8872,27.7359 34.0052,27.2259 34.0052,26.6889 C34.0142,26.3339 33.9512,25.9879 33.8322,25.6509 C33.7052,25.3239 33.4952,25.0049 33.2132,24.6769 C32.9222,24.3489 32.5312,24.0219 32.0392,23.6759 C31.6112,23.3849 31.2562,23.1389 30.9922,22.9379 C30.7192,22.7289 30.5192,22.5559 30.3732,22.4099 C30.2372,22.2649 30.1452,22.1369 30.1002,22.0279 C30.0452,21.9189 30.0272,21.8099 30.0272,21.7099 C30.0362,21.4909 30.0912,21.3179 30.2092,21.1819 C30.3282,21.0359 30.4822,20.9359 30.6732,20.8719 C30.8652,20.8079 31.0742,20.7719 31.3022,20.7719 C31.5562,20.7719 31.8022,20.7989 32.0122,20.8449 C32.2212,20.8899 32.4302,20.9449 32.6312,21.0179 C32.8952,21.1179 33.1312,21.1179 33.3232,21.0359 C33.5232,20.9449 33.6872,20.8079 33.8142,20.6079 C33.9422,20.4079 34.0422,20.1889 34.1152,19.9439 C34.1872,19.7069 34.2242,19.4879 34.2422,19.2789 C34.0602,19.0789 33.8052,18.9059 33.5142,18.7689 C33.2132,18.6329 32.8952,18.5229 32.5672,18.4509 C32.2302,18.3869 31.9122,18.3499 31.6202,18.3499 L31.5932,18.3499 Z M21.1152,20.5079 C21.3242,20.5079 21.5072,20.5629 21.6432,20.6629 C21.7892,20.7719 21.8892,20.8899 21.9622,21.0359 C22.0352,21.1909 22.0712,21.3269 22.0712,21.4639 C22.0712,21.6369 22.0252,21.8369 21.9342,22.0649 C21.8342,22.3009 21.6612,22.5289 21.4062,22.7559 C21.1522,22.9839 20.7872,23.1839 20.3142,23.3569 C19.8322,23.5299 19.2132,23.6489 18.4572,23.7029 C18.6122,22.9569 18.8392,22.3379 19.1212,21.8729 C19.4132,21.3999 19.7222,21.0539 20.0682,20.8269 C20.4142,20.6169 20.7512,20.4989 21.0882,20.5079 L21.1152,20.5079 Z M21.5882,18.3499 C20.7692,18.3499 20.0142,18.4959 19.3222,18.7779 C18.6302,19.0609 18.0022,19.4519 17.4562,19.9529 C16.9002,20.4529 16.4362,21.0269 16.0452,21.6909 C15.6622,22.3379 15.3622,23.0479 15.1622,23.7849 C14.9612,24.5319 14.8522,25.2959 14.8522,26.0789 C14.8432,27.0349 14.9802,27.8539 15.2712,28.5549 C15.5442,29.2469 15.9902,29.7839 16.6002,30.1659 C17.2192,30.5489 18.0202,30.7399 19.0212,30.7399 C19.8412,30.7309 20.5602,30.6399 21.1792,30.4669 C21.7982,30.2849 22.3172,30.0659 22.7352,29.8019 C23.1632,29.5379 23.4822,29.2739 23.7102,29.0099 C23.8732,28.8459 24.0012,28.6459 24.1012,28.3999 C24.1922,28.1549 24.2472,27.8629 24.2472,27.5169 C24.2472,27.2529 24.2192,27.0349 24.1652,26.8709 C24.1192,26.6979 24.0462,26.5709 23.9552,26.4799 C23.6642,26.7159 23.3362,26.9529 22.9542,27.1899 C22.5812,27.4349 22.1532,27.6359 21.6802,27.7999 C21.2152,27.9629 20.7052,28.0449 20.1592,28.0549 C19.7222,28.0449 19.3762,27.9629 19.1032,27.7999 C18.8392,27.6449 18.6392,27.4169 18.5122,27.1349 C18.3932,26.8529 18.3302,26.5249 18.3302,26.1609 L18.3302,25.8329 C18.7212,25.8239 19.1582,25.7789 19.6402,25.7059 C20.1232,25.6329 20.6052,25.5239 21.1062,25.3689 C21.6072,25.2229 22.0892,25.0319 22.5532,24.8049 C23.0182,24.5679 23.4362,24.2859 23.8102,23.9579 C24.1742,23.6299 24.4652,23.2389 24.6842,22.8019 C24.8932,22.3649 25.0112,21.8639 25.0112,21.3089 C25.0112,20.6719 24.8662,20.1349 24.5742,19.6979 C24.2832,19.2609 23.8922,18.9239 23.3822,18.6959 C22.8722,18.4599 22.2802,18.3499 21.6162,18.3499 L21.5882,18.3499 Z M5.4582,27.9189 C5.1752,27.9189 4.9392,27.7819 4.7472,27.4819 C4.5562,27.1809 4.4562,26.6989 4.4562,26.0249 C4.4562,25.5699 4.5022,25.0969 4.5932,24.6139 C4.6932,24.1229 4.8292,23.6399 5.0302,23.1849 C5.2212,22.7209 5.4672,22.3019 5.7672,21.9289 C6.0672,21.5559 6.4232,21.2549 6.8322,21.0279 C7.2332,20.8179 7.6972,20.6999 8.2162,20.6909 C8.5622,20.6909 8.8622,20.7459 9.1172,20.8459 C9.3632,20.9369 9.5722,21.0639 9.7362,21.2279 L9.6722,21.5099 L9.6092,21.8469 L9.5722,22.0839 C9.4272,22.8849 9.2262,23.6039 8.9712,24.2319 C8.7172,24.8599 8.4342,25.4149 8.1252,25.8709 C7.8062,26.3349 7.4882,26.7169 7.1692,27.0179 C6.8412,27.3179 6.5322,27.5459 6.2402,27.6909 C5.9492,27.8459 5.6942,27.9189 5.4852,27.9189 L5.4582,27.9189 Z M3.6552,30.7409 C4.3012,30.7409 4.9482,30.6229 5.5762,30.3949 C6.2132,30.1669 6.7962,29.8309 7.3422,29.3659 C7.8972,28.9199 8.3712,28.3559 8.7802,27.6729 L8.7622,27.9009 L8.7262,28.2919 L8.6982,28.6929 C8.6802,28.9109 8.6802,29.1389 8.6802,29.3839 C8.6802,29.6209 8.6982,29.8399 8.7172,30.0489 C8.7352,30.2489 8.7532,30.4219 8.7892,30.5499 C8.8262,30.6679 8.8622,30.7409 8.9082,30.7409 C9.0262,30.7409 9.2172,30.7319 9.4632,30.7229 C9.7182,30.7039 10.0002,30.6769 10.3102,30.6409 C10.6192,30.6039 10.9292,30.5589 11.2382,30.4949 C11.5392,30.4309 11.7932,30.3589 12.0122,30.2579 L12.0302,29.3659 C12.0392,28.9749 12.0572,28.5289 12.0942,28.0189 C12.1302,27.5089 12.1852,26.9899 12.2492,26.4529 C12.2852,26.2069 12.3312,25.8519 12.4032,25.3969 L12.6402,23.7859 L12.9592,21.7829 L13.3052,19.5709 L13.6602,17.3229 L13.9962,15.2019 L14.2692,13.3899 C14.3422,13.0169 14.3512,12.7439 14.3332,12.5709 C14.3062,12.3889 14.2152,12.2979 14.0512,12.2979 C13.8692,12.2979 13.6322,12.3159 13.3502,12.3429 C13.0772,12.3709 12.7862,12.3979 12.4762,12.4339 L11.5842,12.5619 L10.8742,12.6709 C10.8742,12.9079 10.8472,13.2169 10.8102,13.6179 C10.7742,14.0179 10.7192,14.4549 10.6462,14.9469 L10.4372,16.4119 C10.3552,16.9039 10.2912,17.3499 10.2092,17.7689 C10.1372,18.1779 10.0732,18.5149 10.0182,18.7789 C9.7822,18.6429 9.4902,18.5329 9.1442,18.4609 C8.8082,18.3879 8.4342,18.3509 8.0342,18.3509 C7.1332,18.3509 6.3042,18.5059 5.5492,18.7969 C4.8022,19.0889 4.1382,19.5069 3.5552,20.0259 C2.9722,20.5449 2.4812,21.1549 2.0802,21.8469 C1.6712,22.5389 1.3612,23.2849 1.1612,24.0859 C0.9512,24.8869 0.8422,25.7059 0.8422,26.5529 C0.8422,27.4459 0.9612,28.1919 1.1882,28.8109 C1.4162,29.4389 1.7342,29.9119 2.1532,30.2399 C2.5722,30.5769 3.0542,30.7409 3.6282,30.7409 L3.6552,30.7409 Z" id="Fill-122" fill="#20438E"></path>
                            <path d="M133.8586,21.9189 L133.9406,21.3639 C134.0866,20.3899 134.1496,19.6799 134.1406,19.2059 C134.1406,18.7329 134.0586,18.4959 133.9136,18.4959 C133.8586,18.4959 133.7316,18.5139 133.5306,18.5509 L132.8116,18.6779 L131.9926,18.8599 C131.7106,18.9149 131.4556,18.9699 131.2366,19.0329 C131.0186,19.0789 130.8636,19.1239 130.7726,19.1609 C130.7996,19.3879 130.7816,19.8709 130.7176,20.5899 C130.6546,21.3179 130.5176,22.3379 130.3266,23.6399 C130.2176,24.2589 130.1176,24.8959 130.0166,25.5509 L129.6986,27.4899 L129.3976,29.2739 L129.1336,30.7219 C129.7256,30.7129 130.2176,30.6849 130.6356,30.6399 C131.0456,30.5849 131.3736,30.5309 131.6376,30.4489 C131.9016,30.3759 132.1016,30.2849 132.2476,30.1939 C132.3566,30.1119 132.4476,30.0119 132.5296,29.8749 C132.6116,29.7299 132.6846,29.5199 132.7576,29.2379 C133.0216,27.9359 133.3126,26.8259 133.6406,25.9059 C133.9676,24.9869 134.2956,24.2219 134.6416,23.6299 C134.9876,23.0299 135.3156,22.5559 135.6516,22.2189 C135.9796,21.8829 136.2796,21.6459 136.5626,21.5089 C136.8446,21.3639 137.0716,21.2999 137.2726,21.3089 C137.4906,21.3089 137.6636,21.3819 137.7636,21.5279 C137.8636,21.6729 137.9276,21.8729 137.9366,22.1189 C137.9456,22.3559 137.9456,22.6289 137.9006,22.9199 C137.8456,23.4759 137.7726,24.0669 137.6726,24.7049 C137.5726,25.3419 137.4636,25.9969 137.3356,26.6799 C137.2086,27.3629 137.0716,28.0549 136.9356,28.7279 L136.5256,30.7219 C137.1266,30.7129 137.6276,30.6759 138.0466,30.6219 C138.4556,30.5669 138.7926,30.5029 139.0476,30.4309 C139.3026,30.3489 139.5116,30.2759 139.6486,30.2209 C139.7666,30.1669 139.8756,30.0659 139.9666,29.9029 C140.0666,29.7479 140.1486,29.5199 140.1946,29.2379 C140.4406,27.9359 140.7136,26.8169 141.0226,25.8969 C141.3326,24.9779 141.6606,24.2129 141.9966,23.6119 C142.3326,23.0209 142.6696,22.5469 142.9986,22.2099 C143.3346,21.8729 143.6346,21.6369 143.9266,21.4999 C144.2096,21.3639 144.4546,21.2999 144.6646,21.3089 C144.8376,21.3089 144.9836,21.3819 145.0926,21.5179 C145.1936,21.6639 145.2576,21.8459 145.2846,22.0919 C145.3116,22.3379 145.2846,22.6109 145.2206,22.9199 C145.1476,23.2389 145.0846,23.6029 145.0016,24.0039 C144.9286,24.4129 144.8476,24.8319 144.7746,25.2689 L144.5466,26.5619 L144.3476,27.6999 C144.2916,28.0549 144.2376,28.4189 144.2106,28.7829 C144.1746,29.1469 144.1476,29.4839 144.1376,29.7839 C144.1286,30.0939 144.1286,30.3489 144.1476,30.5399 C144.1656,30.7219 144.1936,30.8219 144.2386,30.8309 L144.8296,30.8039 C145.1036,30.7859 145.4036,30.7669 145.7406,30.7219 C146.0666,30.6949 146.3966,30.6399 146.7056,30.5759 C147.0246,30.5219 147.2786,30.4399 147.4876,30.3489 C147.4976,29.9119 147.5346,29.4199 147.5886,28.8739 C147.6506,28.3369 147.7236,27.7359 147.8346,27.0899 L148.0346,25.7149 L148.2806,24.2309 C148.3726,23.7209 148.4536,23.2389 148.5446,22.7659 C148.6356,22.2649 148.6736,21.7549 148.6636,21.2539 C148.6436,20.7629 148.5626,20.2989 148.4166,19.8799 C148.2716,19.4699 148.0346,19.1329 147.7076,18.8879 C147.3806,18.6329 146.9426,18.4959 146.4056,18.4959 C145.7866,18.4959 145.2216,18.6049 144.7026,18.7969 C144.1846,18.9879 143.7206,19.2519 143.2926,19.5889 C142.8726,19.9159 142.4906,20.2899 142.1456,20.6989 C141.8076,21.1089 141.4976,21.5279 141.2346,21.9739 L141.1806,21.9739 C141.1896,21.9099 141.1986,21.8639 141.1986,21.8369 L141.2076,21.6729 C141.2536,21.0909 141.2076,20.5629 141.0716,20.0889 C140.9436,19.6069 140.7066,19.2239 140.3796,18.9329 C140.0516,18.6509 139.6146,18.5049 139.0686,18.4959 C138.4586,18.4959 137.9036,18.6149 137.3846,18.8239 C136.8656,19.0419 136.3926,19.3249 135.9736,19.6609 C135.5456,20.0069 135.1636,20.3809 134.8266,20.7719 C134.4896,21.1729 134.1986,21.5549 133.9436,21.9189 L133.8586,21.9189 Z M122.7526,20.7459 C123.0076,20.7549 123.2166,20.8179 123.3986,20.9369 C123.5716,21.0549 123.7176,21.2099 123.8176,21.4189 C123.9266,21.6199 123.9996,21.8379 124.0456,22.0839 C124.0996,22.3199 124.1186,22.5749 124.1186,22.8209 C124.1186,23.6219 124.0456,24.3689 123.9086,25.0509 C123.7816,25.7519 123.5816,26.3529 123.3266,26.8809 C123.0806,27.3999 122.7706,27.8009 122.4246,28.1009 C122.0786,28.3919 121.6876,28.5469 121.2686,28.5469 C120.9316,28.5469 120.6676,28.4379 120.4676,28.2559 C120.2676,28.0559 120.1216,27.8009 120.0306,27.4729 C119.9396,27.1539 119.8946,26.7899 119.8946,26.3989 C119.8946,25.8339 119.9306,25.2789 120.0216,24.7329 C120.1036,24.1869 120.2216,23.6769 120.3766,23.1939 C120.5406,22.7209 120.7316,22.2929 120.9596,21.9289 C121.1866,21.5649 121.4506,21.2739 121.7426,21.0639 C122.0426,20.8639 122.3706,20.7549 122.7256,20.7459 L122.7526,20.7459 Z M123.1986,18.4969 C122.0786,18.5059 121.0866,18.7059 120.2216,19.0979 C119.3476,19.5079 118.6106,20.0539 118.0096,20.7549 C117.4096,21.4559 116.9536,22.2659 116.6446,23.1849 C116.3256,24.0959 116.1706,25.0879 116.1706,26.1349 C116.1706,27.6819 116.5356,28.8569 117.2816,29.6489 C118.0186,30.4309 119.1756,30.8319 120.7406,30.8319 C121.8246,30.8229 122.7986,30.6229 123.6626,30.2309 C124.5276,29.8309 125.2656,29.2939 125.8746,28.5929 C126.4846,27.8919 126.9586,27.0809 127.2766,26.1619 C127.5956,25.2429 127.7596,24.2499 127.7596,23.1939 C127.7596,22.2569 127.6046,21.4369 127.2676,20.7369 C126.9406,20.0359 126.4306,19.4889 125.7656,19.0979 C125.0836,18.7059 124.2456,18.4969 123.2166,18.4969 L123.1986,18.4969 Z M112.5296,18.4969 C111.6466,18.4969 110.8276,18.6339 110.0906,18.9069 C109.3436,19.1709 108.6886,19.5439 108.0966,20.0259 C107.5136,20.5089 107.0136,21.0729 106.6036,21.7199 C106.1936,22.3749 105.8846,23.0759 105.6746,23.8499 C105.4566,24.6139 105.3476,25.4249 105.3476,26.2709 C105.3566,27.3269 105.5206,28.1919 105.8576,28.8659 C106.1936,29.5389 106.6676,30.0309 107.2686,30.3499 C107.8776,30.6769 108.5876,30.8319 109.4166,30.8319 C110.1266,30.8229 110.7726,30.7409 111.3376,30.5949 C111.9106,30.4409 112.4026,30.2489 112.8206,30.0039 C113.2396,29.7669 113.5856,29.5029 113.8496,29.2389 C114.0776,29.0199 114.2316,28.7839 114.3326,28.5289 C114.4326,28.2739 114.4866,28.0009 114.4866,27.7279 C114.4776,27.5369 114.4596,27.3729 114.4046,27.2269 C114.3596,27.0809 114.3046,26.9629 114.2416,26.8629 C114.1776,26.7629 114.1136,26.6989 114.0596,26.6629 C113.8956,26.8169 113.6856,26.9719 113.4396,27.1539 C113.1946,27.3269 112.9306,27.4909 112.6296,27.6549 C112.3386,27.8099 112.0196,27.9459 111.6926,28.0459 C111.3646,28.1469 111.0366,28.2009 110.7096,28.2009 C110.2726,28.2009 109.9356,28.0919 109.6716,27.8829 C109.3986,27.6729 109.2076,27.3819 109.0886,26.9999 C108.9706,26.6169 108.9156,26.1709 108.9156,25.6609 C108.9156,25.2519 108.9526,24.8419 109.0346,24.4049 C109.1066,23.9679 109.2346,23.5489 109.4076,23.1489 C109.5806,22.7389 109.8076,22.3659 110.0806,22.0379 C110.3546,21.7109 110.6816,21.4559 111.0736,21.2549 C111.4646,21.0639 111.9106,20.9639 112.4206,20.9639 C112.7026,20.9639 112.9756,20.9909 113.2486,21.0549 C113.5216,21.1099 113.7856,21.1919 114.0316,21.2829 C114.1506,21.2639 114.2686,21.1919 114.3956,21.0549 C114.5326,20.9189 114.6506,20.7459 114.7596,20.5269 C114.8696,20.3179 114.9606,20.0989 115.0236,19.8629 C115.0876,19.6349 115.1056,19.4259 115.0876,19.2339 C114.9056,19.0619 114.6686,18.9159 114.4046,18.8069 C114.1316,18.6969 113.8406,18.6149 113.5216,18.5699 C113.2036,18.5149 112.8846,18.4969 112.5566,18.4969 L112.5296,18.4969 Z" id="Fill-123" fill="#E11F26"></path>
                            <path d="M100.4953,23.4664 C100.0583,23.4754 99.6763,23.5664 99.3663,23.7574 C99.0483,23.9394 98.8023,24.2034 98.6383,24.5404 C98.4653,24.8774 98.3833,25.2784 98.3743,25.7424 C98.3833,26.1154 98.4563,26.4434 98.6023,26.7074 C98.7473,26.9804 98.9473,27.1984 99.2113,27.3444 C99.4753,27.4904 99.7853,27.5624 100.1403,27.5624 C100.5413,27.5624 100.8863,27.4714 101.1963,27.2804 C101.4963,27.0984 101.7423,26.8344 101.9153,26.5064 C102.0883,26.1794 102.1703,25.7964 102.1793,25.3694 C102.1793,25.0144 102.1153,24.7044 101.9883,24.4134 C101.8603,24.1314 101.6693,23.9034 101.4243,23.7304 C101.1873,23.5664 100.8773,23.4754 100.5133,23.4664 L100.4953,23.4664 Z" id="Fill-124" fill="#E11F26"></path>
                            <path d="M102.7893,11.0779 L103.5813,10.3039 L105.9113,10.3039 L109.6073,5.7979 L102.8893,2.6479 L104.3913,1.6109 L112.1293,3.3309 C112.1293,3.3309 116.3983,-0.5831 117.4543,0.4729 C118.5193,1.5289 114.4963,5.6979 114.4963,5.6979 L115.8163,13.0899 L114.8333,14.5099 L111.9923,8.2009 L107.3503,11.7609 L107.3503,14.1089 L106.5403,14.9009 L105.4023,12.2249 L102.7893,11.0779 Z" id="Fill-125" fill="#20438E"></path>
                            <path d="M100.2768,21.6458 C100.9228,21.6458 101.5328,21.8368 102.0698,22.1098 C103.0988,18.9878 103.7358,17.1128 105.5198,14.8548 L103.0628,14.8548 C101.3058,17.0848 100.4768,18.8788 99.7398,21.8008 C99.9218,21.7828 100.0948,21.6458 100.2768,21.6458" id="Fill-126" fill="#E11F26"></path>
                            <path d="M100.3496,29.6848 C99.8126,29.6848 99.2936,29.5758 98.8296,29.3848 C99.0026,32.3158 99.5666,34.2088 100.8416,36.7038 L103.3806,36.7038 C102.1246,34.2548 101.5606,32.3798 101.3786,29.5478 C101.0506,29.6298 100.7046,29.6848 100.3496,29.6848" id="Fill-127" fill="#E11F26"></path>
                        </g>
                    </g>
                </g>
            </g>
        </g>
    </g>
</svg>