<?xml version="1.0" encoding="UTF-8"?>
<svg width="151px" height="41px" viewBox="0 0 151 41" version="1.1" xmlns="http://www.w3.org/2000/svg" xmlns:xlink="http://www.w3.org/1999/xlink">
    <!-- Generator: Sketch 46.2 (44496) - http://www.bohemiancoding.com/sketch -->
    <title>Galicia</title>
    <desc>Created with Sketch.</desc>
    <defs></defs>
    <g id="v5" stroke="none" stroke-width="1" fill="none" fill-rule="evenodd">
        <g id="SERVICES-v5" transform="translate(-318.000000, -1894.000000)">
            <g id="CLIENTS" transform="translate(268.000000, 1667.000000)">
                <g id="logos" transform="translate(0.000000, 122.000000)">
                    <g id="Group-194" transform="translate(0.000000, 0.010000)">
                        <g id="Galicia" transform="translate(50.000000, 104.990000)">
                            <polygon id="Fill-1" fill="#FFFFFF" points="0.2957 40.9468 0.2957 0.0618 150.7047 0.0618 150.7047 40.9468"></polygon>
                            <path d="M28.9793,39.337 C68.9613,39.337 108.9433,39.351 148.9383,39.365 C148.9243,39.394 148.9103,39.422 148.8963,39.45 C108.8863,39.422 68.8763,39.408 28.8803,39.394 C28.9083,39.365 28.9363,39.351 28.9793,39.337 Z" id="Fill-2" fill="#EF945A"></path>
                            <path d="M2.0612,39.4076 L2.0612,39.3936 C8.5152,39.3936 14.9832,39.3936 21.4512,39.4076 L2.0612,39.4076 Z" id="Fill-4" fill="#CE4A63"></path>
                            <polygon id="Fill-6" fill="#CE4A63" points="2.0612 1.8407 2.0612 1.8687 2.0612 39.3937 2.0612 39.4077 2.0052 39.4077 2.0052 1.8407"></polygon>
                            <path d="M21.4516,39.4076 C14.9836,39.3936 8.5156,39.3936 2.0616,39.3936 L2.0616,1.8686 C8.5156,1.8546 14.9836,1.8406 21.4516,1.8406 C22.1156,1.8826 22.7936,1.9256 23.4716,1.9816 C23.5276,2.0386 24.3186,2.1236 24.3756,2.1796 C28.0326,2.8576 31.0126,4.5666 33.8096,6.9676 C35.1656,8.3656 36.2526,9.7776 37.2976,11.4296 C37.6646,12.2066 38.0456,12.9836 38.4276,13.7606 C38.9496,15.4836 39.3456,17.0366 39.6136,18.8026 C39.6276,19.7346 39.6556,20.6806 39.6846,21.6266 C39.5996,22.3476 39.5146,23.0676 39.4446,23.7876 C38.8646,26.6116 37.8486,29.0276 36.2806,31.4276 C35.4896,32.4586 35.4896,32.4586 35.4336,32.5866 C33.3576,34.7896 31.3516,36.3716 28.6826,37.7406 C28.0186,37.9816 27.3696,38.2356 26.7196,38.4896 C25.0106,38.9976 23.2456,39.3366 21.4516,39.4076 Z" id="Fill-8" fill="#AD2931"></path>
                            <path d="M28.9793,39.337 C31.4503,38.236 33.5833,36.823 35.6173,35.03 C35.7013,34.888 36.4073,34.225 37.6083,32.812 C38.7103,31.273 39.6843,29.748 40.5173,28.039 C40.7573,27.375 41.0113,26.711 41.2663,26.062 C42.6643,21.387 42.5933,16.868 41.1243,12.221 C40.8853,11.6 40.6443,10.979 40.4043,10.371 C39.0203,7.66 37.3683,5.4 35.1793,3.281 C34.6143,2.801 34.0493,2.335 33.4843,1.869 C71.9413,1.855 110.4113,1.841 148.8823,1.841 C148.8963,1.855 148.9103,1.869 148.9383,1.883 L148.9383,39.365 C108.9433,39.351 68.9613,39.337 28.9793,39.337 Z" id="Fill-10" fill="#FF6600"></path>
                            <path d="M20.788,35.4389 C19.997,29.9029 19.093,24.3239 18.5,18.7739 C19.376,18.3359 19.63,17.3899 19.898,16.4999 C20.068,15.5399 20.322,14.4809 20.251,13.4919 C18.571,13.5339 16.735,13.7039 15.209,14.4389 C13.331,14.4389 13.204,11.7829 15.167,11.6139 C16.848,12.2639 18.528,12.5039 20.322,12.5599 C20.237,10.7949 20.054,9.1279 19.39,7.4899 C19.39,7.0099 19.503,6.7409 19.813,6.3879 C20.943,5.6539 22.017,6.1339 22.2,7.4619 C21.508,9.1569 21.409,10.6959 21.268,12.5039 C21.297,12.5179 21.325,12.5319 21.367,12.5599 C23.09,12.4749 24.827,12.3199 26.423,11.6139 C28.358,11.7979 28.259,14.4389 26.367,14.4389 C24.841,13.6759 22.963,13.5629 21.282,13.5199 C21.395,14.5649 21.508,18.3929 23.118,18.7879 C23.033,19.6349 22.977,19.6919 21.339,31.9219 C21.282,31.9789 20.844,35.3399 20.788,35.4389 Z" id="Fill-12" fill="#FFFFFF"></path>
                            <path d="M110.3551,32.2334 C107.8831,32.0074 106.2591,31.1594 104.8611,29.0554 C104.6491,28.6174 104.4521,28.1804 104.2541,27.7424 C102.9261,22.6154 105.4401,17.3474 110.9621,16.7124 C112.5021,16.7124 113.9421,17.0794 115.3971,17.5594 C115.3691,17.7714 115.3691,17.7714 114.5211,19.9884 C114.0971,19.9464 114.0971,19.9464 113.1511,19.7484 L111.4991,19.7484 C110.3551,20.0314 109.5781,20.3704 108.7731,21.2454 C107.1921,23.5614 106.9231,26.6974 109.3381,28.5614 C109.6351,28.7024 109.9451,28.8434 110.2561,28.9854 C111.6971,29.1824 113.0811,29.0834 114.4791,28.6464 C114.7751,28.5054 114.7751,28.5054 114.8741,28.5054 C115.1711,29.0704 115.7071,29.8044 115.8211,30.4254 C114.1121,31.4424 112.3461,32.0074 110.3551,32.2334 Z" id="Fill-14" fill="#FFFFFF"></path>
                            <path d="M66.645,13.9865 L65.515,13.9865 C62.987,13.9865 60.925,15.4415 59.527,17.4185 C59.103,18.3225 58.906,18.9295 58.849,18.9865 C58.341,21.0335 58.482,22.8975 59.16,24.8615 C60.163,26.7815 61.25,27.7985 63.227,28.5615 C63.651,28.6325 64.075,28.7165 64.513,28.8015 C65.402,28.8015 66.843,28.9145 67.605,28.5335 C67.605,26.9515 67.62,25.3695 67.634,23.7875 C67.634,23.7455 67.634,23.7455 64.004,23.6885 C63.99,22.6865 63.99,21.6835 63.99,20.6805 L63.99,20.6525 L71.306,20.6525 C71.306,23.9995 71.319,27.3465 71.334,30.7085 C70.628,30.9475 69.921,31.1885 69.23,31.4285 C68.015,31.7105 66.885,31.9935 65.628,32.1345 C63.905,32.2055 62.465,32.0495 60.812,31.5695 C57.649,30.2555 55.77,28.0245 54.824,24.7485 C54.344,22.1635 54.344,19.9605 55.106,17.4045 C55.615,16.1475 56.307,15.1165 57.126,14.0285 C58.637,12.5175 60.134,11.7555 62.154,11.0345 C65.092,10.3995 67.902,10.7525 70.769,11.5435 C70.43,12.4895 70.105,13.4495 69.78,14.4105 C67.859,14.0995 67.859,14.0995 66.645,13.9865 Z" id="Fill-16" fill="#FFFFFF"></path>
                            <path d="M82.5791,24.974 C82.5931,25.864 82.6001,26.768 82.6141,27.672 C81.9791,28.746 80.3591,29.25 79.1871,29.377 C78.3821,29.151 77.8311,28.931 77.4641,28.111 C76.9841,25.174 80.5031,25.03 82.5791,24.974 M80.5581,16.757 C78.7441,16.823 76.9801,17.518 75.1441,18.251 C75.4121,18.971 75.6881,19.705 75.9701,20.439 C76.7611,20.185 77.5471,19.932 78.3521,19.692 C79.2131,19.495 80.2181,19.435 81.0941,19.604 C82.4781,20.198 82.5311,21.298 82.5881,22.654 C80.0881,22.809 77.7341,22.853 75.6011,24.28 C75.1631,24.731 74.6641,25.161 74.3531,25.712 C73.8871,26.941 73.9441,27.967 74.2121,29.21 C74.9041,30.679 75.6581,31.452 77.1831,32.031 C79.3861,32.441 80.9251,31.566 82.5351,30.098 C82.5631,30.098 82.5891,30.119 82.6321,30.133 C82.8581,31.644 82.9131,31.7 82.9131,31.785 C83.9721,31.785 85.0351,31.797 86.0941,31.811 C86.0801,28.238 86.0651,24.663 86.0501,21.09 C85.7541,19.48 85.2481,18.389 83.9061,17.442 C82.7571,16.897 81.6461,16.717 80.5581,16.757" id="Fill-18" fill="#FFFFFF"></path>
                            <path d="M133.3056,24.9564 C133.3056,25.8884 133.3176,26.8404 133.3316,27.7864 C132.0746,28.8314 129.6886,30.3394 128.3756,28.4894 C126.9916,25.4244 131.3006,25.0124 133.3056,24.9564 M130.9326,16.7304 C129.1816,16.9284 127.4966,17.5204 125.9146,18.2684 C125.8016,18.6074 126.4586,20.0134 126.7406,20.4654 C128.3366,19.8724 129.6776,19.4904 131.3726,19.4904 C131.4286,19.5464 131.4226,19.5524 131.9876,19.6654 C133.2306,20.3154 133.2186,21.3584 133.3316,22.6714 C130.2816,22.8694 126.1486,22.8414 124.8776,26.3014 C124.2846,29.1824 125.7326,31.7424 128.7266,32.1804 C130.5626,32.1804 131.9876,31.3454 133.2436,30.0884 C133.2866,30.0744 133.3336,30.0714 133.3756,30.0714 C133.5876,31.5544 133.5846,31.5554 133.6836,31.8374 C134.7146,31.8234 135.7496,31.8114 136.7946,31.8114 C136.7946,28.4354 136.7886,25.0744 136.8036,21.7134 C136.6196,19.6654 136.0976,18.4594 134.3606,17.3014 C133.3996,16.9204 132.9846,16.8664 132.9276,16.8094 C132.2636,16.7814 131.5966,16.7584 130.9326,16.7304" id="Fill-20" fill="#FFFFFF"></path>
                            <path d="M97.4327,31.8378 C98.6187,31.8238 99.8057,31.8098 101.0057,31.8098 C100.8077,32.0068 97.8847,31.8378 97.4327,31.8378" id="Fill-22" fill="#EF945A"></path>
                            <path d="M133.686,31.8378 C134.717,31.8238 135.748,31.8098 136.793,31.8098 L136.836,31.8098 C136.793,31.8238 136.751,31.8378 136.708,31.8658 C135.692,31.8518 134.689,31.8378 133.686,31.8378 Z" id="Fill-24" fill="#EF945A"></path>
                            <path d="M82.9143,31.7812 C83.9733,31.7812 85.0323,31.7952 86.0923,31.8092 C82.8583,31.8092 82.8583,31.8092 82.9143,31.7812" id="Fill-26" fill="#EF945A"></path>
                            <path d="M89.7357,9.4672 C89.7357,16.9102 89.7497,24.3522 89.7637,31.8092 L93.4357,31.8092 L89.6657,31.8092 C89.6797,24.3522 89.7077,16.9102 89.7357,9.4672" id="Fill-28" fill="#EF945A"></path>
                            <path d="M118.617,31.8094 L122.289,31.8094 C118.617,31.8514 118.617,31.8514 118.617,31.8094" id="Fill-30" fill="#EF945A"></path>
                            <path d="M97.3337,17.0935 L97.3337,31.8375 C97.2917,31.8375 97.2917,31.8375 97.3337,17.0935" id="Fill-32" fill="#EF945A"></path>
                            <path d="M97.3337,31.8378 L97.3337,17.0938 L97.3897,17.0938 L100.9637,17.0938 C100.9777,21.9938 100.9917,26.8948 101.0057,31.8098 C99.8057,31.8098 98.6187,31.8238 97.4327,31.8378 L97.3337,31.8378 Z" id="Fill-34" fill="#FFFFFF"></path>
                            <path d="M89.7357,9.4672 L89.7357,9.3822 L93.4357,9.3822 L93.4357,31.8092 L89.7637,31.8092 C89.7497,24.3522 89.7357,16.9102 89.7357,9.4672" id="Fill-36" fill="#FFFFFF"></path>
                            <path d="M118.617,31.8094 L118.617,17.1214 C119.817,17.1074 121.032,17.0934 122.247,17.0934 C122.261,21.9944 122.275,26.8944 122.289,31.8094 L118.617,31.8094 Z" id="Fill-38" fill="#FFFFFF"></path>
                            <path d="M136.793,31.8094 C136.793,28.4344 136.793,25.0724 136.807,21.7114 C136.807,25.0724 136.821,28.4344 136.836,31.8094 L136.793,31.8094 Z" id="Fill-40" fill="#F7CEB5"></path>
                            <path d="M71.3336,30.7081 C71.3196,27.3471 71.3056,24.0001 71.3056,20.6531 C71.3056,20.6381 71.3196,20.6241 71.3336,20.6241 L71.3336,30.7081 Z" id="Fill-42" fill="#F7CEB5"></path>
                            <path d="M133.3328,27.7844 C133.3188,26.8384 133.3048,25.8924 133.3048,24.9604 C133.3188,24.9604 133.3328,24.9744 133.3608,24.9884 C133.3468,25.9204 133.3328,26.8524 133.3328,27.7844 Z" id="Fill-44" fill="#EFAD84"></path>
                            <path d="M63.9615,23.6889 L64.0045,23.6889 C67.6335,23.7449 67.6335,23.7449 67.6335,23.7879 C66.4195,23.7739 65.2045,23.7739 63.9895,23.7739 C63.9755,23.7449 63.9615,23.7169 63.9615,23.6889" id="Fill-46" fill="#EFAD7B"></path>
                            <path d="M63.9615,23.6889 C63.9615,22.6859 63.9755,21.6839 63.9895,20.6809 C63.9895,21.6839 63.9895,22.6859 64.0045,23.6889 L63.9615,23.6889 Z" id="Fill-48" fill="#F7CEB5"></path>
                            <path d="M63.9896,20.6526 C63.9896,20.6106 63.9896,20.6106 71.3336,20.6246 C71.3196,20.6246 71.3056,20.6386 71.3056,20.6526 L63.9896,20.6526 Z" id="Fill-50" fill="#EFAD84"></path>
                            <path d="M118.617,17.1218 C118.617,17.0798 118.617,17.0798 122.247,17.0938 C121.032,17.0938 119.817,17.1078 118.617,17.1218" id="Fill-52" fill="#F7CEB5"></path>
                            <path d="M99.0567,13.831 C97.1927,13.605 96.7127,11.6 97.8707,10.3 C99.7067,9.142 101.4997,10.555 100.9637,12.645 C100.4837,13.436 99.9607,13.746 99.0567,13.831 Z" id="Fill-54" fill="#FFFFFF"></path>
                            <path d="M120.3398,13.831 C118.7728,13.52 118.0658,12.179 118.8148,10.682 C119.7188,9.665 121.1028,9.552 122.0348,10.639 C122.7128,12.038 122.2888,13.238 120.8768,13.775 C120.6928,13.789 120.5098,13.803 120.3398,13.831" id="Fill-56" fill="#FFFFFF"></path>
                            <path d="M89.7357,9.3824 C89.7497,9.3404 89.7637,9.3114 89.7917,9.2834 L93.3797,9.2834 C93.3937,9.3114 93.4077,9.3404 93.4357,9.3824 L89.7357,9.3824 Z" id="Fill-58" fill="#EFAD84"></path>
                            <path d="M2.0612,1.8689 L2.0612,1.8409 L21.4512,1.8409 C14.9832,1.8409 8.5152,1.8549 2.0612,1.8689" id="Fill-60" fill="#CE4A63"></path>
                            <path d="M33.4845,1.8689 C33.4845,1.8269 33.4845,1.8269 148.8825,1.8409 C110.4115,1.8409 71.9405,1.8549 33.4845,1.8689 Z" id="Fill-62" fill="#EF945A"></path>
                        </g>
                    </g>
                </g>
            </g>
        </g>
    </g>
</svg>