<?xml version="1.0" encoding="UTF-8"?>
<svg width="128px" height="35px" viewBox="0 0 128 35" version="1.1" xmlns="http://www.w3.org/2000/svg" xmlns:xlink="http://www.w3.org/1999/xlink">
    <!-- Generator: Sketch 46.2 (44496) - http://www.bohemiancoding.com/sketch -->
    <title>Xapo</title>
    <desc>Created with Sketch.</desc>
    <defs></defs>
    <g id="v5" stroke="none" stroke-width="1" fill="none" fill-rule="evenodd">
        <g id="SERVICES-v5" transform="translate(-602.000000, -2172.000000)">
            <g id="CLIENTS" transform="translate(268.000000, 1667.000000)">
                <g id="logos" transform="translate(0.000000, 122.000000)">
                    <g id="Group-194" transform="translate(0.000000, 0.010000)">
                        <g id="Xapo" transform="translate(334.000000, 383.000000)">
                            <polygon id="Fill-94" fill="#FF3B30" points="22.3822 0.844 18.1152 5.539 13.8482 0.844 3.1352 0.844 12.7822 11.252 0.9092 23.564 11.9932 23.564 18.1152 16.833 24.2372 23.564 35.3212 23.564 23.4482 11.252 33.2802 0.844"></polygon>
                            <path d="M44.4126,12.2264 C44.4126,15.1054 46.4066,17.3194 49.8396,17.3194 C53.2716,17.3194 55.2656,15.1054 55.2656,12.2264 C55.2656,9.4364 53.2716,7.0894 49.8396,7.0894 C46.4066,7.0894 44.4126,9.4364 44.4126,12.2264 L44.4126,12.2264 Z M63.4276,23.5644 L54.9866,23.5644 L54.9866,21.0394 L54.8946,21.0394 C53.4106,23.2984 50.4886,24.3174 47.7056,24.3174 C40.6566,24.3174 35.6936,18.6924 35.6936,12.1814 C35.6936,5.6714 40.5626,0.0914 47.6126,0.0914 C50.3486,0.0914 53.2246,1.0654 54.9866,3.0584 L54.9866,0.8444 L63.4276,0.8444 L63.4276,23.5644 Z" id="Fill-95" fill="#252525"></path>
                            <path d="M76.9251,12.2264 C76.9251,15.1054 78.9191,17.3194 82.3511,17.3194 C85.7831,17.3194 87.7771,15.1054 87.7771,12.2264 C87.7771,9.4364 85.7831,7.0894 82.3511,7.0894 C78.9191,7.0894 76.9251,9.4364 76.9251,12.2264 L76.9251,12.2264 Z M77.2031,3.4124 L77.2961,3.4124 C78.8261,1.1544 81.7021,0.0914 84.4841,0.0914 C91.5801,0.0914 96.4961,5.7604 96.4961,12.2714 C96.4961,18.8254 91.6271,24.3174 84.5771,24.3174 C81.8411,24.3174 79.0121,23.3874 77.2031,21.3934 L77.2031,34.9014 L68.7621,34.9014 L68.7621,0.8444 L77.2031,0.8444 L77.2031,3.4124 Z" id="Fill-96" fill="#252525"></path>
                            <path d="M107.8138,12.2264 C107.8138,15.1054 109.8078,17.3194 113.2398,17.3194 C116.6718,17.3194 118.6658,15.1054 118.6658,12.2264 C118.6658,9.4364 116.6718,7.0894 113.2398,7.0894 C109.8078,7.0894 107.8138,9.4364 107.8138,12.2264 M127.5708,12.2264 C127.5708,19.9324 120.8928,24.3174 113.2398,24.3174 C105.6338,24.3174 98.9098,19.9764 98.9098,12.2264 C98.9098,4.4754 105.5878,0.0914 113.2398,0.0914 C120.8928,0.0914 127.5708,4.4754 127.5708,12.2264" id="Fill-97" fill="#252525"></path>
                        </g>
                    </g>
                </g>
            </g>
        </g>
    </g>
</svg>