<?xml version="1.0" encoding="UTF-8"?>
<svg width="384px" height="306px" viewBox="0 0 384 306" version="1.1" xmlns="http://www.w3.org/2000/svg" xmlns:xlink="http://www.w3.org/1999/xlink">
    <!-- Generator: Sketch 46.2 (44496) - http://www.bohemiancoding.com/sketch -->
    <title>bg mancha</title>
    <desc>Created with Sketch.</desc>
    <defs></defs>
    <g id="v2" stroke="none" stroke-width="1" fill="none" fill-rule="evenodd" fill-opacity="0.100000001">
        <g id="01_HOME_Desktop_A-Copy-5" transform="translate(-609.000000, -2013.000000)" fill="#3E6BFD">
            <g id="Businesses" transform="translate(0.000000, 1763.000000)">
                <g id="bg-mancha" transform="translate(609.000000, 250.000000)">
                    <path d="M208.270462,1.25682765 C167.566826,9.95990041 171.290836,43.2421226 81.032594,55.6065236 C-18.7316738,69.2765146 49.1102978,119.513344 41.6390672,154.462387 C36.3986321,178.982191 -0.299887478,184.991517 0.00185017375,218.013137 C0.187534883,238.574889 18.0158459,259.157282 71.6864636,254.14908 C121.818756,249.471146 89.0170364,286.448239 111.879466,301.194181 C149.547673,325.484346 190.470519,242.050441 250.91605,245.208627 C342.775823,250.005251 364.941935,207.395543 338.505074,181.121191 C313.729061,156.495598 337.574072,133.47232 360.802713,127.094023 C399.337448,116.504811 391.059005,45.492072 325.207986,57.4255768 C261.242183,69.0184928 252.373159,47.3575691 251.400893,31.1925081 C250.503417,16.3252963 235.940062,-4.65703027 208.270462,1.25682765"></path>
                </g>
            </g>
        </g>
    </g>
</svg>