<?xml version="1.0" encoding="UTF-8"?>
<svg width="123px" height="55px" viewBox="0 0 123 55" version="1.1" xmlns="http://www.w3.org/2000/svg" xmlns:xlink="http://www.w3.org/1999/xlink">
    <!-- Generator: Sketch 46.2 (44496) - http://www.bohemiancoding.com/sketch -->
    <title>Cablevision</title>
    <desc>Created with Sketch.</desc>
    <defs></defs>
    <g id="v5" stroke="none" stroke-width="1" fill="none" fill-rule="evenodd">
        <g id="SERVICES-v5" transform="translate(-872.000000, -1887.000000)">
            <g id="CLIENTS" transform="translate(268.000000, 1667.000000)">
                <g id="logos" transform="translate(0.000000, 122.000000)">
                    <g id="Group-194" transform="translate(0.000000, 0.010000)">
                        <g id="Cablevision" transform="translate(604.000000, 98.000000)">
                            <path d="M120.5486,48.3649 C120.1446,50.5189 118.1246,52.2699 115.9706,52.4049 C79.6146,54.5589 43.2586,54.5589 7.0376,52.4049 C4.8836,52.2699 2.8636,50.5189 2.4596,48.3649 C0.4396,34.4959 0.4396,20.4919 2.4596,6.6229 C2.8636,4.4689 4.8836,2.7179 7.0376,2.5839 C43.3936,0.4289 79.7496,0.4289 115.9706,2.5839 C118.1246,2.7179 120.1446,4.4689 120.5486,6.6229 C122.5686,20.6269 122.5686,34.4959 120.5486,48.3649" id="Fill-74" fill="#E7282B"></path>
                            <path d="M41.3737,27.09 C42.9897,27.09 44.0667,28.302 44.0667,29.918 C44.0667,31.534 43.1237,32.745 41.3737,32.745 C39.7577,32.745 38.8157,31.668 38.8157,29.918 C38.8157,28.302 39.6237,27.09 41.3737,27.09 L41.3737,27.09 Z M36.3917,30.322 C36.6607,33.553 38.2767,34.9 41.3737,34.9 C44.2017,34.9 45.9517,33.284 46.4907,30.86 C46.4907,30.86 46.6247,30.322 46.6247,29.918 L46.6247,29.514 C46.6247,28.167 46.0867,26.821 45.4127,26.013 C44.6057,25.07 43.5277,24.666 42.1817,24.666 C40.4307,24.666 39.6237,25.474 39.0847,26.013 L39.0847,20.223 C39.0847,20.088 38.9497,20.088 38.9497,20.088 L36.7957,20.088 C36.6607,20.088 36.6607,20.223 36.6607,20.223 L36.3917,30.322 Z" id="Fill-75" fill="#F6F6F3"></path>
                            <path d="M47.5676,34.3612 C47.5676,34.4962 47.7026,34.4962 47.5676,34.3612 L49.8566,34.4962 C49.9916,34.4962 49.9916,34.3612 49.9916,34.3612 L49.9916,20.3572 C49.9916,20.2232 49.8566,20.2232 49.8566,20.2232 L47.7026,20.2232 C47.5676,20.2232 47.5676,20.3572 47.5676,20.3572 L47.5676,34.3612 Z" id="Fill-76" fill="#F6F6F3"></path>
                            <path d="M25.8887,32.4761 C26.0237,32.3411 26.0237,32.2071 25.8887,32.2071 L24.1387,30.9951 L23.8687,30.9951 C22.9267,32.0721 21.9837,32.4761 20.9067,32.4761 C18.2137,32.4761 16.7327,30.3221 16.7327,27.3591 C16.7327,24.5321 18.2137,22.3771 20.9067,22.3771 C21.8487,22.3771 22.6567,22.6461 23.7347,23.5891 C23.7347,23.5891 23.8687,23.7241 23.8687,23.5891 L25.4847,22.3771 C25.6197,22.2431 25.6197,22.1081 25.4847,21.9731 C24.2727,20.4921 22.6567,19.9531 20.9067,19.9531 C18.8867,19.9531 17.2707,20.7611 15.9247,21.9731 C14.7127,23.1851 14.0397,25.2051 14.0397,27.4941 C14.0397,29.6481 14.7127,31.5331 15.9247,32.8801 C17.1367,34.0921 18.8867,34.9001 20.9067,34.9001 C22.7917,34.7651 24.5427,34.0921 25.8887,32.4761" id="Fill-78" fill="#F6F6F3"></path>
                            <path d="M32.6213,30.187 C32.6213,30.187 32.7563,30.187 32.6213,30.187 L33.0253,30.322 L32.8903,30.052 L32.4863,29.918 L32.6213,30.187 Z" id="Fill-79" fill="#F6F6F3"></path>
                            <path d="M32.8906,33.284 C32.8906,33.284 33.0256,33.015 32.8906,33.284 L33.1596,33.284 L32.8906,32.476 L32.4866,32.745 L32.8906,33.284 Z" id="Fill-80" fill="#F6F6F3"></path>
                            <path d="M33.0253,28.3019 C33.0253,28.4369 32.8903,28.4369 33.0253,28.3019" id="Fill-81" fill="#F6F6F3"></path>
                            <path d="M70.3237,24.9356 L68.0347,24.9356 C67.8997,24.9356 67.8997,24.9356 67.7657,25.0706 L65.6107,31.2646 C65.6107,31.3986 65.4767,31.3986 65.4767,31.2646 L63.1867,25.0706 C63.1867,24.9356 63.0527,24.9356 62.9177,24.9356 L60.6287,24.9356 C60.4937,24.9356 60.4937,25.0706 60.4937,25.0706 L60.4937,25.2046 L63.9947,34.3616 C63.9947,34.4956 64.1297,34.4956 64.2647,34.4956 L66.5537,34.4956 C66.6877,34.4956 66.6877,34.3616 66.8227,34.3616 L70.3237,24.9356 C70.4587,24.9356 70.3237,24.9356 70.3237,24.9356" id="Fill-82" fill="#F6F6F3"></path>
                            <path d="M80.5572,28.8405 C79.8842,28.7055 79.3452,28.5715 78.8072,28.4365 C78.2682,28.3015 77.9992,28.0325 77.9992,27.6285 C77.9992,27.2245 78.1332,27.0905 78.4032,26.8205 C78.6722,26.6865 79.0762,26.5515 79.3452,26.5515 C80.1532,26.5515 80.5572,26.8205 81.0962,27.4945 L81.3652,27.4945 L82.7112,26.2825 L82.7112,26.0125 C81.9032,24.9355 80.5572,24.6665 79.3452,24.6665 C78.2682,24.6665 77.4602,24.9355 76.6522,25.4745 C75.8442,26.0125 75.4402,26.6865 75.4402,27.8975 C75.4402,29.6485 76.6522,30.3215 77.9992,30.5905 C78.6722,30.7255 79.2102,30.8605 79.7492,30.9945 C80.2882,31.1295 80.5572,31.3985 80.5572,31.9375 C80.5572,32.3415 80.2882,32.6105 80.0182,32.7455 C79.7492,32.8805 79.3452,33.0145 78.9412,33.0145 C77.9992,33.0145 77.4602,32.4765 76.7872,31.9375 L76.5172,31.9375 L75.3062,33.1495 C75.3062,33.1495 75.1712,33.2835 75.3062,33.4185 L75.5752,33.6875 C76.5172,34.6305 77.5952,34.7655 78.9412,34.7655 C80.0182,34.7655 80.9612,34.4955 81.7692,34.0915 C82.5772,33.5535 83.1152,32.8805 83.1152,31.6685 C83.1152,29.7835 81.9032,29.1095 80.5572,28.8405 L80.5572,28.8405 Z M87.0202,24.9355 L84.8662,24.9355 C84.7312,24.9355 84.7312,25.0705 84.7312,25.0705 L84.7312,34.3615 C84.7312,34.4955 84.8662,34.4955 84.8662,34.4955 L87.0202,34.4955 C87.1552,34.4955 87.1552,34.3615 87.1552,34.3615 L87.0202,24.9355 C87.1552,24.9355 87.0202,24.9355 87.0202,24.9355 L87.0202,24.9355 Z M72.6132,20.2225 C71.6702,20.2225 71.1312,20.8965 71.1312,21.5695 C71.1312,22.2425 71.8052,22.9155 72.6132,22.9155 C73.4202,22.9155 74.0942,22.2425 74.0942,21.5695 C74.0942,20.7615 73.5552,20.2225 72.6132,20.2225 L72.6132,20.2225 Z M93.7532,32.4765 C92.1372,32.4765 91.3292,31.2645 91.3292,29.6485 C91.3292,28.3015 92.1372,26.8205 93.7532,26.8205 C95.3692,26.8205 96.1772,28.0325 96.1772,29.6485 C96.1772,31.2645 95.3692,32.4765 93.7532,32.4765 L93.7532,32.4765 Z M93.7532,24.6665 C92.4062,24.6665 91.1942,25.2045 90.2522,26.0125 C89.3092,26.9555 88.9052,28.1675 88.9052,29.6485 C88.9052,31.1295 89.3092,32.4765 90.2522,33.2835 C91.1942,34.2265 92.2722,34.6305 93.7532,34.6305 C95.0992,34.6305 96.3112,34.0915 97.2542,33.2835 C98.1962,32.3415 98.6002,31.1295 98.6002,29.6485 C98.6002,28.1675 98.1962,26.8205 97.2542,26.0125 C96.1772,25.2045 95.0992,24.6665 93.7532,24.6665 L93.7532,24.6665 Z M107.8912,25.7435 C107.3532,24.9355 106.5452,24.6665 105.1982,24.6665 C103.7172,24.6665 102.7742,25.4745 102.3702,26.2825 L102.3702,25.2045 C102.3702,25.0705 102.2362,25.0705 102.2362,25.0705 L100.2162,25.0705 C100.0812,25.0705 100.0812,25.0705 100.0812,25.2045 L100.0812,34.4955 C100.0812,34.6305 100.2162,34.6305 100.2162,34.6305 L102.3702,34.6305 C102.5052,34.6305 102.5052,34.4955 102.5052,34.4955 L102.5052,29.3795 C102.5052,28.1675 103.1782,27.0905 104.6602,27.0905 C105.4672,27.0905 105.7372,27.4945 106.0062,28.1675 C106.2752,28.7055 106.2752,29.3795 106.2752,29.9175 L106.2752,34.2265 L106.2752,34.6305 C106.2752,34.7655 106.4102,34.7655 106.4102,34.7655 L108.5642,34.7655 C108.6992,34.7655 108.6992,34.6305 108.6992,34.6305 L108.6992,28.8405 C108.8342,27.4945 108.5642,26.5515 107.8912,25.7435 L107.8912,25.7435 Z M85.8082,20.2225 C84.8662,20.2225 84.3272,20.8965 84.3272,21.5695 C84.3272,22.2425 85.0002,22.9155 85.8082,22.9155 C86.6162,22.9155 87.2902,22.2425 87.2902,21.5695 C87.2902,20.7615 86.7512,20.2225 85.8082,20.2225 L85.8082,20.2225 Z M32.7562,30.5905 C32.7562,31.8025 31.9482,32.6105 30.4672,32.7455 C30.0632,32.7455 29.7932,32.6105 29.5242,32.4765 C29.2552,32.2065 28.9862,31.9375 28.9862,31.5335 C28.9862,30.8605 29.3892,30.4565 30.0632,30.4565 C30.8712,30.1865 31.5442,30.1865 32.2172,30.1865 L32.7562,30.1865 L32.7562,30.5905 Z M31.0052,24.6665 C29.5242,24.6665 28.1782,25.0705 27.2352,26.1475 L27.2352,26.2825 L28.3122,27.3595 L28.5822,27.3595 C29.2552,26.8205 29.7932,26.4165 30.8712,26.4165 C32.0832,26.4165 33.0252,27.0905 33.0252,28.0325 L33.0252,28.3015 L32.4862,28.3015 C31.4092,28.3015 29.7932,28.3015 28.5822,28.8405 C27.5042,29.2445 26.6962,30.0525 26.6962,31.6685 C26.6962,33.5535 28.1782,34.6305 30.0632,34.6305 C31.2752,34.6305 32.3522,34.0915 33.1602,33.1495 L33.1602,33.6875 C33.1602,34.0915 33.4292,34.4955 33.9682,34.4955 L35.1792,34.4955 C35.3142,34.4955 35.3142,34.3615 35.3142,34.3615 L35.3142,33.9575 L35.3142,28.9755 C35.3142,28.3015 35.3142,27.2245 34.7762,26.2825 C33.9682,25.4745 33.0252,24.6665 31.0052,24.6665 L31.0052,24.6665 Z M92.9452,23.1855 L94.5612,23.1855 C94.6952,23.1855 94.8302,23.1855 94.8302,23.0505 L97.5232,20.3575 L97.5232,20.2225 L94.9652,20.2225 L94.8302,20.2225 C94.8302,20.2225 94.8302,20.3575 94.6952,20.3575 L92.9452,23.1855 C92.8102,23.0505 92.8102,23.1855 92.9452,23.1855 L92.9452,23.1855 Z M73.8242,24.9355 L71.6702,24.9355 C71.5352,24.9355 71.5352,25.0705 71.5352,25.0705 L71.5352,34.3615 C71.5352,34.4955 71.6702,34.4955 71.6702,34.4955 L73.8242,34.4955 C73.9592,34.4955 73.9592,34.3615 73.9592,34.3615 L73.8242,24.9355 Z M58.0702,28.7055 L58.0702,28.7055 L53.7612,28.7055 C54.0312,27.4945 54.8392,26.5515 55.9162,26.5515 C57.3972,26.5515 58.0702,27.3595 58.0702,28.7055 C58.0702,28.5715 58.0702,28.7055 58.0702,28.7055 L58.0702,28.7055 Z M56.3202,24.6665 C54.9732,24.6665 53.4922,25.2045 52.6842,26.0125 C51.7422,26.9555 51.3382,28.1675 51.3382,29.6485 C51.3382,31.1295 51.7422,32.4765 52.6842,33.2835 C53.6272,34.2265 54.9732,34.6305 56.3202,34.6305 C57.8012,34.6305 59.0132,34.0915 60.0902,32.8805 L60.0902,32.6105 L58.6092,31.5335 L58.3402,31.5335 C57.8012,32.2065 57.2622,32.6105 56.0502,32.6105 C54.8392,32.6105 53.8962,31.8025 53.7612,30.4565 L60.0902,30.4565 L60.4942,30.4565 C60.6292,30.4565 60.6292,30.3215 60.6292,30.3215 L60.6292,29.7835 L60.6292,29.5135 C60.6292,27.8975 60.0902,26.5515 59.4172,25.7435 C58.6092,25.2045 57.6662,24.6665 56.3202,24.6665 L56.3202,24.6665 Z" id="Fill-83" fill="#F6F6F3"></path>
                        </g>
                    </g>
                </g>
            </g>
        </g>
    </g>
</svg>