<?xml version="1.0" encoding="UTF-8"?>
<svg width="115px" height="69px" viewBox="0 0 115 69" version="1.1" xmlns="http://www.w3.org/2000/svg" xmlns:xlink="http://www.w3.org/1999/xlink">
    <!-- Generator: Sketch 46.2 (44496) - http://www.bohemiancoding.com/sketch -->
    <title>Fox</title>
    <desc>Created with Sketch.</desc>
    <defs></defs>
    <g id="v5" stroke="none" stroke-width="1" fill="none" fill-rule="evenodd">
        <g id="SERVICES-v5" transform="translate(-606.000000, -1880.000000)">
            <g id="CLIENTS" transform="translate(268.000000, 1667.000000)">
                <g id="logos" transform="translate(0.000000, 122.000000)">
                    <g id="Group-194" transform="translate(0.000000, 0.010000)">
                        <g id="Fox" transform="translate(338.000000, 91.000000)">
                            <path d="M57.502,0.3777 C88.96,0.3777 114.462,15.6517 114.462,34.4937 C114.462,53.3357 88.96,68.6107 57.502,68.6107 C26.044,68.6107 0.542,53.3357 0.542,34.4937 C0.542,15.6517 26.044,0.3777 57.502,0.3777" id="Fill-66" fill="#FFFFFF"></path>
                            <path d="M57.502,0.3777 C26.044,0.3777 0.542,15.6467 0.542,34.4937 C0.542,53.3407 26.044,68.6107 57.502,68.6107 C88.96,68.6107 114.462,53.3207 114.462,34.4937 C114.462,15.6667 88.96,0.3777 57.502,0.3777" id="Fill-67" fill="#002D56"></path>
                            <path d="M57.482,4.6747 C44.711,4.6747 33.299,8.8117 25.684,15.3277 C20.948,20.5947 18.297,27.4107 18.229,34.4937 C18.297,41.5777 20.948,48.3927 25.684,53.6607 C33.299,60.1557 44.711,64.3337 57.482,64.3337 C70.253,64.3337 81.665,60.1957 89.28,53.6807 C94.016,48.4127 96.667,41.5977 96.735,34.5137 C96.667,27.4307 94.016,20.6147 89.28,15.3477 C81.645,8.8117 70.233,4.6747 57.482,4.6747" id="Fill-68" fill="#FFFFFF"></path>
                            <path d="M87.721,47.1852 L82.485,47.1852 L82.325,47.0452 L82.325,45.6262 L82.545,45.4062 L88.081,45.4062 L88.62,44.8472 L88.62,43.3682 L80.986,43.3682 L79.627,44.7072 L79.627,48.0442 L80.806,49.2242 L86.062,49.2242 L86.202,49.3632 L86.202,50.8222 L86.002,51.0422 L80.326,51.0422 L79.627,51.7222 L79.627,53.0812 L87.621,53.0812 L88.96,51.7422 L88.96,48.3442 L87.721,47.1852 Z M69.913,43.3682 L69.913,45.6262 L73.011,45.6262 L73.011,53.0812 L75.689,53.0812 L75.689,45.6262 L78.787,45.6262 L78.787,43.3682 L69.913,43.3682 Z M66.336,47.1052 L65.956,47.4852 L62.359,47.4852 L62.359,45.3662 L65.956,45.3662 L66.336,45.7462 L66.336,47.1052 Z M67.735,49.1042 L69.014,47.8052 L69.014,44.7072 L67.675,43.3682 L59.681,43.3682 L59.681,53.0812 L62.359,53.0812 L62.359,49.5632 L65.177,49.5632 L66.496,53.0812 L69.474,53.0812 L67.735,49.1042 Z M55.244,50.3432 L54.704,50.8822 L51.586,50.8822 L51.047,50.3432 L51.047,46.0262 L51.586,45.4662 L54.704,45.4662 L55.244,46.0262 L55.244,50.3432 Z M56.503,43.3682 L49.867,43.3682 L48.368,44.8672 L48.368,51.6022 L49.867,53.0812 L56.503,53.0812 L58.002,51.6022 L58.002,44.8672 L56.503,43.3682 Z M44.291,47.6852 L43.892,48.0642 L40.234,48.0642 L40.234,45.4262 L43.892,45.4262 L44.291,45.8262 L44.291,47.6852 Z M45.47,43.3682 L37.476,43.3682 L37.476,53.0812 L40.154,53.0812 L40.154,49.9632 L45.39,49.9632 L46.889,48.4642 L46.889,44.8672 L45.47,43.3682 Z M34.718,47.1852 L29.481,47.1852 L29.322,47.0452 L29.322,45.6262 L29.541,45.4062 L35.078,45.4062 L35.617,44.8472 L35.617,43.3682 L28.003,43.3682 L26.643,44.7072 L26.643,48.0442 L27.823,49.2242 L33.079,49.2242 L33.219,49.3632 L33.219,50.8222 L33.019,51.0422 L27.343,51.0422 L26.643,51.7222 L26.643,53.0812 L34.638,53.0812 L35.977,51.7422 L35.977,48.3442 L34.718,47.1852 Z M58.242,33.5942 C58.22,34.8012 57.23,35.7642 56.023,35.7532 C54.831,35.7422 53.874,34.7672 53.885,33.5752 L53.885,33.5742 L53.885,23.1622 C53.861,21.9552 54.798,20.9482 56.003,20.8832 C57.229,20.9362 58.201,21.9352 58.222,23.1622 L58.242,33.5942 Z M55.983,15.6072 C48.899,15.4302 43.013,21.0302 42.836,28.1152 C42.66,35.1992 48.26,41.0852 55.344,41.2612 C62.428,41.4382 68.314,35.8382 68.491,28.7542 C68.494,28.6222 68.495,28.4902 68.494,28.3582 C68.528,21.3952 62.945,15.7062 55.983,15.6072 L55.983,15.6072 Z M88.66,41.5492 L80.446,41.5492 L76.589,34.8942 L72.771,41.5692 L64.777,41.5692 L72.572,27.9582 L65.217,15.2472 L73.451,15.2472 L76.689,20.9232 L79.986,15.2472 L87.941,15.2472 L80.706,27.8582 L88.66,41.5492 Z M34.738,25.8602 L41.973,25.8602 L41.973,33.0552 L34.678,33.0552 L34.678,41.5892 L27.263,41.5892 L27.263,15.2272 L43.132,15.2272 L43.632,22.4222 L34.738,22.4222 L34.738,25.8602 Z" id="Fill-69" fill="#002D56"></path>
                            <path d="M58.7611,1.7968 L58.7611,3.6158 C81.7051,4.0948 100.0921,17.7258 100.0921,34.4738 C100.0921,51.2228 81.7051,64.8528 58.7611,65.3328 L58.7611,67.1518 C88.7401,66.7518 112.8231,52.2818 112.8231,34.4738 C112.8231,16.6668 88.7401,2.1968 58.7611,1.7968 L58.7611,1.7968 Z M56.2431,65.3528 C33.2991,64.8728 14.9121,51.2428 14.9121,34.4938 C14.9121,17.7458 33.2991,4.1148 56.2431,3.6358 L56.2431,1.7968 C26.2641,2.1968 2.1801,16.6668 2.1801,34.4938 C2.1801,52.3218 26.2641,66.7718 56.2431,67.1718 L56.2431,65.3528 Z" id="Fill-70" fill="#FFFFFF"></path>
                            <path d="M101.9711,35.2135 C101.6311,46.3455 93.6371,55.9395 81.6251,61.5555 L81.8651,62.4345 C98.7731,57.3385 110.4651,47.0855 110.9051,35.2135 L101.9711,35.2135 Z M101.9311,32.9955 L110.8651,32.9955 C109.9451,21.4435 98.4731,11.5295 81.8651,6.5335 L81.6251,7.4125 C93.3371,12.9085 101.2521,22.3625 101.9311,32.9955 L101.9311,32.9955 Z M13.0331,35.2135 L4.0991,35.2135 C4.5391,47.0655 16.2111,57.3185 33.0791,62.3345 L33.3191,61.4355 C21.3471,55.8995 13.3731,46.2455 13.0331,35.2135 L13.0331,35.2135 Z M13.0731,32.9955 C13.7521,22.3625 21.6271,12.9295 33.3191,7.4525 L33.0791,6.5535 C16.5301,11.5495 5.0781,21.4635 4.1591,32.9955 L13.0731,32.9955 Z" id="Fill-71" fill="#002D56"></path>
                            <path d="M89.2599,53.5607 C81.6649,60.1557 70.2329,64.3337 57.4819,64.3337 C44.7309,64.3337 33.2989,60.1957 25.6839,53.6807 C20.9479,48.4127 18.2969,41.5977 18.2289,34.5137 C18.2969,27.4307 20.9479,20.6147 25.6839,15.3477 C33.2989,8.8317 44.7109,4.6947 57.4819,4.6947 C70.2529,4.6947 81.6649,8.8317 89.2799,15.3477 C94.0169,20.6147 96.6669,27.4307 96.7349,34.5137 C96.6619,41.5907 94.0119,48.3977 89.2799,53.6607 L89.2599,53.5607 Z M57.5019,3.5957 C33.9779,3.5957 14.9119,17.4257 14.9119,34.4937 C14.9119,51.5617 33.9779,65.3727 57.5019,65.3727 C81.0259,65.3727 100.0919,51.5417 100.0919,34.4937 C100.0919,17.4457 81.0259,3.5957 57.5019,3.5957 L57.5019,3.5957 Z" id="Fill-72" fill="#002D56"></path>
                        </g>
                    </g>
                </g>
            </g>
        </g>
    </g>
</svg>