<?xml version="1.0" encoding="UTF-8"?>
<svg width="185px" height="21px" viewBox="0 0 185 21" version="1.1" xmlns="http://www.w3.org/2000/svg" xmlns:xlink="http://www.w3.org/1999/xlink">
    <!-- Generator: Sketch 46.2 (44496) - http://www.bohemiancoding.com/sketch -->
    <title>Group 12</title>
    <desc>Created with Sketch.</desc>
    <defs></defs>
    <g id="v5" stroke="none" stroke-width="1" fill="none" fill-rule="evenodd">
        <g id="SERVICES-v5" transform="translate(-841.000000, -2714.000000)" fill="#006997">
            <g id="CLIENTS" transform="translate(268.000000, 1667.000000)">
                <g id="logos" transform="translate(0.000000, 122.000000)">
                    <g id="Group-194" transform="translate(0.000000, 0.010000)">
                        <g id="Group-12" transform="translate(573.000000, 925.000000)">
                            <path d="M0.966,19.7727 L0.966,18.4967 L3.953,18.4967 L3.953,2.5017 L0.966,2.5017 L0.966,1.2297 L12.9,1.2297 L12.9,2.5017 L9.61,2.5017 L9.61,18.4967 L10.316,18.4967 C14.235,18.4967 17.362,17.4037 17.362,13.1887 L17.362,12.3897 L18.838,12.3897 L18.838,19.7727 L0.966,19.7727 Z" id="Fill-168"></path>
                            <path d="M26.2479,13.3413 L29.3689,7.0503 L29.6219,7.0503 L32.7479,13.3413 L26.2479,13.3413 Z M41.7789,18.4973 L32.9069,1.2583 L30.6679,1.2583 L23.0309,16.9273 C22.5909,17.7983 21.9059,18.4973 20.4829,18.4973 L19.8779,18.4973 L19.8779,19.7723 L27.0419,19.7723 L27.0419,18.4973 L25.7479,18.4973 C24.9919,18.4973 24.3409,18.4023 24.3409,17.5343 C24.3409,17.2393 24.4949,16.9543 24.6049,16.7423 L25.6259,14.6073 L33.3739,14.6073 L35.3149,18.4973 L32.4529,18.4973 L32.4529,19.7723 L44.2619,19.7723 L44.2619,18.4973 L41.7789,18.4973 Z" id="Fill-169"></path>
                            <path d="M55.6461,19.7727 L55.6461,18.4967 L56.1431,18.4967 L56.5151,18.4967 C57.5481,18.4967 58.5251,18.2087 58.5251,16.6047 L58.5251,4.5747 C58.5251,3.3167 57.3841,2.5017 56.2591,2.5017 L55.7541,2.5017 L55.7541,1.2297 L64.3721,1.2297 L73.8731,12.1837 L73.9461,12.1837 L73.9461,3.9997 C73.9461,2.9887 73.1381,2.5017 71.6541,2.5017 L70.7611,2.5017 L70.7611,1.2297 L78.1311,1.2297 L78.1311,2.5017 L77.4031,2.5017 C75.8811,2.5017 75.2561,3.2557 75.2561,3.9177 L75.2561,19.7727 L72.7951,19.7727 L59.8861,4.8387 L59.8191,4.8387 L59.8191,16.7417 C59.8191,18.2437 60.5591,18.4967 62.4251,18.4967 L63.0031,18.4967 L63.0031,19.7727 L55.6461,19.7727 Z" id="Fill-170"></path>
                            <path d="M84.1533,13.3413 L87.2633,7.0503 L87.5273,7.0503 L90.6443,13.3413 L84.1533,13.3413 Z M99.6703,18.4973 L90.8113,1.2583 L88.5693,1.2583 L80.9233,16.9273 C80.4913,17.7983 79.7953,18.4973 78.3733,18.4973 L77.7663,18.4973 L77.7663,19.7723 L84.9503,19.7723 L84.9503,18.4973 L83.6303,18.4973 C82.8883,18.4973 82.2323,18.4023 82.2323,17.5343 C82.2323,17.2393 82.3933,16.9543 82.4963,16.7423 L83.5213,14.6073 L91.2823,14.6073 L93.2103,18.4973 L90.3503,18.4973 L90.3503,19.7723 L102.1483,19.7723 L102.1483,18.4973 L99.6703,18.4973 Z" id="Fill-171"></path>
                            <path d="M120.6049,1.2582 L120.6049,7.8352 L119.1379,7.8352 C118.5929,5.1572 117.1079,2.0212 113.5119,2.0212 C109.0119,2.0212 108.0809,5.8442 108.0809,10.5292 C108.0809,15.0292 108.9179,18.8972 113.4009,18.8972 C116.8999,18.8972 119.2669,16.4842 119.2669,13.1892 L120.8069,13.1892 C120.8069,17.7152 117.4449,20.2422 113.1009,20.2422 C107.5299,20.2422 101.8729,15.9342 101.8729,10.5292 C101.8729,5.2062 107.3499,0.7582 112.6449,0.7582 C116.5899,0.7582 117.9729,2.3232 118.7009,2.3232 C119.4399,2.3232 119.6039,1.8192 119.6329,1.2582 L120.6049,1.2582 Z" id="Fill-172"></path>
                            <polygon id="Fill-173" points="123.5782 19.7727 123.5782 18.4967 126.5632 18.4967 126.5632 2.5017 123.5782 2.5017 123.5782 1.2297 135.2172 1.2297 135.2172 2.5017 132.2132 2.5017 132.2132 18.4967 135.2172 18.4967 135.2172 19.7727"></polygon>
                            <path d="M148.7282,18.9811 C144.3752,18.9811 143.8082,14.7921 143.8082,10.5011 C143.8082,6.1861 144.3942,2.0211 148.7282,2.0211 C153.0932,2.0211 153.6512,6.1511 153.6512,10.5011 C153.6512,14.8191 153.0932,18.9811 148.7282,18.9811 M148.7022,0.7581 C143.2082,0.7581 137.6492,5.0251 137.6492,10.5011 C137.6492,15.9811 143.2082,20.2421 148.7022,20.2421 C154.1622,20.2421 159.8192,15.9811 159.8192,10.5011 C159.8192,5.0251 154.1622,0.7581 148.7022,0.7581" id="Fill-174"></path>
                            <path d="M161.562,19.7727 L161.562,18.4967 L162.067,18.4967 L162.433,18.4967 C163.464,18.4967 164.439,18.2087 164.439,16.6047 L164.439,4.5747 C164.439,3.3167 163.291,2.5017 162.162,2.5017 L161.656,2.5017 L161.656,1.2297 L170.274,1.2297 L179.771,12.1837 L179.856,12.1837 L179.856,3.9997 C179.856,2.9887 179.048,2.5017 177.573,2.5017 L176.666,2.5017 L176.666,1.2297 L184.042,1.2297 L184.042,2.5017 L183.312,2.5017 C181.797,2.5017 181.153,3.2557 181.153,3.9177 L181.153,19.7727 L178.692,19.7727 L165.781,4.8387 L165.719,4.8387 L165.719,16.7417 C165.719,18.2437 166.446,18.4967 168.326,18.4967 L168.905,18.4967 L168.905,19.7727 L161.562,19.7727 Z" id="Fill-175"></path>
                        </g>
                    </g>
                </g>
            </g>
        </g>
    </g>
</svg>