<?xml version="1.0" encoding="UTF-8"?>
<svg width="157px" height="39px" viewBox="0 0 157 39" version="1.1" xmlns="http://www.w3.org/2000/svg" xmlns:xlink="http://www.w3.org/1999/xlink">
    <!-- Generator: Sketch 46.2 (44496) - http://www.bohemiancoding.com/sketch -->
    <title>Group 18</title>
    <desc>Created with Sketch.</desc>
    <defs></defs>
    <g id="v5" stroke="none" stroke-width="1" fill="none" fill-rule="evenodd">
        <g id="SERVICES-v5" transform="translate(-315.000000, -2434.000000)">
            <g id="CLIENTS" transform="translate(268.000000, 1667.000000)">
                <g id="logos" transform="translate(0.000000, 122.000000)">
                    <g id="Group-194" transform="translate(0.000000, 0.010000)">
                        <g id="Group-18" transform="translate(47.000000, 645.000000)">
                            <path d="M54.9329,18.8256 C54.9329,9.0686 42.8079,1.1156 27.8559,1.1156 C12.9029,1.1156 0.7859,9.0686 0.7859,18.8256 L0.7859,19.8646 C0.7779,30.1946 11.3749,38.5986 27.8559,38.5986 C44.3359,38.5986 54.9329,30.1946 54.9329,19.8646 L54.9329,18.8256 Z" id="Fill-113" fill="#002E6D"></path>
                            <path d="M27.8631,2.1619 C42.2391,2.1619 53.8941,9.6189 53.8941,18.8179 C53.8941,28.0169 42.2391,35.4739 27.8631,35.4739 C13.4871,35.4739 1.8321,28.0169 1.8321,18.8179 C1.8321,9.6189 13.4871,2.1619 27.8631,2.1619" id="Fill-114" fill="#FFE900"></path>
                            <path d="M19.2219,13.569 C19.2219,13.569 18.9469,13.867 19.1149,14.081 C19.5279,14.608 20.7959,14.906 22.0789,14.616 C23.0739,14.22 23.9859,13.642 24.7689,12.912 C25.6689,12.089 26.7019,11.425 27.8249,10.948 C28.5449,10.684 29.3309,10.662 30.0639,10.887 C30.8069,11.164 31.4979,11.567 32.1039,12.079 C33.9069,13.386 41.0429,19.674 42.3109,20.759 C46.0019,19.161 49.8409,17.927 53.7719,17.076 C53.2519,13.867 51.2959,10.964 48.3389,8.526 C44.2139,10.261 39.1709,11.162 34.2429,8.756 C32.5609,7.993 30.7409,7.579 28.8949,7.541 C24.9829,7.632 23.2869,9.329 21.4909,11.116 L19.2219,13.569 Z" id="Fill-115" fill="#FFFFFF"></path>
                            <path d="M42.0207,21.4386 C41.9367,21.3626 33.6167,14.0656 31.7067,12.6446 C31.0497,12.0586 30.2377,11.6736 29.3687,11.5366 C28.9927,11.5066 28.6157,11.5426 28.2527,11.6436 C27.1337,12.0636 26.0997,12.6796 25.1967,13.4616 C24.3387,14.2716 23.3247,14.8976 22.2167,15.3036 C21.1007,15.5336 19.9397,15.3606 18.9387,14.8146 C18.7057,14.6706 18.5177,14.4646 18.3967,14.2186 C18.2597,13.8306 18.3707,13.3986 18.6797,13.1256 L20.9717,10.6356 L21.7817,9.8706 C21.0727,9.9786 20.3737,10.1366 19.6877,10.3446 C18.8977,10.6076 18.0747,10.7626 17.2427,10.8036 C16.4037,10.7186 15.5697,10.5886 14.7447,10.4136 C12.4607,9.8256 10.2377,9.0216 8.1047,8.0146 C4.8347,10.4516 2.6497,13.4926 1.9927,16.8466 C2.4587,16.9686 3.2227,17.1986 3.5207,17.2666 C10.9247,18.9096 13.2317,20.6056 13.6447,20.9646 C14.5537,19.9606 16.1047,19.8836 17.1087,20.7926 C17.2417,20.9126 17.3607,21.0476 17.4647,21.1936 C17.9647,20.7916 18.5877,20.5736 19.2297,20.5756 C19.5907,20.5776 19.9497,20.6396 20.2917,20.7586 C20.9587,20.9716 21.5007,21.4616 21.7817,22.1036 C22.1057,21.9556 22.4567,21.8806 22.8127,21.8816 C23.2377,21.8886 23.6557,21.9816 24.0427,22.1566 C25.1507,22.6776 25.7527,23.8936 25.4947,25.0906 L25.7927,25.0906 C27.4127,25.0916 28.7257,26.4056 28.7257,28.0256 C28.7257,28.5106 28.6047,28.9876 28.3747,29.4156 C29.1427,29.8826 30.0287,30.1196 30.9267,30.0956 C31.3787,30.0946 31.8107,29.9056 32.1187,29.5756 C32.1947,29.4686 32.2717,29.3536 32.1947,29.2626 L30.1097,26.9706 C30.1097,26.9706 29.7657,26.6416 29.8797,26.5196 C29.9947,26.3976 30.2087,26.5726 30.3617,26.7026 C31.4237,27.5886 32.7227,28.9336 32.7227,28.9336 C32.7227,28.9336 32.8297,29.1176 33.3107,29.2016 C33.8897,29.3026 34.4857,29.1646 34.9607,28.8196 C35.0927,28.7066 35.2137,28.5816 35.3197,28.4446 C35.6217,28.0276 35.5967,27.4586 35.2587,27.0696 L32.8677,24.2656 C32.8677,24.2656 32.5157,23.9446 32.6387,23.8146 C32.7607,23.6846 32.9667,23.8756 33.1197,23.9986 C33.8837,24.6476 34.9837,25.7406 36.0307,26.7636 C36.7457,27.2466 37.6897,27.2126 38.3687,26.6796 C38.9217,26.3746 39.2557,25.7836 39.2317,25.1516 C39.1887,24.7696 39.0187,24.4116 38.7507,24.1356 L35.3887,20.7816 C35.3887,20.7816 35.0377,20.4836 35.1597,20.3306 C35.2817,20.1776 35.4877,20.3846 35.6407,20.5146 C36.7027,21.4006 39.5757,24.0366 39.5757,24.0366 C40.2747,24.4986 41.1877,24.4806 41.8677,23.9906 C42.3027,23.7426 42.5877,23.2966 42.6317,22.7986 C42.6387,22.2776 42.4157,21.7796 42.0207,21.4386 Z" id="Fill-116" fill="#FFFFFF"></path>
                            <path d="M25.8613,25.679 C25.4703,25.735 25.0843,25.822 24.7073,25.939 C24.6693,25.939 24.7073,25.702 24.7913,25.587 C24.8753,25.473 25.5553,23.417 23.8673,22.707 C23.1103,22.308 22.1813,22.447 21.5753,23.051 C21.5063,23.127 21.4753,23.119 21.4683,23.051 C21.4473,22.269 20.9313,21.587 20.1843,21.355 C19.1293,21.021 17.9803,21.418 17.3573,22.333 C17.2313,21.34 16.3243,20.639 15.3323,20.765 C14.3403,20.892 13.6383,21.798 13.7653,22.79 C13.8913,23.782 14.7983,24.484 15.7903,24.358 C16.1793,24.308 16.5413,24.134 16.8223,23.861 L16.8223,23.922 C16.5763,25.089 17.2283,26.26 18.3513,26.665 C18.9263,26.863 19.5633,26.753 20.0393,26.374 C20.1843,26.275 20.2073,26.313 20.1843,26.451 C20.0983,27.292 20.6413,28.069 21.4603,28.277 C22.1003,28.589 22.8693,28.446 23.3553,27.925 C23.5153,27.78 23.5613,27.803 23.5693,28.032 C23.6243,29.297 24.6933,30.278 25.9583,30.223 C27.2233,30.168 28.2043,29.098 28.1493,27.834 C28.0963,26.608 27.0873,25.642 25.8613,25.641 L25.8613,25.679 Z" id="Fill-117" fill="#FFFFFF"></path>
                            <path d="M89.895,35.482 L93.028,35.482 L93.028,23.265 L89.895,23.265 L89.895,35.482 Z M89.895,21.835 L93.028,21.835 L93.028,18.978 L89.895,18.978 L89.895,21.835 Z M125.538,25.885 C125.054,25.415 124.392,25.176 123.719,25.228 C123.261,25.211 122.806,25.303 122.39,25.496 C122.062,25.656 121.772,25.885 121.542,26.168 C121.34,26.419 121.189,26.707 121.098,27.016 C121.022,27.265 120.97,27.521 120.946,27.78 L126.37,27.78 C126.274,27.081 125.985,26.423 125.538,25.878 L125.538,25.885 Z M121.763,32.273 C122.889,33.152 124.442,33.241 125.66,32.494 C126.071,32.25 126.387,31.873 126.554,31.424 L129.488,31.424 C129.155,32.687 128.39,33.793 127.325,34.549 C126.268,35.199 125.044,35.526 123.803,35.489 C122.921,35.502 122.045,35.346 121.221,35.031 C120.483,34.745 119.817,34.299 119.272,33.724 C118.731,33.147 118.313,32.466 118.042,31.722 C117.745,30.894 117.597,30.02 117.607,29.14 C117.598,28.275 117.749,27.415 118.05,26.603 C118.604,25.073 119.769,23.842 121.267,23.203 C122.066,22.865 122.927,22.696 123.796,22.707 C124.732,22.683 125.66,22.888 126.5,23.303 C127.249,23.685 127.898,24.237 128.395,24.915 C128.895,25.603 129.259,26.381 129.465,27.207 C129.687,28.09 129.766,29.003 129.702,29.912 L120.946,29.912 C120.906,30.774 121.198,31.619 121.763,32.273 Z M109.607,29.018 C109.699,24.991 111.693,22.745 115.865,22.745 L116.812,22.745 L116.812,26 L115.353,26 C113.611,26 112.786,27.123 112.786,28.941 L112.786,35.42 L109.607,35.42 L109.607,29.018 Z M146.992,12.186 C147.078,12.632 147.244,13.059 147.481,13.447 C147.707,13.814 148.023,14.119 148.397,14.333 C148.834,14.567 149.324,14.68 149.819,14.662 C150.318,14.68 150.813,14.567 151.255,14.333 C151.633,14.121 151.951,13.816 152.179,13.447 C152.416,13.059 152.582,12.632 152.668,12.186 C152.765,11.713 152.814,11.232 152.814,10.75 C152.813,10.265 152.764,9.781 152.668,9.306 C152.584,8.859 152.419,8.432 152.179,8.045 C151.947,7.68 151.63,7.376 151.255,7.159 C150.816,6.917 150.32,6.798 149.819,6.815 C148.875,6.765 147.979,7.234 147.481,8.037 C147.241,8.424 147.076,8.851 146.992,9.298 C146.896,9.773 146.847,10.257 146.846,10.742 C146.849,11.227 146.9,11.711 146.999,12.186 L146.992,12.186 Z M143.936,8.083 C144.494,6.537 145.704,5.313 147.244,4.737 C148.077,4.416 148.964,4.258 149.857,4.271 C150.752,4.259 151.641,4.418 152.477,4.737 C154.011,5.316 155.212,6.54 155.763,8.083 C156.073,8.938 156.225,9.841 156.214,10.75 C156.227,11.656 156.074,12.557 155.763,13.409 C155.483,14.169 155.045,14.861 154.479,15.441 C153.913,16.01 153.23,16.451 152.477,16.732 C151.639,17.042 150.751,17.195 149.857,17.183 C148.965,17.196 148.079,17.043 147.244,16.732 C146.494,16.449 145.814,16.009 145.25,15.441 C144.67,14.857 144.222,14.157 143.936,13.386 C143.624,12.534 143.472,11.633 143.485,10.727 C143.476,9.826 143.628,8.93 143.936,8.083 Z M110.371,6.807 C109.894,6.79 109.423,6.918 109.019,7.174 C108.656,7.419 108.354,7.743 108.133,8.121 C107.899,8.519 107.733,8.953 107.644,9.405 C107.549,9.862 107.5,10.328 107.499,10.796 C107.501,11.25 107.549,11.703 107.644,12.148 C107.732,12.585 107.889,13.006 108.11,13.393 C108.32,13.764 108.616,14.078 108.973,14.31 C109.371,14.558 109.834,14.683 110.303,14.669 C110.992,14.713 111.668,14.467 112.167,13.989 C112.626,13.486 112.912,12.849 112.984,12.171 L116.239,12.171 C116.117,13.613 115.437,14.95 114.344,15.899 C113.203,16.799 111.778,17.262 110.326,17.206 C109.46,17.215 108.602,17.057 107.797,16.74 C107.061,16.452 106.394,16.012 105.841,15.449 C105.292,14.88 104.863,14.207 104.58,13.47 C104.272,12.662 104.119,11.805 104.129,10.941 C104.121,10.043 104.26,9.15 104.542,8.297 C104.799,7.517 105.216,6.799 105.764,6.188 C106.312,5.587 106.985,5.112 107.736,4.798 C108.579,4.453 109.484,4.284 110.394,4.301 C111.104,4.298 111.811,4.393 112.495,4.584 C113.143,4.762 113.754,5.054 114.299,5.447 C115.431,6.26 116.12,7.554 116.163,8.947 L112.862,8.947 C112.783,7.683 111.694,6.723 110.431,6.803 C110.411,6.804 110.391,6.806 110.371,6.807 Z M90.109,7.51 C89.626,7.04 88.963,6.801 88.291,6.853 C87.833,6.836 87.377,6.928 86.961,7.121 C86.633,7.281 86.344,7.51 86.113,7.793 C85.911,8.044 85.761,8.332 85.67,8.641 C85.593,8.89 85.542,9.146 85.517,9.405 L90.942,9.405 C90.844,8.709 90.556,8.053 90.109,7.51 L90.109,7.51 Z M86.335,13.898 C87.46,14.777 89.014,14.866 90.231,14.119 C90.643,13.875 90.958,13.498 91.125,13.049 L94.059,13.049 C93.726,14.312 92.961,15.418 91.897,16.174 C90.851,16.817 89.641,17.144 88.413,17.114 C87.531,17.127 86.654,16.971 85.831,16.656 C85.074,16.379 84.39,15.935 83.829,15.357 C83.286,14.775 82.868,14.089 82.599,13.34 C82.301,12.512 82.153,11.637 82.163,10.757 C82.155,9.892 82.305,9.032 82.606,8.221 C83.168,6.694 84.339,5.468 85.838,4.836 C86.638,4.498 87.499,4.329 88.367,4.339 C89.304,4.316 90.232,4.52 91.072,4.935 C91.827,5.303 92.487,5.842 92.997,6.509 C93.498,7.198 93.861,7.976 94.067,8.801 C94.289,9.685 94.369,10.598 94.304,11.506 L85.51,11.506 C85.464,12.38 85.76,13.238 86.335,13.898 Z M101.875,32.815 C100.087,32.815 99.239,31.547 99.262,28.995 C99.354,26.588 100.225,25.412 101.929,25.412 C103.633,25.412 104.496,26.588 104.565,28.995 C104.557,31.547 103.694,32.823 101.868,32.823 L101.875,32.815 Z M102.792,22.638 C101.345,22.573 99.982,23.318 99.255,24.571 L99.255,18.978 L98.903,18.978 C97.764,18.929 96.691,19.518 96.122,20.506 L96.122,29.896 C96.122,33.64 98.078,35.504 101.967,35.482 C105.856,35.459 107.766,33.312 107.766,29.163 C107.766,25.014 106.116,22.76 102.792,22.638 Z M85.716,18.978 L86.533,18.978 L86.533,35.482 L83.401,35.482 L83.401,21.026 C83.67,19.928 84.593,19.111 85.716,18.978 L85.716,18.978 Z M133.117,10.757 C133.117,13.279 133.942,14.578 135.73,14.578 C137.518,14.578 138.419,13.309 138.419,10.757 C138.35,8.351 137.479,7.174 135.783,7.174 C134.087,7.174 133.208,8.358 133.109,10.757 L133.117,10.757 Z M141.521,0.397 L141.521,11.636 C141.521,15.38 139.565,17.244 135.676,17.221 C131.787,17.198 129.877,15.051 129.877,10.902 C129.877,6.754 131.528,4.492 134.851,4.378 C136.304,4.313 137.674,5.057 138.412,6.311 L138.412,1.986 C139.163,1.024 140.301,0.442 141.521,0.397 Z M125.041,11.804 L125.041,10.788 C124.229,11.072 123.393,11.279 122.542,11.407 C121.297,11.644 120.655,12.232 120.655,13.149 C120.615,13.92 121.207,14.578 121.978,14.618 C122.065,14.623 122.151,14.62 122.237,14.608 C123.653,14.74 124.908,13.7 125.04,12.284 C125.055,12.127 125.055,11.969 125.041,11.812 L125.041,11.804 Z M120.862,8.282 L117.943,8.282 C118.058,5.875 119.265,4.271 122.825,4.271 C126.263,4.271 128.013,5.401 128.082,7.709 L128.082,11.949 C128.082,15.387 126.011,16.923 122.642,17.16 C119.647,17.397 117.576,16.006 117.576,13.248 C117.645,10.253 119.815,9.428 122.97,9.145 C124.315,8.977 124.995,8.58 124.995,7.9 C124.995,7.22 124.231,6.853 122.97,6.838 C122.003,6.716 121.098,7.336 120.862,8.282 L120.862,8.282 Z M96.114,10.643 C96.206,6.616 98.2,4.37 102.372,4.37 L103.319,4.37 L103.319,7.625 L101.86,7.625 C100.118,7.625 99.293,8.748 99.293,10.566 L99.293,17.045 L96.114,17.045 L96.114,10.643 Z M65.828,9.061 L65.828,17.03 L62.65,17.03 L62.65,9.703 C62.65,6.143 64.438,4.355 67.998,4.355 C69.323,4.275 70.635,4.65 71.719,5.417 C72.811,4.688 74.114,4.339 75.424,4.423 C78.985,4.423 80.773,6.188 80.727,9.772 L80.727,17.099 L79.099,17.099 C78.06,17.03 77.571,16.533 77.571,15.571 L77.571,9.115 C77.503,7.816 76.807,7.182 75.401,7.182 C73.996,7.182 73.3,7.816 73.277,9.115 L73.277,17.03 L70.122,17.03 L70.122,9.061 C70.053,7.762 69.358,7.128 67.952,7.128 C66.546,7.128 65.851,7.77 65.828,9.061 Z M25.861,30.087 C24.724,30.096 23.786,29.199 23.745,28.063 C23.745,27.963 23.745,27.704 23.516,27.704 C23.415,27.715 23.322,27.764 23.256,27.841 C22.984,28.127 22.611,28.297 22.217,28.315 C21.98,28.312 21.747,28.263 21.529,28.17 C20.322,27.681 20.307,26.848 20.353,26.519 C20.375,26.433 20.358,26.341 20.307,26.267 L20.23,26.198 L20.154,26.198 C20.076,26.203 20.001,26.232 19.94,26.283 C19.646,26.509 19.288,26.637 18.916,26.649 C18.72,26.646 18.526,26.608 18.343,26.535 C17.301,26.145 16.706,25.045 16.953,23.96 C16.969,23.884 16.943,23.805 16.884,23.754 L16.769,23.662 L16.662,23.761 C16.007,24.395 14.963,24.378 14.329,23.723 C13.695,23.068 13.712,22.023 14.367,21.389 C15.022,20.755 16.067,20.773 16.701,21.428 C16.948,21.683 17.106,22.011 17.151,22.363 L17.205,22.806 L17.449,22.432 C18.013,21.543 19.109,21.152 20.108,21.484 C20.781,21.696 21.249,22.308 21.277,23.012 C21.277,23.226 21.445,23.242 21.476,23.242 C21.551,23.237 21.62,23.201 21.667,23.142 C21.984,22.812 22.423,22.627 22.882,22.63 C23.196,22.636 23.505,22.706 23.791,22.837 C25.319,23.501 24.639,25.48 24.631,25.503 C24.494,25.832 24.494,25.977 24.631,26.061 L24.738,26.061 C24.841,26.05 24.941,26.024 25.036,25.985 C25.302,25.879 25.583,25.817 25.869,25.801 C27.04,25.731 28.046,26.623 28.117,27.794 C28.187,28.965 27.295,29.971 26.124,30.042 C26.039,30.047 25.954,30.047 25.869,30.042 L25.861,30.087 Z M42.342,20.56 C39.774,18.321 33.838,13.156 32.233,11.949 C31.611,11.424 30.903,11.011 30.14,10.727 C29.806,10.622 29.458,10.568 29.109,10.566 C28.664,10.573 28.224,10.647 27.802,10.788 C26.68,11.259 25.646,11.918 24.746,12.736 L24.692,12.774 C23.927,13.49 23.036,14.057 22.064,14.448 C21.746,14.519 21.42,14.555 21.094,14.555 C20.431,14.609 19.774,14.398 19.268,13.966 C19.222,13.905 19.268,13.813 19.359,13.676 L21.652,11.239 C23.424,9.466 25.09,7.801 28.94,7.709 L29.131,7.709 C30.87,7.781 32.58,8.186 34.166,8.901 C36.303,9.967 38.655,10.532 41.043,10.551 C43.668,10.507 46.253,9.889 48.614,8.74 C48.324,8.496 48.011,8.251 47.698,8.014 C45.611,8.977 43.348,9.497 41.05,9.543 C38.812,9.532 36.607,9.009 34.602,8.014 C32.869,7.224 30.997,6.783 29.093,6.716 L28.879,6.716 C26.586,6.682 24.357,7.473 22.599,8.947 C21.534,9.002 20.482,9.195 19.466,9.52 C18.752,9.757 18.01,9.898 17.258,9.94 L16.418,9.94 C13.707,9.462 11.049,8.725 8.48,7.739 C8.159,7.969 7.845,8.205 7.54,8.442 C10.308,9.575 13.197,10.388 16.15,10.864 C16.502,10.864 16.914,10.925 17.258,10.925 C18.106,10.883 18.944,10.726 19.749,10.459 C20.23,10.322 20.758,10.177 21.277,10.07 L20.834,10.513 L18.542,12.996 C18.185,13.313 18.061,13.817 18.229,14.264 C18.38,14.54 18.608,14.766 18.886,14.914 C19.629,15.333 20.47,15.547 21.323,15.533 C21.649,15.535 21.974,15.502 22.293,15.433 C23.43,15.026 24.47,14.388 25.349,13.561 C26.234,12.797 27.245,12.192 28.337,11.773 C28.609,11.701 28.888,11.662 29.17,11.659 L29.384,11.659 C30.235,11.791 31.031,12.165 31.676,12.736 C33.494,14.195 41.807,21.484 41.914,21.561 C42.247,21.878 42.428,22.323 42.41,22.783 C42.379,23.226 42.13,23.623 41.746,23.845 C41.422,24.062 41.043,24.182 40.653,24.189 C40.312,24.188 39.978,24.09 39.69,23.906 C39.69,23.906 36.802,21.263 35.748,20.384 C35.615,20.246 35.441,20.154 35.251,20.124 C35.166,20.12 35.083,20.157 35.03,20.224 C34.862,20.43 35.03,20.713 35.267,20.896 L38.605,24.25 C38.852,24.493 39.013,24.809 39.064,25.152 C39.086,25.719 38.792,26.251 38.3,26.535 C37.952,26.778 37.54,26.914 37.116,26.924 C36.776,26.924 36.443,26.823 36.161,26.634 L35.694,26.168 C34.816,25.305 33.914,24.418 33.257,23.876 C33.124,23.738 32.95,23.647 32.761,23.616 C32.679,23.614 32.601,23.648 32.547,23.708 C32.47,23.792 32.417,23.945 32.608,24.189 C32.659,24.257 32.715,24.321 32.776,24.38 L35.183,27.138 C35.473,27.467 35.496,27.954 35.236,28.307 L35.152,28.414 C35.081,28.493 35.004,28.567 34.923,28.636 C34.578,28.891 34.159,29.025 33.731,29.018 C33.622,29.027 33.512,29.027 33.402,29.018 C33.224,29.003 33.055,28.931 32.921,28.811 C32.791,28.674 31.561,27.421 30.545,26.573 C30.419,26.439 30.252,26.351 30.071,26.321 C29.986,26.32 29.905,26.356 29.85,26.42 C29.651,26.642 29.949,26.97 30.079,27.092 L32.157,29.385 C32.139,29.434 32.113,29.481 32.081,29.522 C32.004,29.621 31.752,29.874 31.003,29.973 L30.728,29.973 C30.014,29.928 29.319,29.721 28.696,29.369 C29.481,27.847 28.884,25.976 27.361,25.19 C26.898,24.951 26.382,24.833 25.861,24.846 L25.762,24.846 C25.945,23.633 25.303,22.446 24.188,21.935 C23.779,21.753 23.337,21.656 22.889,21.652 C22.566,21.65 22.245,21.707 21.942,21.821 C21.625,21.204 21.075,20.739 20.414,20.529 C20.056,20.401 19.679,20.334 19.298,20.331 C18.676,20.327 18.068,20.523 17.564,20.888 C16.665,19.76 15.021,19.574 13.892,20.473 C13.816,20.534 13.744,20.598 13.675,20.667 C13.026,20.17 10.466,18.543 3.597,16.984 C3.261,16.908 2.505,16.694 2.069,16.556 C1.992,16.927 1.933,17.302 1.894,17.68 L3.422,18.039 C10.435,19.567 12.75,21.217 13.14,21.523 C12.58,22.862 13.211,24.401 14.551,24.962 C15.022,25.159 15.541,25.214 16.043,25.121 C16.252,26.181 17.004,27.053 18.022,27.413 C18.319,27.531 18.635,27.593 18.954,27.597 C19.156,27.596 19.356,27.571 19.55,27.52 C20.042,28.555 21.072,29.227 22.217,29.262 C22.491,29.262 22.763,29.213 23.019,29.117 C23.638,30.687 25.413,31.458 26.983,30.839 C27.387,30.68 27.752,30.437 28.054,30.126 C28.855,30.584 29.753,30.846 30.675,30.89 C30.807,30.898 30.94,30.898 31.072,30.89 C31.763,30.869 32.412,30.552 32.852,30.019 C32.892,29.963 32.928,29.904 32.959,29.843 C33.232,29.925 33.515,29.969 33.8,29.973 C34.416,29.961 35.011,29.749 35.496,29.369 C36.021,29.037 36.392,28.509 36.527,27.902 C36.713,27.942 36.903,27.962 37.093,27.963 C37.715,27.956 38.321,27.764 38.835,27.413 C39.63,26.952 40.111,26.094 40.088,25.175 C40.276,25.215 40.468,25.235 40.661,25.236 C41.243,25.229 41.811,25.054 42.296,24.732 C42.947,24.332 43.368,23.645 43.427,22.883 C43.475,22.348 43.349,21.812 43.067,21.355 C46.572,19.924 50.191,18.792 53.886,17.97 C53.854,17.593 53.803,17.218 53.733,16.847 C49.825,17.714 46.01,18.957 42.342,20.56 L42.342,20.56 Z" id="Fill-118" fill="#002E6D"></path>
                        </g>
                    </g>
                </g>
            </g>
        </g>
    </g>
</svg>