<?xml version="1.0" encoding="UTF-8"?>
<svg width="155px" height="27px" viewBox="0 0 155 27" version="1.1" xmlns="http://www.w3.org/2000/svg" xmlns:xlink="http://www.w3.org/1999/xlink">
    <!-- Generator: Sketch 46.2 (44496) - http://www.bohemiancoding.com/sketch -->
    <title>Group 15</title>
    <desc>Created with Sketch.</desc>
    <defs></defs>
    <g id="v5" stroke="none" stroke-width="1" fill="none" fill-rule="evenodd">
        <g id="SERVICES-v5" transform="translate(-856.000000, -2441.000000)" fill="#00609B">
            <g id="CLIENTS" transform="translate(268.000000, 1667.000000)">
                <g id="logos" transform="translate(0.000000, 122.000000)">
                    <g id="Group-194" transform="translate(0.000000, 0.010000)">
                        <g id="Group-15" transform="translate(588.000000, 652.000000)">
                            <polygon id="Fill-132" points="0.9643 7.0181 7.4463 7.0181 7.4463 26.4631 13.9283 26.4631 13.9283 7.0181 20.4103 7.0181 20.4103 0.5351 0.9643 0.5351"></polygon>
                            <path d="M131.408,13.5 L137.818,13.5 L137.818,7.018 L131.408,7.018 L131.408,13.5 Z M137.819,0.533 L137.818,0.533 L137.818,0.535 L131.408,0.535 L131.408,0.533 L131.407,0.533 C127.827,0.533 124.925,3.435 124.925,7.016 L124.925,7.018 L124.926,7.018 L124.926,26.463 L131.408,26.463 L131.408,19.981 L137.818,19.981 L137.818,26.463 L144.299,26.463 L144.299,7.018 L144.299,7.016 C144.299,3.435 141.399,0.533 137.819,0.533 L137.819,0.533 Z" id="Fill-133"></path>
                            <path d="M34.8649,13.4998 L28.4539,13.4998 L28.4539,7.0178 L28.4539,7.0178 L34.8639,7.0178 L34.8649,7.0178 L34.8649,13.4998 Z M34.8649,0.5328 L34.8639,0.5328 L34.8639,0.5348 L28.4539,0.5348 L28.4539,0.5328 L28.4529,0.5328 C24.8719,0.5328 21.9719,3.4358 21.9719,7.0158 L21.9719,7.0178 L21.9719,26.4628 L28.4539,26.4628 L28.4539,19.9808 L34.8649,19.9808 L34.8649,26.4628 L41.3459,26.4628 L41.3459,7.0178 L41.3469,7.0178 L41.3469,7.0158 C41.3469,3.4358 38.4439,0.5328 34.8649,0.5328 L34.8649,0.5328 Z" id="Fill-134"></path>
                            <path d="M122.0235,11.19 L112.2485,11.19 L112.2485,16.051 L115.5415,16.051 L115.5415,19.974 L115.5395,19.974 L115.5395,19.981 L109.1105,19.981 L109.1105,19.974 L109.1105,19.974 L109.1105,7.018 L109.1105,7.018 L120.2405,7.018 L120.2405,0.535 L109.1105,0.535 L109.1105,0.533 L109.1105,0.533 C105.5295,0.533 102.6285,3.435 102.6285,7.016 L102.6285,7.018 L102.6285,19.974 L102.6285,19.977 C102.6285,23.551 105.5215,26.449 109.0935,26.458 L109.0935,26.463 L115.5755,26.463 L115.5755,26.457 C119.1395,26.44 122.0265,23.545 122.0265,19.975 L122.0265,19.974 L122.0235,19.974 L122.0235,11.19 Z" id="Fill-135"></path>
                            <path d="M57.5804,13.4862 L57.5784,13.4862 L57.5784,13.5002 L51.0994,13.5002 L51.0994,7.0182 L57.5784,7.0182 L57.5804,7.0182 L57.5804,13.4862 Z M57.5814,0.5342 C57.5804,0.5342 57.5804,0.5352 57.5804,0.5352 L57.5784,0.5352 L44.6174,0.5352 L44.6174,26.4632 L51.0994,26.4632 L51.0994,19.9812 L53.6494,19.9812 L56.3884,26.4632 L62.8724,26.4632 L59.9394,19.5252 C62.3484,18.5832 64.0574,16.2422 64.0624,13.5002 L64.0624,7.0182 L64.0624,7.0162 C64.0624,3.4352 61.1614,0.5342 57.5814,0.5342 L57.5814,0.5342 Z" id="Fill-136"></path>
                            <polygon id="Fill-137" points="93.2485 16.0607 83.5745 0.5347 77.0435 0.5347 77.0435 26.4627 83.5245 26.4627 83.5245 10.8577 93.2485 26.4627 99.7305 26.4627 99.7305 0.5347 93.2485 0.5347"></polygon>
                            <polygon id="Fill-129" points="67.179 26.463 73.661 26.463 73.661 0.535 67.179 0.535"></polygon>
                            <polygon id="Fill-131" points="147.56 18.36 154.043 18.36 154.043 0.535 147.56 0.535"></polygon>
                            <polygon id="Fill-130" points="147.56 26.463 154.043 26.463 154.043 19.981 147.56 19.981"></polygon>
                        </g>
                    </g>
                </g>
            </g>
        </g>
    </g>
</svg>