<?xml version="1.0" encoding="UTF-8"?>
<svg width="175px" height="31px" viewBox="0 0 175 31" version="1.1" xmlns="http://www.w3.org/2000/svg" xmlns:xlink="http://www.w3.org/1999/xlink">
    <!-- Generator: Sketch 46.2 (44496) - http://www.bohemiancoding.com/sketch -->
    <title>Udacity</title>
    <desc>Created with Sketch.</desc>
    <defs></defs>
    <g id="v5" stroke="none" stroke-width="1" fill="none" fill-rule="evenodd">
        <g id="SERVICES-v5" transform="translate(-848.000000, -2168.000000)">
            <g id="CLIENTS" transform="translate(268.000000, 1667.000000)">
                <g id="logos" transform="translate(0.000000, 122.000000)">
                    <g id="Group-194" transform="translate(0.000000, 0.010000)">
                        <g id="Udacity" transform="translate(580.000000, 379.000000)">
                            <path d="M29.2175,17.1774 C29.1085,17.6964 28.9465,18.2064 28.7355,18.6944 C28.1765,19.9214 27.2655,20.9634 26.5055,21.6344 C24.9525,23.0464 23.0175,23.4824 22.7935,23.4824 C23.2595,22.2674 23.5725,20.9644 23.5785,19.5874 L23.5775,6.1824 L29.3505,2.6914 L29.3525,15.5174 C29.3515,16.0694 29.3295,16.6434 29.2175,17.1774 L29.2175,17.1774 Z M15.8855,27.9514 C15.3285,28.1824 14.7465,28.3584 14.1545,28.4774 C13.5465,28.5974 12.9855,28.6584 12.3585,28.6564 C11.7315,28.6554 11.1055,28.5904 10.4975,28.4654 C9.9055,28.3444 9.3245,28.1644 8.7695,27.9294 C8.2245,27.6994 7.6975,27.4154 7.2055,27.0844 C5.9355,26.2034 5.2805,25.4394 4.7185,24.6124 C4.3865,24.1234 4.1025,23.6014 3.8725,23.0614 C3.6385,22.5114 3.4595,21.9364 3.3405,21.3514 C3.2185,20.7504 3.1955,20.1314 3.1975,19.5114 L3.1965,7.2784 L10.8935,2.6364 L10.8835,15.4634 C10.8685,20.3374 14.5005,24.4054 19.1375,25.3884 C18.9555,25.6034 18.8245,25.8084 18.6245,26.0064 C18.2045,26.4174 17.7525,26.8034 17.2625,27.1284 C16.7685,27.4554 16.4315,27.7244 15.8855,27.9514 L15.8855,27.9514 Z M11.1615,0.2964 L0.8975,6.1144 L0.8985,19.5164 C0.8795,25.6714 5.9135,30.6764 12.1415,30.6954 C14.2005,30.7014 16.1335,30.1614 17.7975,29.2134 L26.1115,24.4924 C29.3915,22.8104 31.6375,19.4284 31.6495,15.5234 L31.6505,1.5274 L29.6155,0.3514 L21.2785,5.0064 L21.2795,5.0074 L21.2765,19.5784 C21.2745,20.1984 21.2475,20.6514 21.0835,21.4174 C20.8055,22.5854 20.4145,23.4074 20.3465,23.5464 C19.7105,23.5034 18.3675,23.1394 17.2965,22.5074 C16.7615,22.2004 16.1245,21.7444 15.5505,21.2074 C15.1795,20.8394 14.8435,20.4334 14.5515,20.0034 C14.2575,19.5694 14.0035,19.1054 13.8005,18.6254 C13.5925,18.1364 13.4335,17.6244 13.3275,17.1054 C13.2195,16.5714 13.1945,16.0204 13.1955,15.4694 L13.2025,1.4734 L11.1615,0.2964 Z" id="Fill-99" fill="#01B3E3"></path>
                            <path d="M92.4716,17.2156 L95.4336,10.0376 L95.4746,10.0376 L97.9766,16.1006 L92.4716,17.2156 Z M94.6526,8.0056 L88.5876,22.8136 L90.1916,22.8136 L91.7966,18.8506 L98.5466,17.4836 L100.7166,22.8146 L102.3206,22.8146 L96.2556,8.0066 L94.6526,8.0066 L94.6526,8.0056 Z M172.9526,8.0056 L168.1816,14.8336 L168.1386,14.8336 L163.3206,8.0056 L161.6496,8.0056 L167.3826,16.4266 L167.3826,22.8256 L168.9206,22.8256 L168.9206,16.4266 L174.6036,8.0056 L172.9526,8.0056 Z M142.7736,9.5256 L148.1566,9.5256 L148.1556,22.8246 L149.6946,22.8246 L149.6946,9.5256 L155.0776,9.5256 L155.0776,8.0056 L142.7736,8.0056 L142.7736,9.5256 Z M132.3916,22.8256 L133.9296,22.8256 L133.9296,8.0056 L132.3916,8.0056 L132.3916,22.8256 Z M116.9746,21.6776 C113.4406,21.6776 110.8916,18.7896 110.8916,15.2766 C110.8916,11.8066 113.4396,9.1296 116.9316,9.1296 C119.7256,9.1296 121.4616,10.7606 121.4616,10.7606 L122.2446,9.6946 C122.2446,9.6946 120.4456,7.7856 116.8896,7.7856 C112.6346,7.7856 109.3676,11.0326 109.3676,15.2966 C109.3676,19.5836 112.5506,23.1866 116.9536,23.1866 C120.6156,23.1866 122.6466,20.7126 122.6466,20.7126 L121.7996,19.6876 C121.8006,19.6886 119.9806,21.6776 116.9746,21.6776 L116.9746,21.6776 Z M74.0176,21.3186 L70.8706,21.3056 L70.8706,9.5256 L74.0176,9.5216 C77.6576,9.5216 80.1146,11.7946 80.1146,15.4026 C80.1146,19.1926 77.6796,21.3186 74.0176,21.3186 L74.0176,21.3186 Z M74.1666,8.0056 L69.3326,8.0056 L69.3336,22.8256 L74.3326,22.8246 C78.7996,22.8246 81.6396,20.0856 81.6396,15.4026 C81.6386,10.7626 78.6326,8.0056 74.1666,8.0056 L74.1666,8.0056 Z M57.7916,17.0606 C57.7916,19.5906 55.6566,21.6826 52.7686,21.6826 C49.8806,21.6826 47.7986,19.5906 47.7986,17.0606 L47.7986,8.0056 L46.2636,8.0056 L46.2636,17.0816 C46.2636,20.3436 48.8066,23.2046 52.7686,23.2046 C56.7306,23.2046 59.3346,20.3436 59.3346,17.0816 L59.3346,8.0056 L57.7926,8.0056 L57.7926,17.0606 L57.7916,17.0606 Z" id="Fill-100" fill="#2D3C49"></path>
                        </g>
                    </g>
                </g>
            </g>
        </g>
    </g>
</svg>